<svg xmlns="http://www.w3.org/2000/svg" viewBox="0 0 565.1 781.4"><title>mucis mixer lin</title><g id="图层_3" data-name="图层 3"><rect y="81.2" width="369.1" height="135.87" style="fill:#c30d23"/></g><g id="图层_1" data-name="图层 1"><rect x="65.1" y="0.5" width="261.7" height="55.68" style="fill:#fff;stroke:#231815;stroke-miterlimit:10"/><rect y="81.2" width="369.1" height="247.73" style="fill:none"/><rect y="329.6" width="105.7" height="71.32" style="fill:#fff100"/><rect x="136.5" y="329.7" width="105.7" height="71.32" style="fill:#9ed8f3"/><rect x="263.7" y="329" width="105.7" height="71.32" style="fill:#d8559a"/><text transform="translate(72.2 23.2)" style="font-size:17.7290096282959px;fill:#231815;font-family:AdobeSongStd-Light-GBpc-EUC-H, Adobe Song Std"><tspan xml:space="preserve">Japanese   Culture   Music    Mixer</tspan><tspan x="0" y="21.3" xml:space="preserve">        Name：Japanese  drum boy</tspan></text><path d="M177.8,551v1.3c-.5-.2-1.1-.7-1.7-.7-3.1,0-6.2-.1-9.3,0s-4.7,4.8-3.5,6.9a2.2,2.2,0,0,0,1.8.6,6.5,6.5,0,0,0,2.2-1.1h-.2c-.2.4-.3,1-.7,1.3s-3.3,2.3-4.1,3.9c-2.8,5.8-5.3,11.9-7.9,17.8l5.1,4.8c3.3-1.9,6.2-4.3,9.6-5.4s6.4-1.2,8.7-3.9v13l-5.9.5c-.6-3.6-2.3-5.6-5.8-5.6s-4.6,1.1-6,5.4c-3.8-.2-5.6.5-6.5,2.8s0,5,2.3,6.8c.5.4.6,1.6.7,2.1,1.6.7,3.2,1.1,4.3,2.1s1.5,2.5,2.4,4l2.4-2.1,3.3,2.8-7.6,5.3c-2,1.4-2.7.5-2.9-1.5,2.4-1.3,3.7-3.1,2.9-5.8s-3.4-3.4-6.2-3.2c-.6-3-2-5.1-5.2-5.1s-4.8,2-5.3,5.2c-2.8-.4-5.4-.1-6.3,3s.9,4.7,2.6,5.7l.3,5.5H81.2l-.8-2.2c3.8-2.2,4.8-5.2,2.2-7.1a108.5,108.5,0,0,0-11.8-7.1,3,3,0,0,0-2.6.1c-2.6,2.1-6,2.3-8.8,3.8s-3,2.6-4.3,4.2a21,21,0,0,0-2.4,4.1l-3.9-5.8c-.3-.5-.6-1.1-1-1.2-3.8-.3-4.1-3.9-5.6-6.2a2.3,2.3,0,0,1,0-2c.7-1.2,7.8-2.3,8.8-1.4s3.2,2.9,4.7,4.2l3.6-4.2c0-.1-.3-.3-.4-.6a6.9,6.9,0,0,0-.4-1h4.7v-.8l-4.4-2.4.5-.9a40.7,40.7,0,0,1,5.5,2.9c4,3,6.1,3,10-.2-4-4.3-8.1-8.7-12.2-12.9-1.2-1.3-2.7-2.3-3.9-3.4l1.5-.5c-3.9-4.7-7.8-.8-11.7-.8l7.7-3.2c-2.7-1.8-4.7-3.6-7-4.5s-5.1-1-8-1.5c2.6-3.5,5-6.7,7.2-9.5l-10,1.3V544.2H51.8l3.6-16.7-16.9-7.4V505.8l1.4-4.7,21.4,15L73.4,503,57.7,480.7c0,.1.2-.3.6-.4,5.5-2.3,11.2-2.4,17-2.1.6,0,1.4,1.1,1.7,1.8,1.8,3.6,3.5,7.2,5.2,10.9,1,1.9,1.9,3.8,2.6,5.3l17.1-4.8c-.2-4.2-.5-8.6-.8-13.2h15.2c-.3,3.9-.7,7.6-.8,11.2-.1.9.5,2.4,1.1,2.6,5.2,1.6,10.5,3,15.9,4.5,2.5-5.3,5.1-10.9,7.7-16.3.4-.8,1.1-1.9,1.6-2,6.4-.3,12.7-.1,17.8,2.9-5.8,7.4-10.8,15.1-16.2,22.8,14.7,12.5,21.4,28.4,20.9,47.1Zm-60.4,54.3c-4.3-2.3-8.9-1.7-13.4-1.3-2.7.3-5.1,2.2-6.5,5.2,4.7,1.2,8.6,3,11,7.8,2.5-4.8,6.6-6.8,11.6-8.1l-1.6-2.9a11.4,11.4,0,0,0,2.4,2.5c.6.3,2.1.3,2.4-.1,2.6-3.7,6.3-5.2,10.3-6.1-.9-3.6-1.3-3.8-4.5-2.5l-1.7.6L116,603.7Zm-9.5-5.1c29.1.2,53.1-23.7,52.9-52.6s-23.3-52.2-52.6-52.6-52.6,23.7-52.6,52.8A52.7,52.7,0,0,0,107.9,600.2Zm43.8-4c-1.7-2.5-4.3-1.9-6.5-1.5-4.7.8-8.4,4.2-9,8.2,2.7-.6,6.5-.3,7.4-1.8C145.5,597.6,148.1,596.7,151.7,596.2Zm-14.1,8.6-.3-.8c-6-.9-10.9,1.2-12.1,5Zm-1.2,1.7-8.2,2.7C131.3,611.4,135.7,610.1,136.4,606.5ZM48.8,555.7h1.5c.5-1.4,1.7-3.2,1.3-4.2s-2.3-2.9-4.8-.7Zm95,35.2.4,1.3c1.4-.4,3.2-.5,4.2-1.5s.5-2.5.7-3.8l-.9-.2Zm-65.9,5,4.4,5.5C84.3,598.3,83.3,596.9,77.9,595.9Zm58.6,17.7c-.8-1.4-1.2-2.7-1.7-2.7a8.8,8.8,0,0,0-3,1V613Z" transform="translate(-35.6 -22)" style="fill:#00a0e9"/><path d="M177.8,551H164.3c.5-18.7-6.2-34.6-20.9-47.1,5.4-7.7,10.4-15.4,16.2-22.8-5.1-3-11.4-3.2-17.8-2.9-.5.1-1.2,1.2-1.6,2-2.6,5.4-5.2,11-7.7,16.3-5.4-1.5-10.7-2.9-15.9-4.5-.6-.2-1.2-1.7-1.1-2.6.1-3.6.5-7.3.8-11.2H101.1c.3,4.6.6,9,.8,13.2l-17.1,4.8c-.7-1.5-1.6-3.4-2.6-5.3-1.7-3.7-3.4-7.3-5.2-10.9-.3-.7-1.1-1.8-1.7-1.8-5.8-.3-11.5-.2-17,2.1-.4.1-.6.5-.6.4L73.4,503,61.3,516.1l-21.4-15-1.4,4.7V477.4H177.8v28.4l-1.3-4.2-13.7,9.8a104.3,104.3,0,0,1,10.1,4.8c1.9,1.1,3.3,3,4.9,4.5Z" transform="translate(-35.6 -22)" style="fill:#f8b62d"/><path d="M38.5,558.5l10-1.3c-2.2,2.8-4.6,6-7.2,9.5,2.9.5,5.6.6,8,1.5s4.3,2.7,7,4.5l-7.7,3.2c3.9,0,7.8-3.9,11.7.8l-1.5.5c1.2,1.1,2.7,2.1,3.9,3.4,4.1,4.2,8.2,8.6,12.2,12.9-3.9,3.2-6,3.2-10,.2a40.7,40.7,0,0,0-5.5-2.9l-.5.9,4.4,2.4v.8H58.5a6.9,6.9,0,0,1,.4,1c.1.3.4.5.4.6l-3.6,4.2c-1.5-1.3-3-2.8-4.7-4.2s-8.1.2-8.8,1.4a2.3,2.3,0,0,0,0,2c1.5,2.3,1.8,5.9,5.6,6.2.4.1.7.7,1,1.2l3.9,5.8a21,21,0,0,1,2.4-4.1c1.3-1.6,2.6-3.3,4.3-4.2s6.2-1.7,8.8-3.8a3,3,0,0,1,2.6-.1A108.5,108.5,0,0,1,82.6,608c2.6,1.9,1.6,4.9-2.2,7.1l.8,2.2H38.5Z" transform="translate(-35.6 -22)" style="fill:#9cd7f1"/><path d="M141.3,617.3l-.3-5.5c-1.7-1-3.4-2.8-2.6-5.7s3.5-3.4,6.3-3c.5-3.2,2-5.2,5.3-5.2s4.6,2.1,5.2,5.1c2.8-.2,5.4,0,6.2,3.2s-.5,4.5-2.9,5.8c.2,2,.9,2.9,2.9,1.5l7.6-5.3-3.3-2.8-2.4,2.1c-.9-1.5-1.4-3.1-2.4-4s-2.7-1.4-4.3-2.1c-.1-.5-.2-1.7-.7-2.1-2.3-1.8-3.3-3.9-2.3-6.8s2.7-3,6.5-2.8c1.4-4.3,2.8-5.4,6-5.4s5.2,2,5.8,5.6l5.9-.5v27.9Z" transform="translate(-35.6 -22)" style="fill:#c30d23"/><path d="M177.8,576.4c-2.3,2.7-5.6,3-8.7,3.9s-6.3,3.5-9.6,5.4l-5.1-4.8c2.6-5.9,5.1-12,7.9-17.8.8-1.6,2.8-2.6,4.1-3.9s.5-.9.7-1.3,1.4-.9,1.6-1.6-.2-1.9-.5-1.9a18.4,18.4,0,0,0-3.3.3l-.2.9,2.6,2.4a6.5,6.5,0,0,1-2.2,1.1,2.2,2.2,0,0,1-1.8-.6c-1.2-2.1,1.2-6.7,3.5-6.9s6.2,0,9.3,0c.6,0,1.2.5,1.7.7v1.8a16.7,16.7,0,0,0-3.9.6c-.8.2-1.3,1.3-1.9,2a6.2,6.2,0,0,0,2.3.7c1.8.1,2.7.7,2.3,2.7a5.5,5.5,0,0,0,.2,2.2c1.2,3.7.2,5-3.7,4.6a12.4,12.4,0,0,0-8.8,3.1c5.6-2.7,9-3.1,13.5-1.6Z" transform="translate(-35.6 -22)" style="fill:#f8b62d"/><path d="M38.5,520.1l16.9,7.4-3.6,16.7H38.5Z" transform="translate(-35.6 -22)" style="fill:#f8b62d"/><path d="M177.8,520.7c-1.6-1.5-3-3.4-4.9-4.5a104.3,104.3,0,0,0-10.1-4.8l13.7-9.8,1.3,4.2Z" transform="translate(-35.6 -22)" style="fill:#ea5514"/><path d="M177.8,568.4c-4.5-1.5-7.9-1.1-13.5,1.6a12.4,12.4,0,0,1,8.8-3.1c3.9.4,4.9-.9,3.7-4.6a5.5,5.5,0,0,1-.2-2.2c.4-2-.5-2.6-2.3-2.7a6.2,6.2,0,0,1-2.3-.7c.6-.7,1.1-1.8,1.9-2a16.7,16.7,0,0,1,3.9-.6Z" transform="translate(-35.6 -22)" style="fill:#fff100"/><path d="M107.9,600.2a52.7,52.7,0,0,1-52.3-52.4c0-29.1,23.9-53.1,52.6-52.8s52.4,23.5,52.6,52.6S137,600.4,107.9,600.2Zm42.3-52A41.9,41.9,0,0,0,108.5,506c-22.8-.1-41.9,19-41.9,41.8a41.8,41.8,0,0,0,83.6.4Z" transform="translate(-35.6 -22)" style="fill:#fff"/><path d="M118.5,606l1.6,2.9c-5,1.3-9.1,3.3-11.6,8.1-2.4-4.8-6.3-6.6-11-7.8,1.4-3,3.8-4.9,6.5-5.2,4.5-.4,9.1-1,13.4,1.3A4.1,4.1,0,0,0,118.5,606Z" transform="translate(-35.6 -22)" style="fill:#fff"/><path d="M118.5,606a4.1,4.1,0,0,1-1.1-.7l-1.4-1.6,11.4-3.3,1.7-.6c3.2-1.3,3.6-1.1,4.5,2.5-4,.9-7.7,2.4-10.3,6.1-.3.4-1.8.4-2.4.1A11.4,11.4,0,0,1,118.5,606Z" transform="translate(-35.6 -22)" style="fill:#fff"/><path d="M151.7,596.2c-3.6.5-6.2,1.4-8.1,4.9-.9,1.5-4.7,1.2-7.4,1.8.6-4,4.3-7.4,9-8.2C147.4,594.3,150,593.7,151.7,596.2Z" transform="translate(-35.6 -22)" style="fill:#fff"/><path d="M137.6,604.8,125.2,609c1.2-3.8,6.1-5.9,12.1-5Z" transform="translate(-35.6 -22)" style="fill:#fff"/><path d="M136.4,606.5c-.7,3.6-5.1,4.9-8.2,2.7Z" transform="translate(-35.6 -22)" style="fill:#fff"/><path d="M48.8,555.7l-2-4.9c2.5-2.2,4.2-.6,4.8.7s-.8,2.8-1.3,4.2Z" transform="translate(-35.6 -22)" style="fill:#fff"/><path d="M143.8,590.9l4.4-4.2.9.2c-.2,1.3.1,3.1-.7,3.8s-2.8,1.1-4.2,1.5Z" transform="translate(-35.6 -22)" style="fill:#fff"/><path d="M77.9,595.9c5.4,1,6.4,2.4,4.4,5.5Z" transform="translate(-35.6 -22)" style="fill:#fff"/><path d="M167.3,558l-2.6-2.4.2-.9a18.4,18.4,0,0,1,3.3-.3c.3,0,.7,1.4.5,1.9s-1,1.1-1.6,1.6Z" transform="translate(-35.6 -22)" style="fill:#e83828"/><path d="M136.5,613.6l-4.6-.6v-1.1a8.8,8.8,0,0,1,3-1C135.3,610.9,135.7,612.2,136.5,613.6Z" transform="translate(-35.6 -22)" style="fill:#fff"/><path d="M150.2,548.2a41.8,41.8,0,0,1-83.6-.4c0-22.8,19.1-41.9,41.9-41.8A41.9,41.9,0,0,1,150.2,548.2Z" transform="translate(-35.6 -22)" style="fill:#ea554d"/><path d="M116.8,232v.7l-.9-.3H111c-1.3.1-2.5,2.6-1.9,3.7s.7.3,1,.3a6,6,0,0,0,1.1-.6h-.1l-.3.7c-.8.7-1.8,1.2-2.2,2-1.5,3.1-2.8,6.3-4.2,9.4l2.7,2.5a28.4,28.4,0,0,1,5.1-2.8c1.6-.5,3.4-.7,4.6-2.1v6.9l-3.1.3c-.4-1.9-1.3-3-3.1-3s-2.4.6-3.2,2.9c-2-.2-2.9.2-3.4,1.4s0,2.6,1.2,3.6.3.8.4,1.1a9,9,0,0,1,2.2,1.1,8.4,8.4,0,0,1,1.3,2.1l1.3-1.1,1.7,1.5-4,2.8c-1,.7-1.4.3-1.5-.8a2.6,2.6,0,0,0,1.5-3.1c-.4-1.7-1.8-1.8-3.3-1.6-.3-1.6-1-2.7-2.7-2.7s-2.5,1-2.8,2.7c-1.5-.2-2.8-.1-3.3,1.6a2.5,2.5,0,0,0,1.3,3l.2,2.9H65.8l-.4-1.2c2-1.1,2.5-2.7,1.1-3.7a64.1,64.1,0,0,0-6.2-3.8,1.7,1.7,0,0,0-1.4.1c-1.3,1.1-3.1,1.2-4.6,2a9.6,9.6,0,0,0-2.3,2.2,18.1,18.1,0,0,0-1.2,2.2c-.9-1.2-1.5-2.2-2.1-3.1s-.3-.6-.5-.6c-2-.2-2.2-2-3-3.3a1.7,1.7,0,0,1,0-1c.4-.7,4.1-1.3,4.7-.8l2.4,2.2,2-2.2-.3-.3-.2-.5h2.5v-.4L54,253.5l.3-.5a13.5,13.5,0,0,1,2.9,1.6c2.1,1.5,3.2,1.5,5.3-.2-2.2-2.2-4.3-4.5-6.5-6.8l-2-1.8.8-.2c-2.1-2.5-4.1-.4-6.2-.4l4.1-1.7a25.2,25.2,0,0,0-3.7-2.4,26.1,26.1,0,0,0-4.2-.8l3.7-5-5.2.7v-7.6h7l1.9-8.8-8.9-3.9v-7.5l.7-2.5,11.3,7.9,6.4-6.9-8.3-11.8.3-.2c2.9-1.2,5.9-1.2,9-1.1.3,0,.7.6.9,1,1,1.9,1.8,3.8,2.8,5.7s.9,2,1.3,2.8l9-2.5-.4-7h8c-.1,2.1-.4,4-.4,5.9s.3,1.3.6,1.4c2.7.9,5.5,1.6,8.4,2.4,1.3-2.8,2.6-5.8,4-8.6.2-.4.6-1.1.9-1.1,3.3-.1,6.7,0,9.3,1.6-3,3.8-5.7,7.9-8.5,12a30,30,0,0,1,11,24.8ZM84.9,260.7c-2.3-1.3-4.7-.9-7.1-.7a4.2,4.2,0,0,0-3.4,2.7c2.5.6,4.5,1.6,5.8,4.1,1.3-2.5,3.5-3.6,6.1-4.3l-.8-1.4a6.8,6.8,0,0,0,1.2,1.2c.4.2,1.2.2,1.3,0a8.7,8.7,0,0,1,5.5-3.2c-.5-1.9-.8-2-2.4-1.3l-1,.3-5.9,1.7Zm-5-2.7a27.8,27.8,0,1,0,.2-55.5c-15.2-.2-27.8,12.5-27.8,27.8A27.8,27.8,0,0,0,79.9,258Zm23.1-2.1c-.9-1.3-2.3-1-3.4-.8a5.6,5.6,0,0,0-4.8,4.3c1.4-.3,3.5-.2,3.9-1S101.1,256.1,103,255.9Zm-7.4,4.5-.2-.4c-3.2-.5-5.8.6-6.4,2.6Zm-.7.9-4.3,1.4A2.7,2.7,0,0,0,94.9,261.3ZM48.7,234.5h.8c.3-.8.9-1.7.7-2.2s-1.2-1.5-2.6-.4Zm50.1,18.6.2.7a7.8,7.8,0,0,0,2.3-.8c.4-.4.2-1.3.3-2h-.4Zm-34.7,2.6,2.3,2.9C67.5,257,66.9,256.2,64.1,255.7ZM95,265c-.4-.7-.7-1.4-.9-1.4a4.9,4.9,0,0,0-1.6.5v.6Z" transform="translate(-35.6 -22)" style="fill:#00a0e9"/><path d="M116.8,232h-7.2a30,30,0,0,0-11-24.8c2.8-4.1,5.5-8.2,8.5-12-2.6-1.6-6-1.7-9.3-1.6-.3,0-.7.7-.9,1.1-1.4,2.8-2.7,5.8-4,8.6-2.9-.8-5.7-1.5-8.4-2.4-.3-.1-.6-.9-.6-1.4s.3-3.8.4-5.9h-8l.4,7-9,2.5c-.4-.8-.9-1.8-1.3-2.8s-1.8-3.8-2.8-5.7c-.2-.4-.6-1-.9-1-3.1-.1-6.1-.1-9,1.1l-.3.2,8.3,11.8-6.4,6.9L44,205.7l-.7,2.5v-15h73.5v15l-.7-2.2-7.2,5.1,5.3,2.5a19.5,19.5,0,0,1,2.6,2.4Z" transform="translate(-35.6 -22)" style="fill:#f8b62d"/><path d="M43.3,236l5.2-.7-3.7,5a26.1,26.1,0,0,1,4.2.8,25.2,25.2,0,0,1,3.7,2.4l-4.1,1.7c2.1,0,4.1-2.1,6.2.4l-.8.2,2,1.8c2.2,2.3,4.3,4.6,6.5,6.8-2.1,1.7-3.2,1.7-5.3.2a13.5,13.5,0,0,0-2.9-1.6l-.3.5,2.4,1.3v.4H53.8l.2.5.3.3-2,2.2L49.9,256c-.6-.5-4.3.1-4.7.8a1.7,1.7,0,0,0,0,1c.8,1.3,1,3.1,3,3.3.2,0,.3.4.5.6s1.2,1.9,2.1,3.1a18.1,18.1,0,0,1,1.2-2.2,9.6,9.6,0,0,1,2.3-2.2c1.5-.8,3.3-.9,4.6-2a1.7,1.7,0,0,1,1.4-.1,64.1,64.1,0,0,1,6.2,3.8c1.4,1,.9,2.6-1.1,3.7l.4,1.2H43.3Z" transform="translate(-35.6 -22)" style="fill:#9cd7f1"/><path d="M97.5,267l-.2-2.9a2.5,2.5,0,0,1-1.3-3c.5-1.7,1.8-1.8,3.3-1.6.3-1.7,1.1-2.7,2.8-2.7s2.4,1.1,2.7,2.7c1.5-.2,2.9-.1,3.3,1.6a2.6,2.6,0,0,1-1.5,3.1c.1,1.1.5,1.5,1.5.8l4-2.8-1.7-1.5-1.3,1.1a8.4,8.4,0,0,0-1.3-2.1,9,9,0,0,0-2.2-1.1c-.1-.3-.1-.9-.4-1.1s-1.8-2.1-1.2-3.6,1.4-1.6,3.4-1.4c.8-2.3,1.5-2.9,3.2-2.9s2.7,1.1,3.1,3l3.1-.3V267Z" transform="translate(-35.6 -22)" style="fill:#c30d23"/><path d="M116.8,245.4c-1.2,1.4-3,1.6-4.6,2.1a28.4,28.4,0,0,0-5.1,2.8l-2.7-2.5c1.4-3.1,2.7-6.3,4.2-9.4.4-.8,1.4-1.3,2.2-2l.3-.7c.3-.3.8-.5.9-.9a1.3,1.3,0,0,0-.3-1l-1.8.2v.4l1.3,1.3a6,6,0,0,1-1.1.6c-.3,0-.9-.1-1-.3s.6-3.6,1.9-3.7h4.9l.9.3v1a13.6,13.6,0,0,0-2.1.2c-.4.2-.7.8-1,1.1a2.8,2.8,0,0,0,1.2.4c1,0,1.4.4,1.2,1.4a2.5,2.5,0,0,0,.2,1.2c.5,1.9.1,2.6-2,2.4a6.7,6.7,0,0,0-4.7,1.6c3-1.4,4.8-1.6,7.2-.8Z" transform="translate(-35.6 -22)" style="fill:#f8b62d"/><path d="M43.3,215.7l8.9,3.9-1.9,8.8h-7Z" transform="translate(-35.6 -22)" style="fill:#f8b62d"/><path d="M116.8,216a19.5,19.5,0,0,0-2.6-2.4l-5.3-2.5,7.2-5.1.7,2.2Z" transform="translate(-35.6 -22)" style="fill:#ea5514"/><path d="M116.8,241.2c-2.4-.8-4.2-.6-7.2.8a6.7,6.7,0,0,1,4.7-1.6c2.1.2,2.5-.5,2-2.4a2.5,2.5,0,0,1-.2-1.2c.2-1-.2-1.4-1.2-1.4a2.8,2.8,0,0,1-1.2-.4c.3-.3.6-.9,1-1.1a13.6,13.6,0,0,1,2.1-.2Z" transform="translate(-35.6 -22)" style="fill:#fff100"/><path d="M79.9,258a27.8,27.8,0,0,1-27.6-27.7c0-15.3,12.6-28,27.8-27.8a27.8,27.8,0,1,1-.2,55.5Zm22.3-27.5a22.1,22.1,0,1,0-22.3,21.8A21.8,21.8,0,0,0,102.2,230.5Z" transform="translate(-35.6 -22)" style="fill:#fff"/><path d="M85.5,261.1l.8,1.4c-2.6.7-4.8,1.8-6.1,4.3-1.3-2.5-3.3-3.5-5.8-4.1a4.2,4.2,0,0,1,3.4-2.7c2.4-.2,4.8-.6,7.1.7Z" transform="translate(-35.6 -22)" style="fill:#fff"/><path d="M85.5,261.1l-.6-.4-.7-.9,5.9-1.7,1-.3c1.6-.7,1.9-.6,2.4,1.3a8.7,8.7,0,0,0-5.5,3.2c-.1.2-.9.2-1.3,0A6.8,6.8,0,0,1,85.5,261.1Z" transform="translate(-35.6 -22)" style="fill:#fff"/><path d="M103,255.9c-1.9.2-3.3.7-4.3,2.5s-2.5.7-3.9,1a5.6,5.6,0,0,1,4.8-4.3C100.7,254.9,102.1,254.6,103,255.9Z" transform="translate(-35.6 -22)" style="fill:#fff"/><path d="M95.6,260.4,89,262.6c.6-2,3.2-3.1,6.4-2.6Z" transform="translate(-35.6 -22)" style="fill:#fff"/><path d="M94.9,261.3a2.7,2.7,0,0,1-4.3,1.4Z" transform="translate(-35.6 -22)" style="fill:#fff"/><path d="M48.7,234.5l-1.1-2.6c1.4-1.1,2.3-.3,2.6.4s-.4,1.4-.7,2.2Z" transform="translate(-35.6 -22)" style="fill:#fff"/><path d="M98.8,253.1l2.4-2.2h.4c-.1.7.1,1.6-.3,2a7.8,7.8,0,0,1-2.3.8Z" transform="translate(-35.6 -22)" style="fill:#fff"/><path d="M64.1,255.7c2.8.5,3.4,1.3,2.3,2.9Z" transform="translate(-35.6 -22)" style="fill:#fff"/><path d="M111.2,235.7l-1.3-1.3V234l1.8-.2a1.3,1.3,0,0,1,.3,1c-.1.4-.6.6-.9.9Z" transform="translate(-35.6 -22)" style="fill:#e83828"/><path d="M95,265l-2.5-.3v-.6a4.9,4.9,0,0,1,1.6-.5C94.3,263.6,94.6,264.3,95,265Z" transform="translate(-35.6 -22)" style="fill:#fff"/><path d="M102.2,230.5a22.1,22.1,0,0,1-44.1-.2,22.1,22.1,0,1,1,44.1.2Z" transform="translate(-35.6 -22)" style="fill:#ea554d"/><path d="M207.1,232.5v.7a1.8,1.8,0,0,0-.9-.4c-1.7,0-3.3-.1-4.9,0s-2.5,2.5-1.9,3.6.6.4.9.4l1.2-.6h-.1c-.1.3-.2.6-.4.7s-1.7,1.2-2.1,2.1c-1.5,3.1-2.8,6.2-4.2,9.4l2.7,2.5c1.7-1,3.3-2.3,5-2.8s3.4-.7,4.7-2.1v6.9l-3.2.2c-.3-1.9-1.2-3-3-3s-2.4.6-3.2,2.9c-2-.1-2.9.3-3.4,1.5s0,2.6,1.2,3.6.3.8.4,1.1a7.6,7.6,0,0,1,2.2,1.1,8.4,8.4,0,0,1,1.3,2.1l1.2-1.1,1.8,1.5-4,2.8c-1,.7-1.4.2-1.6-.8s2-1.7,1.6-3.1-1.8-1.8-3.3-1.7c-.3-1.6-1-2.7-2.7-2.7s-2.6,1.1-2.8,2.7c-1.5-.1-2.9,0-3.3,1.7a2.6,2.6,0,0,0,1.3,3l.2,2.9H156.1l-.4-1.2c2-1.2,2.5-2.7,1.1-3.7a49,49,0,0,0-6.2-3.8,1.4,1.4,0,0,0-1.4.1c-1.4,1.1-3.1,1.2-4.6,1.9a10,10,0,0,0-2.3,2.3,15.2,15.2,0,0,0-1.2,2.1l-2.1-3c-.2-.3-.3-.6-.5-.6-2-.2-2.2-2.1-3-3.3a1.2,1.2,0,0,1,0-1c.4-.7,4.1-1.3,4.7-.8l2.4,2.2,1.9-2.2c0-.1-.1-.2-.2-.3s-.1-.4-.2-.6h2.5v-.4l-2.4-1.2.3-.5a26.4,26.4,0,0,1,2.9,1.5c2.1,1.6,3.2,1.6,5.3-.1-2.2-2.3-4.3-4.6-6.5-6.8-.6-.7-1.4-1.2-2-1.8l.8-.3c-2.1-2.4-4.2-.4-6.2-.4L143,244a21.3,21.3,0,0,0-3.8-2.4,22,22,0,0,0-4.2-.9l3.8-5-5.2.7v-7.5h7l1.9-8.8-8.9-3.9v-7.5l.7-2.5,11.3,7.9,6.4-6.9-8.3-11.8.3-.2a19.6,19.6,0,0,1,9-1.1c.3,0,.7.5.9.9l2.7,5.8,1.4,2.8,9-2.5-.4-7h8c-.2,2-.4,4-.4,5.9s.2,1.3.6,1.4l8.4,2.3c1.3-2.8,2.6-5.7,4-8.6.2-.4.6-1,.9-1,3.3-.2,6.7-.1,9.3,1.5-3,3.9-5.7,8-8.5,12.1a30,30,0,0,1,11,24.8Zm-31.9,28.6c-2.3-1.2-4.7-.9-7.1-.6a4.2,4.2,0,0,0-3.4,2.7c2.5.6,4.5,1.6,5.8,4.1,1.3-2.5,3.5-3.6,6.1-4.3l-.8-1.5a5,5,0,0,0,1.2,1.3c.3.2,1.2.2,1.3-.1a8.4,8.4,0,0,1,5.4-3.2c-.5-1.9-.7-2-2.4-1.3s-.6.2-.9.3l-5.9,1.8Zm-5-2.6c15.3,0,28-12.6,27.9-27.8A27.8,27.8,0,0,0,170.4,203c-15.2-.2-27.8,12.4-27.8,27.8A27.9,27.9,0,0,0,170.2,258.5Zm23.1-2.2c-.9-1.3-2.3-1-3.4-.8s-4.5,2.2-4.8,4.4c1.4-.3,3.4-.2,3.9-1S191.4,256.6,193.3,256.3Zm-7.5,4.6v-.5c-3.2-.4-5.8.7-6.4,2.7Zm-.6.9-4.3,1.4A2.7,2.7,0,0,0,185.2,261.8ZM139,235h.8c.2-.8.9-1.7.7-2.3s-1.2-1.5-2.6-.3Zm50.1,18.5.2.7a5.7,5.7,0,0,0,2.3-.8c.4-.3.2-1.3.3-2h-.5Zm-34.8,2.7,2.4,2.9C157.7,257.4,157.2,256.7,154.3,256.2Zm31,9.3c-.5-.7-.7-1.4-.9-1.4a4.3,4.3,0,0,0-1.6.5v.6Z" transform="translate(-35.6 -22)" style="fill:#00a0e9"/><path d="M207.1,232.5h-7.2a30,30,0,0,0-11-24.8c2.8-4.1,5.5-8.2,8.5-12.1-2.6-1.6-6-1.7-9.3-1.5-.3,0-.7.6-.9,1-1.4,2.9-2.7,5.8-4,8.6l-8.4-2.3c-.4-.1-.7-.9-.6-1.4s.2-3.9.4-5.9h-8l.4,7-9,2.5-1.4-2.8-2.7-5.8c-.2-.4-.6-.9-.9-.9a19.6,19.6,0,0,0-9,1.1l-.3.2,8.3,11.8-6.4,6.9-11.3-7.9-.7,2.5V193.6h73.5v15.1l-.7-2.3-7.3,5.2a37.1,37.1,0,0,1,5.3,2.5,20.2,20.2,0,0,1,2.7,2.4Z" transform="translate(-35.6 -22)" style="fill:#f8b62d"/><path d="M133.6,236.4l5.2-.7-3.8,5a22,22,0,0,1,4.2.9A21.3,21.3,0,0,1,143,244l-4.1,1.6c2,0,4.1-2,6.2.4l-.8.3c.6.6,1.4,1.1,2,1.8,2.2,2.2,4.3,4.5,6.5,6.8-2.1,1.7-3.2,1.7-5.3.1a26.4,26.4,0,0,0-2.9-1.5l-.3.5,2.4,1.2v.4h-2.5c.1.2.1.4.2.6s.2.2.2.3l-1.9,2.2-2.4-2.2c-.6-.5-4.3.1-4.7.8a1.2,1.2,0,0,0,0,1c.8,1.2,1,3.1,3,3.3.2,0,.3.3.5.6l2.1,3a15.2,15.2,0,0,1,1.2-2.1,10,10,0,0,1,2.3-2.3c1.5-.7,3.2-.8,4.6-1.9a1.4,1.4,0,0,1,1.4-.1,49,49,0,0,1,6.2,3.8c1.4,1,.9,2.5-1.1,3.7l.4,1.2H133.6Z" transform="translate(-35.6 -22)" style="fill:#9cd7f1"/><path d="M187.8,267.5l-.2-2.9a2.6,2.6,0,0,1-1.3-3c.4-1.7,1.8-1.8,3.3-1.7.2-1.6,1-2.7,2.8-2.7s2.4,1.1,2.7,2.7c1.5-.1,2.8,0,3.3,1.7s-.3,2.4-1.6,3.1.6,1.5,1.6.8l4-2.8-1.8-1.5-1.2,1.1a8.4,8.4,0,0,0-1.3-2.1,7.6,7.6,0,0,0-2.2-1.1c-.1-.3-.1-.9-.4-1.1s-1.8-2.1-1.2-3.6,1.4-1.6,3.4-1.5c.8-2.3,1.5-2.9,3.2-2.9s2.7,1.1,3,3l3.2-.2v14.7Z" transform="translate(-35.6 -22)" style="fill:#c30d23"/><path d="M207.1,245.9c-1.3,1.4-3,1.5-4.7,2.1s-3.3,1.8-5,2.8l-2.7-2.5c1.4-3.2,2.7-6.3,4.2-9.4.4-.9,1.4-1.4,2.1-2.1s.3-.4.4-.7.8-.5.9-.8a1.3,1.3,0,0,0-.3-1,10.9,10.9,0,0,0-1.8.1v.5l1.4,1.3-1.2.6c-.3,0-.8-.1-.9-.4s.6-3.5,1.9-3.6,3.2,0,4.9,0a1.8,1.8,0,0,1,.9.4v.9a13.3,13.3,0,0,0-2.1.3,3.6,3.6,0,0,0-1,1.1l1.2.4c.9,0,1.4.4,1.2,1.4a4.1,4.1,0,0,0,.1,1.1c.6,2,.1,2.7-1.9,2.5a6.3,6.3,0,0,0-4.7,1.6c3-1.4,4.8-1.6,7.2-.8Z" transform="translate(-35.6 -22)" style="fill:#f8b62d"/><path d="M133.6,216.2l8.9,3.9-1.9,8.8h-7Z" transform="translate(-35.6 -22)" style="fill:#f8b62d"/><path d="M207.1,216.5a20.2,20.2,0,0,0-2.7-2.4,37.1,37.1,0,0,0-5.3-2.5l7.3-5.2.7,2.3Z" transform="translate(-35.6 -22)" style="fill:#ea5514"/><path d="M207.1,241.7c-2.4-.8-4.2-.6-7.2.8a6.3,6.3,0,0,1,4.7-1.6c2,.2,2.5-.5,1.9-2.5a4.1,4.1,0,0,1-.1-1.1c.2-1-.3-1.4-1.2-1.4l-1.2-.4a3.6,3.6,0,0,1,1-1.1,13.3,13.3,0,0,1,2.1-.3Z" transform="translate(-35.6 -22)" style="fill:#fff100"/><path d="M170.2,258.5a27.9,27.9,0,0,1-27.6-27.7c0-15.4,12.6-28,27.8-27.8a27.8,27.8,0,0,1,27.7,27.7C198.2,245.9,185.5,258.5,170.2,258.5ZM192.5,231a22.1,22.1,0,1,0-22.3,21.8A21.8,21.8,0,0,0,192.5,231Z" transform="translate(-35.6 -22)" style="fill:#fff"/><path d="M175.8,261.5l.8,1.5c-2.6.7-4.8,1.8-6.1,4.3-1.3-2.5-3.3-3.5-5.8-4.1a4.2,4.2,0,0,1,3.4-2.7c2.4-.3,4.8-.6,7.1.6Z" transform="translate(-35.6 -22)" style="fill:#fff"/><path d="M175.8,261.5l-.6-.4-.7-.8,5.9-1.8c.3-.1.7-.1.9-.3s1.9-.6,2.4,1.3a8.4,8.4,0,0,0-5.4,3.2c-.1.3-1,.3-1.3.1A5,5,0,0,1,175.8,261.5Z" transform="translate(-35.6 -22)" style="fill:#fff"/><path d="M193.3,256.3c-1.9.3-3.3.8-4.3,2.6s-2.5.7-3.9,1c.3-2.2,2.3-3.9,4.8-4.4S192.4,255,193.3,256.3Z" transform="translate(-35.6 -22)" style="fill:#fff"/><path d="M185.8,260.9l-6.5,2.2c.6-2,3.2-3.1,6.4-2.7Z" transform="translate(-35.6 -22)" style="fill:#fff"/><path d="M185.2,261.8a2.7,2.7,0,0,1-4.3,1.4Z" transform="translate(-35.6 -22)" style="fill:#fff"/><path d="M139,235l-1.1-2.6c1.4-1.2,2.3-.3,2.6.3s-.5,1.5-.7,2.3Z" transform="translate(-35.6 -22)" style="fill:#fff"/><path d="M189.1,253.5l2.3-2.2h.5c-.1.7.1,1.7-.3,2a5.7,5.7,0,0,1-2.3.8Z" transform="translate(-35.6 -22)" style="fill:#fff"/><path d="M154.3,256.2c2.9.5,3.4,1.2,2.4,2.9Z" transform="translate(-35.6 -22)" style="fill:#fff"/><path d="M201.5,236.2l-1.4-1.3v-.5a10.9,10.9,0,0,1,1.8-.1,1.3,1.3,0,0,1,.3,1c-.1.3-.6.6-.9.8Z" transform="translate(-35.6 -22)" style="fill:#e83828"/><path d="M185.3,265.5l-2.5-.3v-.6a4.3,4.3,0,0,1,1.6-.5C184.6,264.1,184.8,264.8,185.3,265.5Z" transform="translate(-35.6 -22)" style="fill:#fff"/><path d="M192.5,231a22.1,22.1,0,0,1-44.1-.2,22.1,22.1,0,1,1,44.1.2Z" transform="translate(-35.6 -22)" style="fill:#ea554d"/><path d="M300.7,234v.7a1.8,1.8,0,0,0-.9-.4c-1.6,0-3.3-.1-4.9,0s-2.5,2.5-1.9,3.6a1.3,1.3,0,0,0,1,.4,3.9,3.9,0,0,0,1.1-.6h0c-.2.3-.2.5-.4.7s-1.8,1.2-2.2,2.1c-1.5,3-2.8,6.2-4.2,9.4l2.8,2.5c1.7-1,3.2-2.3,5-2.8s3.4-.7,4.6-2.1v6.9l-3.1.2c-.4-1.9-1.2-3-3.1-3s-2.4.6-3.1,2.9c-2.1-.1-3,.3-3.5,1.5a2.9,2.9,0,0,0,1.2,3.5c.3.3.3.9.4,1.2a6.1,6.1,0,0,1,2.3,1.1,8.3,8.3,0,0,1,1.2,2.1l1.3-1.1,1.7,1.5-4,2.8c-1,.7-1.4.2-1.5-.8a2.7,2.7,0,0,0,1.6-3.1c-.5-1.7-1.9-1.8-3.4-1.7-.2-1.6-1-2.7-2.7-2.7s-2.5,1.1-2.8,2.7c-1.5-.1-2.8,0-3.3,1.7a2.4,2.4,0,0,0,1.4,2.9v2.9H249.8l-.5-1.1c2-1.2,2.6-2.7,1.2-3.7a57.3,57.3,0,0,0-6.2-3.8,1.4,1.4,0,0,0-1.4.1c-1.4,1.1-3.2,1.2-4.6,1.9a8.4,8.4,0,0,0-2.3,2.3c-.5.4-.7,1.1-1.3,2.1l-2.1-3c-.1-.3-.3-.6-.5-.6-2-.2-2.1-2.1-2.9-3.3a1.1,1.1,0,0,1,0-1.1c.3-.6,4.1-1.2,4.6-.7l2.5,2.2,1.9-2.2c0-.1-.2-.2-.2-.3l-.3-.6h2.5v-.4l-2.3-1.2.2-.5a28,28,0,0,1,3,1.5c2,1.6,3.2,1.6,5.2-.1l-6.4-6.8-2.1-1.8.8-.3c-2.1-2.4-4.1-.4-6.1-.4l4-1.7a27,27,0,0,0-3.7-2.3,25.9,25.9,0,0,0-4.2-.9l3.8-5-5.3.7v-7.5h7l1.9-8.8-8.9-3.9v-7.5l.8-2.5,11.2,7.9,6.4-6.9-8.2-11.8.2-.2a19.8,19.8,0,0,1,9-1.1c.3,0,.7.5.9.9,1,1.9,1.9,3.8,2.8,5.8s1,2,1.3,2.8l9.1-2.5-.5-7h8c-.1,2-.3,4-.4,5.9s.3,1.3.6,1.4l8.4,2.3c1.3-2.8,2.7-5.7,4-8.6.2-.4.6-1,.9-1,3.4-.2,6.7-.1,9.4,1.5-3.1,3.9-5.7,8-8.6,12.1,7.8,6.6,11.3,14.9,11.1,24.8Zm-31.9,28.6c-2.2-1.2-4.7-.9-7-.6a4.3,4.3,0,0,0-3.5,2.7c2.5.6,4.6,1.6,5.8,4.1,1.4-2.6,3.5-3.6,6.1-4.3l-.8-1.5a7.7,7.7,0,0,0,1.2,1.3c.4.2,1.2.2,1.4-.1a8.4,8.4,0,0,1,5.4-3.2c-.5-1.9-.7-2-2.4-1.3l-.9.3-6,1.8Zm-5-2.6c15.3,0,28-12.6,27.9-27.8A27.8,27.8,0,0,0,264,204.5c-15.2-.2-27.8,12.4-27.8,27.8A27.9,27.9,0,0,0,263.8,260Zm23.1-2.2c-.9-1.3-2.2-1-3.4-.8s-4.5,2.2-4.8,4.4c1.5-.4,3.5-.2,3.9-1A5.3,5.3,0,0,1,286.9,257.8Zm-7.4,4.6-.2-.5c-3.1-.4-5.8.7-6.3,2.7Zm-.6.9-4.4,1.4A2.8,2.8,0,0,0,278.9,263.3Zm-46.3-26.8h.8c.3-.8.9-1.7.7-2.3a1.5,1.5,0,0,0-2.5-.4ZM282.7,255l.2.7a5.2,5.2,0,0,0,2.3-.8c.4-.3.3-1.3.4-2h-.5ZM248,257.7l2.3,2.9C251.4,258.9,250.9,258.2,248,257.7Zm30.9,9.3c-.4-.7-.6-1.4-.9-1.4a4.9,4.9,0,0,0-1.6.5v.6Z" transform="translate(-35.6 -22)" style="fill:#00a0e9"/><path d="M300.7,234h-7.1c.2-9.9-3.3-18.2-11.1-24.8,2.9-4.1,5.5-8.2,8.6-12.1-2.7-1.6-6-1.7-9.4-1.5-.3,0-.7.6-.9,1-1.3,2.9-2.7,5.8-4,8.6l-8.4-2.3c-.3-.1-.6-.9-.6-1.4s.3-3.9.4-5.9h-8l.5,7-9.1,2.5c-.3-.8-.8-1.8-1.3-2.8s-1.8-3.9-2.8-5.8c-.2-.4-.6-.9-.9-.9a19.8,19.8,0,0,0-9,1.1l-.2.2,8.2,11.8-6.4,6.9L228,207.7l-.8,2.5V195.1h73.5v15.1l-.7-2.3-7.2,5.2a51.2,51.2,0,0,1,5.3,2.5,19.5,19.5,0,0,1,2.6,2.4Z" transform="translate(-35.6 -22)" style="fill:#f8b62d"/><path d="M227.2,237.9l5.3-.7-3.8,5a25.9,25.9,0,0,1,4.2.9,27,27,0,0,1,3.7,2.3l-4,1.7c2,0,4-2,6.1.4l-.8.3,2.1,1.8,6.4,6.8c-2,1.7-3.2,1.7-5.2.1a28,28,0,0,0-3-1.5l-.2.5,2.3,1.2v.4h-2.5l.3.6c0,.1.2.2.2.3l-1.9,2.2-2.5-2.2c-.5-.5-4.3.1-4.6.7a1.1,1.1,0,0,0,0,1.1c.8,1.2.9,3.1,2.9,3.3.2,0,.4.3.5.6l2.1,3c.6-1,.8-1.7,1.3-2.1a8.4,8.4,0,0,1,2.3-2.3c1.4-.7,3.2-.8,4.6-1.9a1.4,1.4,0,0,1,1.4-.1,57.3,57.3,0,0,1,6.2,3.8c1.4,1,.8,2.5-1.2,3.7l.5,1.1H227.2Z" transform="translate(-35.6 -22)" style="fill:#9cd7f1"/><path d="M281.4,268.9V266a2.4,2.4,0,0,1-1.4-2.9c.5-1.7,1.8-1.8,3.3-1.7.3-1.6,1.1-2.7,2.8-2.7s2.5,1.1,2.7,2.7c1.5-.1,2.9,0,3.4,1.7a2.7,2.7,0,0,1-1.6,3.1c.1,1,.5,1.5,1.5.8l4-2.8-1.7-1.5-1.3,1.1a8.3,8.3,0,0,0-1.2-2.1,6.1,6.1,0,0,0-2.3-1.1c-.1-.3-.1-.9-.4-1.2a2.9,2.9,0,0,1-1.2-3.5c.5-1.2,1.4-1.6,3.5-1.5.7-2.3,1.4-2.9,3.1-2.9s2.7,1.1,3.1,3l3.1-.2v14.6Z" transform="translate(-35.6 -22)" style="fill:#c30d23"/><path d="M300.7,247.4c-1.2,1.4-3,1.5-4.6,2.1s-3.3,1.8-5,2.8l-2.8-2.5c1.4-3.2,2.7-6.4,4.2-9.4.4-.9,1.5-1.4,2.2-2.1s.2-.4.4-.7.7-.5.8-.8-.1-1-.3-1a9.1,9.1,0,0,0-1.7.1v.5l1.3,1.3a3.9,3.9,0,0,1-1.1.6,1.3,1.3,0,0,1-1-.4c-.6-1.1.7-3.5,1.9-3.6s3.3,0,4.9,0a1.8,1.8,0,0,1,.9.4v.9a15.2,15.2,0,0,0-2.1.3,3.6,3.6,0,0,0-1,1.1l1.2.4c1,0,1.4.3,1.3,1.4a2.1,2.1,0,0,0,.1,1.1c.6,2,.1,2.7-2,2.5a5.9,5.9,0,0,0-4.6,1.6c2.9-1.4,4.7-1.7,7.1-.9Z" transform="translate(-35.6 -22)" style="fill:#f8b62d"/><path d="M227.2,217.7l8.9,3.9-1.9,8.8h-7Z" transform="translate(-35.6 -22)" style="fill:#f8b62d"/><path d="M300.7,218a19.5,19.5,0,0,0-2.6-2.4,51.2,51.2,0,0,0-5.3-2.5l7.2-5.2.7,2.3Z" transform="translate(-35.6 -22)" style="fill:#ea5514"/><path d="M300.7,243.1c-2.4-.8-4.2-.5-7.1.9a5.9,5.9,0,0,1,4.6-1.6c2.1.2,2.6-.5,2-2.5a2.1,2.1,0,0,1-.1-1.1c.1-1.1-.3-1.4-1.3-1.4l-1.2-.4a3.6,3.6,0,0,1,1-1.1,15.2,15.2,0,0,1,2.1-.3Z" transform="translate(-35.6 -22)" style="fill:#fff100"/><path d="M263.8,260a27.9,27.9,0,0,1-27.6-27.7c0-15.4,12.6-28,27.8-27.8a27.8,27.8,0,0,1,27.7,27.7C291.8,247.4,279.1,260,263.8,260Zm22.3-27.5a22,22,0,0,0-22-22.2,22,22,0,0,0-.2,44A21.8,21.8,0,0,0,286.1,232.5Z" transform="translate(-35.6 -22)" style="fill:#fff"/><path d="M269.4,263l.8,1.5c-2.6.7-4.7,1.7-6.1,4.3-1.2-2.5-3.3-3.5-5.8-4.1a4.3,4.3,0,0,1,3.5-2.7c2.3-.3,4.8-.6,7,.6Z" transform="translate(-35.6 -22)" style="fill:#fff"/><path d="M269.4,263l-.6-.4-.7-.8,6-1.8.9-.3c1.7-.7,1.9-.6,2.4,1.3a8.4,8.4,0,0,0-5.4,3.2c-.2.3-1,.3-1.4.1A7.7,7.7,0,0,1,269.4,263Z" transform="translate(-35.6 -22)" style="fill:#fff"/><path d="M286.9,257.8a5.3,5.3,0,0,0-4.3,2.6c-.4.8-2.4.6-3.9,1,.3-2.2,2.3-3.9,4.8-4.4S286,256.5,286.9,257.8Z" transform="translate(-35.6 -22)" style="fill:#fff"/><path d="M279.5,262.4l-6.5,2.2c.5-2,3.2-3.1,6.3-2.7Z" transform="translate(-35.6 -22)" style="fill:#fff"/><path d="M278.9,263.3a2.8,2.8,0,0,1-4.4,1.4Z" transform="translate(-35.6 -22)" style="fill:#fff"/><path d="M232.6,236.5l-1-2.7a1.5,1.5,0,0,1,2.5.4c.2.6-.4,1.5-.7,2.3Z" transform="translate(-35.6 -22)" style="fill:#fff"/><path d="M282.7,255l2.4-2.2h.5c-.1.7,0,1.7-.4,2a5.2,5.2,0,0,1-2.3.8Z" transform="translate(-35.6 -22)" style="fill:#fff"/><path d="M248,257.7c2.9.5,3.4,1.2,2.3,2.9Z" transform="translate(-35.6 -22)" style="fill:#fff"/><path d="M295.1,237.7l-1.3-1.3v-.5a9.1,9.1,0,0,1,1.7-.1c.2,0,.4.7.3,1s-.5.5-.8.8Z" transform="translate(-35.6 -22)" style="fill:#e83828"/><path d="M278.9,267l-2.4-.3v-.6a4.9,4.9,0,0,1,1.6-.5C278.3,265.6,278.5,266.3,278.9,267Z" transform="translate(-35.6 -22)" style="fill:#fff"/><path d="M286.1,232.5a21.8,21.8,0,0,1-22.2,21.8,22,22,0,1,1,22.2-21.8Z" transform="translate(-35.6 -22)" style="fill:#ea554d"/><path d="M390.3,234.4v.7l-.9-.4h-4.9c-1.3.1-2.5,2.6-1.9,3.7a1.7,1.7,0,0,0,1,.3,6,6,0,0,0,1.1-.6h0c-.2.2-.2.5-.4.7s-1.8,1.2-2.2,2c-1.5,3.1-2.8,6.3-4.2,9.4l2.7,2.5c1.8-1,3.3-2.3,5.1-2.8s3.4-.7,4.6-2.1v6.9l-3.1.3c-.4-2-1.2-3-3.1-3s-2.4.6-3.2,2.8c-2-.1-2.9.3-3.4,1.5a3,3,0,0,0,1.2,3.6c.3.2.3.8.4,1.1a9,9,0,0,1,2.2,1.1,6.2,6.2,0,0,1,1.3,2.1l1.3-1.1,1.7,1.5-4,2.8c-1,.7-1.4.3-1.5-.8a2.5,2.5,0,0,0,1.5-3.1c-.4-1.7-1.8-1.8-3.3-1.6-.3-1.6-1-2.7-2.7-2.7s-2.5,1-2.8,2.7c-1.5-.2-2.8-.1-3.3,1.6a2.7,2.7,0,0,0,1.3,3l.2,2.9H339.3l-.4-1.2c2-1.1,2.5-2.7,1.2-3.7s-4.1-2.6-6.2-3.8a1.7,1.7,0,0,0-1.4.1c-1.4,1.1-3.2,1.2-4.7,2a8,8,0,0,0-2.3,2.2,18.1,18.1,0,0,0-1.2,2.2c-.8-1.3-1.5-2.2-2.1-3.1s-.3-.6-.5-.6c-2-.2-2.1-2.1-3-3.3a1.7,1.7,0,0,1,0-1c.4-.7,4.2-1.3,4.7-.8a26.1,26.1,0,0,1,2.4,2.2l2-2.2-.2-.3a3.3,3.3,0,0,1-.3-.6h2.5v-.3l-2.3-1.3.2-.5a13.5,13.5,0,0,1,2.9,1.6c2.1,1.5,3.3,1.5,5.3-.2l-6.4-6.8-2.1-1.8.8-.2c-2.1-2.5-4.1-.4-6.2-.4l4.1-1.7a20.8,20.8,0,0,0-3.7-2.4,18.4,18.4,0,0,0-4.2-.8l3.7-5-5.2.7v-7.6h7l1.9-8.8-8.9-3.9v-7.5l.7-2.5,11.3,7.9,6.4-6.9-8.3-11.8.3-.2c2.9-1.2,6-1.2,9-1.1.3,0,.7.6.9,1,1,1.9,1.9,3.8,2.8,5.7l1.3,2.8,9.1-2.5-.5-7h8c-.1,2.1-.3,4-.4,5.9s.3,1.3.6,1.4l8.4,2.3,4-8.5c.2-.5.6-1.1.9-1.1,3.4-.1,6.7,0,9.4,1.5-3.1,3.9-5.7,8-8.6,12.1,7.8,6.6,11.3,14.9,11.1,24.8Zm-31.9,28.7c-2.2-1.3-4.7-1-7-.7a4.3,4.3,0,0,0-3.5,2.7c2.5.6,4.5,1.6,5.8,4.1,1.3-2.5,3.5-3.6,6.1-4.3l-.8-1.5a5,5,0,0,0,1.2,1.3c.4.2,1.2.2,1.3,0,1.4-2,3.4-2.7,5.5-3.2-.5-2-.7-2.1-2.4-1.3l-.9.3-6,1.7Zm-5-2.7c15.3,0,28-12.6,27.9-27.8a27.8,27.8,0,0,0-27.7-27.7c-15.2-.2-27.8,12.5-27.8,27.8A27.9,27.9,0,0,0,353.4,260.4Zm23.1-2.1c-.9-1.3-2.2-1.1-3.4-.8a5.6,5.6,0,0,0-4.8,4.3c1.4-.3,3.5-.2,3.9-1A5,5,0,0,1,376.5,258.3Zm-7.4,4.5-.2-.5c-3.1-.4-5.8.7-6.4,2.7Zm-.7.9-4.3,1.4C365.8,266.3,368.1,265.6,368.4,263.7Zm-46.2-26.8h.8c.3-.8.9-1.7.7-2.2s-1.2-1.6-2.5-.4Zm50.1,18.6.2.7c.8-.3,1.8-.3,2.3-.8s.2-1.4.3-2h-.4Zm-34.7,2.6,2.3,2.9C341,259.3,340.4,258.6,337.6,258.1Zm30.9,9.3c-.4-.7-.6-1.4-.9-1.4a4.9,4.9,0,0,0-1.6.5v.6Z" transform="translate(-35.6 -22)" style="fill:#00a0e9"/><path d="M390.3,234.4h-7.1c.2-9.9-3.3-18.2-11.1-24.8,2.9-4.1,5.5-8.2,8.6-12.1-2.7-1.5-6-1.6-9.4-1.5-.3,0-.7.6-.9,1.1l-4,8.5-8.4-2.3c-.3-.1-.6-.9-.6-1.4s.3-3.8.4-5.9h-8l.5,7-9.1,2.5-1.3-2.8c-.9-1.9-1.8-3.8-2.8-5.7-.2-.4-.6-1-.9-1-3-.1-6.1-.1-9,1.1l-.3.2,8.3,11.8-6.4,6.9-11.3-7.9-.7,2.5v-15h73.5v15l-.7-2.2-7.2,5.1,5.3,2.5a19.5,19.5,0,0,1,2.6,2.4Z" transform="translate(-35.6 -22)" style="fill:#f8b62d"/><path d="M316.8,238.4l5.2-.7-3.7,5a18.4,18.4,0,0,1,4.2.8,20.8,20.8,0,0,1,3.7,2.4l-4.1,1.7c2.1,0,4.1-2.1,6.2.4l-.8.2,2.1,1.8,6.4,6.8c-2,1.7-3.2,1.7-5.3.2a13.5,13.5,0,0,0-2.9-1.6l-.2.5,2.3,1.3v.3h-2.5a3.3,3.3,0,0,0,.3.6l.2.3-2,2.2a26.1,26.1,0,0,0-2.4-2.2c-.5-.5-4.3.1-4.7.8a1.7,1.7,0,0,0,0,1c.9,1.2,1,3.1,3,3.3.2,0,.4.4.5.6s1.3,1.8,2.1,3.1a18.1,18.1,0,0,1,1.2-2.2,8,8,0,0,1,2.3-2.2c1.5-.8,3.3-.9,4.7-2a1.7,1.7,0,0,1,1.4-.1c2.1,1.2,4.2,2.4,6.2,3.8s.8,2.6-1.2,3.7l.4,1.2H316.8Z" transform="translate(-35.6 -22)" style="fill:#9cd7f1"/><path d="M371,269.4l-.2-2.9a2.7,2.7,0,0,1-1.3-3c.5-1.7,1.8-1.8,3.3-1.6.3-1.7,1.1-2.7,2.8-2.7s2.4,1.1,2.7,2.7c1.5-.2,2.9-.1,3.3,1.6a2.5,2.5,0,0,1-1.5,3.1c.1,1.1.5,1.5,1.5.8l4-2.8-1.7-1.5-1.3,1.1a6.2,6.2,0,0,0-1.3-2.1,9,9,0,0,0-2.2-1.1c-.1-.3-.1-.9-.4-1.1a3,3,0,0,1-1.2-3.6c.5-1.2,1.4-1.6,3.4-1.5.8-2.2,1.5-2.8,3.2-2.8s2.7,1,3.1,3l3.1-.3v14.7Z" transform="translate(-35.6 -22)" style="fill:#c30d23"/><path d="M390.3,247.8c-1.2,1.4-3,1.6-4.6,2.1s-3.3,1.8-5.1,2.8l-2.7-2.5c1.4-3.1,2.7-6.3,4.2-9.4.4-.8,1.5-1.4,2.2-2s.2-.5.4-.7.7-.5.8-.9-.1-1-.3-1a5.5,5.5,0,0,0-1.8.2v.4l1.3,1.3a6,6,0,0,1-1.1.6,1.7,1.7,0,0,1-1-.3c-.6-1.1.6-3.6,1.9-3.7h4.9l.9.4v1a7.5,7.5,0,0,0-2.1.2,3.6,3.6,0,0,0-1,1.1,2.8,2.8,0,0,0,1.2.4c1,0,1.4.4,1.3,1.4a2.5,2.5,0,0,0,.1,1.2c.6,1.9.1,2.6-2,2.4a6.3,6.3,0,0,0-4.6,1.6c2.9-1.4,4.7-1.6,7.1-.8Z" transform="translate(-35.6 -22)" style="fill:#f8b62d"/><path d="M316.8,218.1l8.9,3.9-1.9,8.8h-7Z" transform="translate(-35.6 -22)" style="fill:#f8b62d"/><path d="M390.3,218.4a19.5,19.5,0,0,0-2.6-2.4l-5.3-2.5,7.2-5.1.7,2.2Z" transform="translate(-35.6 -22)" style="fill:#ea5514"/><path d="M390.3,243.6c-2.4-.8-4.2-.6-7.1.8a6.3,6.3,0,0,1,4.6-1.6c2.1.2,2.6-.5,2-2.4a2.5,2.5,0,0,1-.1-1.2c.1-1-.3-1.4-1.3-1.4a2.8,2.8,0,0,1-1.2-.4,3.6,3.6,0,0,1,1-1.1,7.5,7.5,0,0,1,2.1-.2Z" transform="translate(-35.6 -22)" style="fill:#fff100"/><path d="M353.4,260.4a27.9,27.9,0,0,1-27.6-27.7c0-15.3,12.6-28,27.8-27.8a27.8,27.8,0,0,1,27.7,27.7C381.4,247.8,368.7,260.4,353.4,260.4Zm22.3-27.5a22.1,22.1,0,1,0-22.3,21.8A22,22,0,0,0,375.7,232.9Z" transform="translate(-35.6 -22)" style="fill:#fff"/><path d="M359,263.4l.8,1.5c-2.6.7-4.8,1.8-6.1,4.3-1.3-2.5-3.3-3.5-5.8-4.1a4.3,4.3,0,0,1,3.5-2.7c2.3-.3,4.8-.6,7,.7Z" transform="translate(-35.6 -22)" style="fill:#fff"/><path d="M359,263.4l-.6-.3-.7-.9,6-1.7.9-.3c1.7-.8,1.9-.7,2.4,1.3-2.1.5-4.1,1.2-5.5,3.2-.1.2-.9.2-1.3,0A5,5,0,0,1,359,263.4Z" transform="translate(-35.6 -22)" style="fill:#fff"/><path d="M376.5,258.3a5,5,0,0,0-4.3,2.5c-.4.8-2.5.7-3.9,1a5.6,5.6,0,0,1,4.8-4.3C374.3,257.2,375.6,257,376.5,258.3Z" transform="translate(-35.6 -22)" style="fill:#fff"/><path d="M369.1,262.8l-6.6,2.2c.6-2,3.3-3.1,6.4-2.7Z" transform="translate(-35.6 -22)" style="fill:#fff"/><path d="M368.4,263.7c-.3,1.9-2.6,2.6-4.3,1.4Z" transform="translate(-35.6 -22)" style="fill:#fff"/><path d="M322.2,236.9l-1-2.6c1.3-1.2,2.2-.3,2.5.4s-.4,1.4-.7,2.2Z" transform="translate(-35.6 -22)" style="fill:#fff"/><path d="M372.3,255.5l2.4-2.2h.4c-.1.6.1,1.6-.3,2s-1.5.5-2.3.8Z" transform="translate(-35.6 -22)" style="fill:#fff"/><path d="M337.6,258.1c2.8.5,3.4,1.2,2.3,2.9Z" transform="translate(-35.6 -22)" style="fill:#fff"/><path d="M384.7,238.1l-1.3-1.3v-.4a5.5,5.5,0,0,1,1.8-.2c.2,0,.4.7.3,1s-.6.6-.8.9Z" transform="translate(-35.6 -22)" style="fill:#e83828"/><path d="M368.5,267.4l-2.4-.3v-.6a4.9,4.9,0,0,1,1.6-.5C367.9,266,368.1,266.7,368.5,267.4Z" transform="translate(-35.6 -22)" style="fill:#fff"/><path d="M375.7,232.9a21.8,21.8,0,0,1-22.3,21.8,22,22,0,1,1,22.3-21.8Z" transform="translate(-35.6 -22)" style="fill:#ea554d"/><text transform="translate(11.5 623)" style="font-size:12px;fill:#231815;font-family:AdobeSongStd-Light-GBpc-EUC-H, Adobe Song Std">Drum boy </text></g><g id="图层_2" data-name="图层 2"><g id="fan"><path d="M340.8,530.3c0,.2.1.3.2,0l9.7-32.3c.1-.1,0-.2-.1-.2l-9.6-1.7h-.2Z" transform="translate(-35.6 -22)" style="fill:#e60012"/><path d="M338.9,530.1c.1.4.3.4.3.3V496.2h-.2l-9.6,1.7c-.1,0-.2.1-.1.2Z" transform="translate(-35.6 -22)" style="fill:#e60012"/><path d="M346.6,541.4a2.7,2.7,0,0,0-.7-2l-5-5.2a1.2,1.2,0,0,0-1.7,0l-5,5.2a2.7,2.7,0,0,0-.6,2c0,1.9.4,4.1,6.5,4.1S346.6,543.3,346.6,541.4Zm-6.5,2.5c-4.7,0-5-1.7-5-3.1v-.5h.1c.2,1.2,1.1,2.1,4.9,2.1s4.6-.8,4.8-1.9.1-.1.1-.1v.4C345,542.2,345.1,543.9,340.1,543.9Z" transform="translate(-35.6 -22)" style="fill:#e60012"/><path d="M334.6,536.3c.1-.1.1-.2,0-.2l-25.3-20.5c-.1-.1-.2-.1-.2,0l-2.8,8.9c0,.1,0,.2.1.2l27.6,12h.3Z" transform="translate(-35.6 -22)" style="fill:#e60012"/><path d="M336.3,534.5c.1,0,.1-.2.1-.2l-20.5-28.1h-.2l-5.7,7.6c0,.1,0,.2.1.2l25.7,20.9h.3Z" transform="translate(-35.6 -22)" style="fill:#e60012"/><path d="M337.9,533a.4.4,0,0,0,.1-.3l-10.4-34.1c-.1-.1-.2-.2-.2-.1l-10.2,6.3a.4.4,0,0,0-.1.3L337.6,533C337.6,533.1,337.8,533,337.9,533Z" transform="translate(-35.6 -22)" style="fill:#e60012"/><path d="M342.1,532.9h.2l20.3-27.9c.1-.1.1-.2,0-.2l-10-6.2c-.1-.1-.2,0-.3.1l-10.3,34C342,532.7,342,532.9,342.1,532.9Z" transform="translate(-35.6 -22)" style="fill:#e60012"/><path d="M343.9,534.6c0,.1.2.1.2,0l25.6-20.7a.4.4,0,0,0,.1-.3l-5.7-7.5c-.1-.1-.2-.1-.2,0L343.5,534a.2.2,0,0,0,0,.3Z" transform="translate(-35.6 -22)" style="fill:#e60012"/><path d="M345.7,536.6c.1,0,.3.1.3,0l27.5-11.9c.1,0,.1-.1.1-.2l-2.8-9h-.3l-25.2,20.5c-.1,0-.1.1,0,.2Z" transform="translate(-35.6 -22)" style="fill:#e60012"/><path d="M347.6,538.5l-.6-.8c-.2-.2-.2-.3-.2-.3l.6-.3L372.7,527c.3-.2.6-.3.6-.2s.1.3.1.6l.2,8.3c0,.3-.1.7-.8.9l-24.4,2.1C348.1,538.7,347.9,538.8,347.6,538.5Z" transform="translate(-35.6 -22)" style="fill:#e60012"/><path d="M332.1,538.5l.6-.8.2-.3-.6-.3L307,527c-.3-.2-.6-.3-.7-.2a2.2,2.2,0,0,0-.1.6v8.3c0,.3,0,.8.7.9l24.5,2.1C331.6,538.7,331.8,538.8,332.1,538.5Z" transform="translate(-35.6 -22)" style="fill:#e60012"/></g><circle cx="303.6" cy="501.8" r="42.9" style="fill:none;stroke:#e4007f;stroke-miterlimit:10"/><g id="fan-2" data-name="fan"><path d="M58.6,391.5c0,.1,0,.2.1,0l4.2-13.9a.1.1,0,0,0-.1-.1l-4.1-.7h-.1Z" transform="translate(-35.6 -22)" style="fill:#e60012"/><path d="M57.8,391.5a.1.1,0,0,0,.1.1V376.9h-.1l-4.2.7h0Z" transform="translate(-35.6 -22)" style="fill:#e60012"/><path d="M61.1,396.3a1.1,1.1,0,0,0-.3-.8l-2.2-2.3a.5.5,0,0,0-.7,0l-2.2,2.3a1.1,1.1,0,0,0-.2.8c0,.8.1,1.8,2.8,1.8S61.1,397.1,61.1,396.3Zm-2.8,1.1c-2,0-2.2-.7-2.2-1.3v-.3h.1c.1.5.5.9,2.1.9s2-.4,2.1-.9h0v.2C60.4,396.7,60.4,397.4,58.3,397.4Z" transform="translate(-35.6 -22)" style="fill:#e60012"/><path d="M55.9,394.1c.1,0,0,0,0-.1L45,385.2h-.1L43.7,389c0,.1,0,.1.1.1l11.9,5.2h.1Z" transform="translate(-35.6 -22)" style="fill:#e60012"/><path d="M56.7,393.4v-.2l-8.8-12h-.1l-2.5,3.2h0l11.1,9h.3Z" transform="translate(-35.6 -22)" style="fill:#e60012"/><path d="M57.3,392.7h.1l-4.5-14.7h-.1l-4.4,2.8h0l8.8,12C57.2,392.8,57.3,392.7,57.3,392.7Z" transform="translate(-35.6 -22)" style="fill:#e60012"/><path d="M59.1,392.7h.1l8.8-12h0l-4.4-2.7h0l-4.5,14.6Z" transform="translate(-35.6 -22)" style="fill:#e60012"/><path d="M59.9,393.4H60l11.1-8.9h0l-2.5-3.3h-.1l-8.8,12v.2Z" transform="translate(-35.6 -22)" style="fill:#e60012"/><path d="M60.7,394.2a.1.1,0,0,0,.1.1l11.9-5.2h0l-1.2-3.8h-.1l-10.9,8.8h0Z" transform="translate(-35.6 -22)" style="fill:#e60012"/><path d="M61.5,395.1c0-.1-.2-.3-.3-.4h.2l10.9-4.4h.3a.5.5,0,0,0,.1.3v3.6c0,.1,0,.3-.3.3l-10.5,1Z" transform="translate(-35.6 -22)" style="fill:#e60012"/><path d="M54.8,395.1c.1-.1.3-.3.3-.4h-.2L44,390.1h-.3v3.9c0,.1,0,.3.4.3l10.5,1Z" transform="translate(-35.6 -22)" style="fill:#e60012"/></g><circle cx="22.3" cy="366.7" r="18.5" style="fill:none;stroke:#e4007f;stroke-miterlimit:10"/><g id="wine"><rect x="222" y="529.1" width="11.4" height="2.26" rx="1.1" style="fill:#74aaa0"/><path d="M254.8,552.4a6.9,6.9,0,0,1,.2-1.3.3.3,0,0,0,0-.4,13.6,13.6,0,0,1-6-11.5v-3.8a3.8,3.8,0,0,1,4-3.7h3.1a.7.7,0,0,0,.8-.8l.6-9.2a10.2,10.2,0,0,0-1.7-5.6l-4.7-6.1a5.9,5.9,0,0,1-.6-5.3l2.3-5.2a32.7,32.7,0,0,0,1.8-4c0-2.4-5.6-3.4-12.5-3.4s-12.5,1-12.5,3.4a32.7,32.7,0,0,0,1.8,4l2.3,5.2a5.9,5.9,0,0,1-.6,5.3l-4.7,6.1a10.2,10.2,0,0,0-1.7,5.6l1.8,29.3a3.4,3.4,0,0,0,3.3,3.1h20.6a3.8,3.8,0,0,0,2.3-1A1.7,1.7,0,0,0,254.8,552.4Z" transform="translate(-35.6 -22)" style="fill:#74aaa0"/><path d="M253.9,535.5c-1.1,0-1.1.8-1.1.8v3.2a10.4,10.4,0,0,0,4.9,8.8,3.6,3.6,0,0,0,1.1.4h8.7a1.3,1.3,0,0,0,1-.4,10.2,10.2,0,0,0,5-8.8v-3.3a.7.7,0,0,0-.7-.7Z" transform="translate(-35.6 -22)" style="fill:#74aaa0"/></g><circle cx="208.5" cy="504.8" r="41.8" style="fill:none;stroke:#7bb0a5;stroke-miterlimit:10"/><g id="wine-2" data-name="wine"><rect x="166.4" y="373.4" width="4.9" height="0.97" rx="0.5" style="fill:#74aaa0"/><path d="M200.8,396c0-.1.1-.4.1-.6s.1-.1,0-.1a6,6,0,0,1-2.5-4.9v-1.7a1.6,1.6,0,0,1,1.7-1.5h1.3c.4,0,.3-.4.3-.4l.3-3.9a5.1,5.1,0,0,0-.7-2.4l-2-2.6a2.4,2.4,0,0,1-.3-2.3l1-2.2a8.7,8.7,0,0,0,.7-1.7c0-1-2.3-1.4-5.3-1.4s-5.3.4-5.3,1.4a8.7,8.7,0,0,0,.7,1.7l1,2.2a2.4,2.4,0,0,1-.3,2.3l-2,2.6a5.1,5.1,0,0,0-.7,2.4l.8,12.5a1.5,1.5,0,0,0,1.4,1.3h8.8a1.5,1.5,0,0,0,1-.4Z" transform="translate(-35.6 -22)" style="fill:#74aaa0"/><path d="M200.5,388.8c-.5,0-.5.4-.5.4v1.3a4.4,4.4,0,0,0,2.1,3.8h4.6a4.4,4.4,0,0,0,2.1-3.8v-1.4a.3.3,0,0,0-.3-.3Z" transform="translate(-35.6 -22)" style="fill:#74aaa0"/></g><circle cx="160.6" cy="363.1" r="17.9" style="fill:none;stroke:#7bb0a5;stroke-miterlimit:10"/><g id="fish"><path d="M344,591.4c-3.9-4.8-11.4-4.5-17.9.7a.3.3,0,0,1-.4,0c-2.2-2.2-8.7,1.8-10,4-.4.6-.2,1,2.6.9a5.4,5.4,0,0,1,2.4.5c0,.1.1.1,0,.3a30.8,30.8,0,0,0-4.9,11.6c-1.2,5.5.5,14.1,1,18.5,0,.3.2.2.4.1a4.5,4.5,0,0,1,1.6-.3,4.9,4.9,0,0,1,2,.5c.1,0,.2.1.3-.2.9-4.5,3.8-12.7,7.7-15.8,1.3-.9,2.7-1.1,4-1.7s.2,0,.2.1a3.6,3.6,0,0,1,.4,2.2c-.2,2.8.2,3,.8,2.7s4.9-5.3,5-8.1a.5.5,0,0,1,.1-.5C347.9,601.6,348.5,596.9,344,591.4Z" transform="translate(-35.6 -22)" style="fill:#036eb8;stroke:#036eb8;stroke-miterlimit:10"/><path d="M328.4,642.3c.4.7.2,1-.6.7l-8.9-3c-.4-.2-.2-6.5-.8-6.5s-.9,6.1-1.3,6.2l-9,1.8c-.8.2-1-.1-.5-.8l9.1-10.1a2.8,2.8,0,0,1,2.5-1,3.1,3.1,0,0,1,2.3,1.3Z" transform="translate(-35.6 -22)" style="fill:#036eb8;stroke:#036eb8;stroke-miterlimit:10"/><path d="M339.2,648.2c4,4.7,11.4,4.4,17.9-.8.2-.1.4,0,.4.1,2.3,2.1,8.7-1.8,10.1-4.1.3-.6.1-1-2.6-.8a5.4,5.4,0,0,1-2.5-.6.1.1,0,0,1,0-.2,32.3,32.3,0,0,0,4.9-11.6c1.2-5.5-.5-14.2-.9-18.5,0-.4-.3-.2-.4-.2a5.1,5.1,0,0,1-1.7.3,6.5,6.5,0,0,1-1.9-.4c-.1-.1-.3-.1-.4.2-.9,4.4-3.7,12.7-7.7,15.7-1.3,1-2.7,1.2-4,1.8s-.2,0-.2-.1a4,4,0,0,1-.4-2.3c.2-2.7-.2-2.9-.8-2.6s-4.8,5.2-4.9,8.1a.4.4,0,0,1-.2.4C335.4,638,334.7,642.7,339.2,648.2Z" transform="translate(-35.6 -22)" style="fill:#036eb8;stroke:#036eb8;stroke-miterlimit:10"/><path d="M354.8,597.3c-.4-.7-.2-1,.6-.8l8.9,3.1c.4.1.3,6.4.8,6.5s.9-6.2,1.3-6.2l9-1.9c.8-.2,1,.2.5.8L366.8,609a2.7,2.7,0,0,1-2.4,1,2.9,2.9,0,0,1-2.4-1.4Z" transform="translate(-35.6 -22)" style="fill:#036eb8;stroke:#036eb8;stroke-miterlimit:10"/></g><circle cx="305.4" cy="597.8" r="42.4" style="fill:none;stroke:#036eb8;stroke-miterlimit:10"/><g id="fish-2" data-name="fish"><path d="M117.4,375.8c-1.8-2.2-5.3-2-8.4.4-.1.1-.1,0-.2,0s-4.1.8-4.7,1.9,0,.4,1.2.4l1.2.2v.2a14.9,14.9,0,0,0-2.3,5.4c-.6,2.6.2,6.6.4,8.7,0,.2.2.1.2.1l.8-.2.9.2c.1.1.1.1.2-.1.4-2,1.7-5.9,3.6-7.4a15.4,15.4,0,0,1,1.9-.8h.1a2.5,2.5,0,0,1,.2,1c-.1,1.3,0,1.4.3,1.3a6.3,6.3,0,0,0,2.4-3.8v-.2C119.2,380.6,119.6,378.4,117.4,375.8Z" transform="translate(-35.6 -22)" style="fill:#036eb8;stroke:#036eb8;stroke-miterlimit:10"/><path d="M110.1,399.8q.3.4-.3.3l-4.1-1.4c-.2-.1-.2-3.1-.4-3.1s-.5,2.9-.6,2.9l-4.3.9c-.3.1-.4-.1-.2-.4l4.3-4.7a1.1,1.1,0,0,1,1.1-.5,1.2,1.2,0,0,1,1.1.6Z" transform="translate(-35.6 -22)" style="fill:#036eb8;stroke:#036eb8;stroke-miterlimit:10"/><path d="M115.2,402.5c1.8,2.3,5.3,2.1,8.4-.3h.2c1,1,4.1-.8,4.7-1.9s.1-.5-1.2-.4a2.1,2.1,0,0,1-1.2-.3h0a12.6,12.6,0,0,0,2.3-5.4c.6-2.6-.2-6.7-.4-8.7,0-.2-.1-.1-.2-.1l-.8.2a1.6,1.6,0,0,1-.9-.3h-.2c-.4,2.1-1.7,6-3.6,7.4a7.6,7.6,0,0,1-1.8.9h-.2a1.9,1.9,0,0,1-.1-1.1c.1-1.2-.1-1.3-.4-1.2a5.8,5.8,0,0,0-2.3,3.8c0,.1,0,.2-.1.2C113.4,397.7,113.1,400,115.2,402.5Z" transform="translate(-35.6 -22)" style="fill:#036eb8;stroke:#036eb8;stroke-miterlimit:10"/><path d="M122.5,378.6c-.2-.3-.1-.5.3-.3l4.2,1.4c.2.1.1,3,.4,3s.4-2.8.6-2.9l4.2-.8c.4-.1.5.1.2.3l-4.2,4.8a1.7,1.7,0,0,1-1.2.5,1.4,1.4,0,0,1-1.1-.7Z" transform="translate(-35.6 -22)" style="fill:#036eb8;stroke:#036eb8;stroke-miterlimit:10"/></g><circle cx="80.4" cy="367.2" r="19.9" style="fill:none;stroke:#036eb8;stroke-miterlimit:10"/><g id="Rice_Roll" data-name="Rice Roll"><path d="M243.1,595c-15.2,0-30.7,28.5-26.5,37.3,2.2,4.6,8.2,7.6,15.3,9.1a58.7,58.7,0,0,0,22.1,0c7.6-1.5,13.8-4.6,15.5-9.2C273,623.1,258.4,594.9,243.1,595Zm21.3,35c-1.1,2.9-4.4,5.1-8.7,6.4l-.9.3c-.3.1-.8.1-.8-.6V622.3a2.6,2.6,0,0,0-2.6-2.6H234.5a2.6,2.6,0,0,0-2.6,2.6v13.8a.6.6,0,0,1-.8.6c-4.4-1.3-7.9-3.5-9.4-6.6s.6-11,4.8-17.7,10.3-12.3,16.4-12.3h.3c3.1,0,6.1,1.4,8.9,3.6a32.3,32.3,0,0,1,7.3,8.6C263.5,618.9,265.8,626.4,264.4,630Z" transform="translate(-35.6 -22)" style="fill:#727171"/></g><circle cx="206.5" cy="597.8" r="41.8" style="fill:none;stroke:#656433;stroke-miterlimit:10"/><g id="Rice_Roll-2" data-name="Rice Roll"><path d="M252.9,375.2c-6.8,0-13.7,12.6-11.8,16.5,1,2.1,3.6,3.4,6.8,4a24.9,24.9,0,0,0,9.8,0c3.4-.6,6.1-2,6.9-4C266.1,387.6,259.7,375.1,252.9,375.2Zm9.4,15.5c-.5,1.3-1.9,2.2-3.9,2.8l-.4.2c-.1,0-.3,0-.3-.3v-6.1a1.1,1.1,0,0,0-1.1-1.2H249a1.1,1.1,0,0,0-1.1,1.2v6.1c0,.3-.2.3-.3.3-2-.6-3.6-1.6-4.2-3s.2-4.9,2.1-7.8,4.6-5.5,7.3-5.5h.1a6.6,6.6,0,0,1,4,1.6,17,17,0,0,1,3.2,3.8C261.9,385.8,262.9,389.1,262.3,390.7Z" transform="translate(-35.6 -22)" style="fill:#727171"/></g><circle cx="216.8" cy="364.1" r="18.5" style="fill:none;stroke:#656433;stroke-miterlimit:10"/><g id="Water_lily" data-name="Water lily"><path d="M430.3,544.8h-.4s-10.8-3.7-14.7-10.5c-2-3.3-2.7-10-2.7-10s-.1-.2-.2-.2-8.6,2-8.8,2.4,2.2,12.6,10.8,17.3c5.5,3,16.1,1.2,16.1,1.2s.1-.1,0-.1Z" transform="translate(-35.6 -22)" style="fill:#13ae67"/><path d="M441.7,544.8l.6-.2s10.6-3.6,14.6-10.4c1.9-3.3,2.6-9.8,2.6-9.8s.2-.4.5-.4,8.3,2,8.5,2.4-2.2,12.6-10.8,17.3c-5.5,3-15.9,1.2-15.9,1.2S441.5,544.8,441.7,544.8Z" transform="translate(-35.6 -22)" style="fill:#13ae67"/><path d="M428.5,539.2c-2.4-3.1-5.2-8.1-5.2-13.9,0-4,2.8-10.3,2.8-10.3s0-.2-.1-.3-8.4-2.8-8.9-2.5-4.7,12.1.3,20.6c3.3,5.7,13.8,9.7,13.8,9.7s.1,0,0-.1A38.2,38.2,0,0,1,428.5,539.2Z" transform="translate(-35.6 -22)" style="fill:#13ae67"/><path d="M454.9,512.2c-.5-.3-8.5,2.3-8.5,2.3s-.2.2-.2.3,3,6.4,3,10.5c0,5.8-2.8,10.8-5.2,13.9-1,1.3-2.6,3-2.6,3s-.1.2,0,.1,10.1-4.1,13.2-9.5C459.6,524.3,455.6,512.6,454.9,512.2Z" transform="translate(-35.6 -22)" style="fill:#13ae67"/><path d="M446.9,525.2c0,10.4-9.9,18.8-10.6,18.8s-10.7-8.4-10.7-18.8,9.7-18.8,10.7-18.8S446.9,514.8,446.9,525.2Z" transform="translate(-35.6 -22)" style="fill:#13ae67"/></g><circle cx="400.7" cy="504.7" r="42.9" style="fill:none;stroke:#13ae67;stroke-miterlimit:10"/><g id="Water_lily-2" data-name="Water lily"><path d="M323.4,393.4h-.2s-5.3-1.8-7.2-5.1a17.4,17.4,0,0,1-1.3-4.9h-.1s-4.1,1-4.3,1.2,1.1,6.1,5.3,8.4c2.7,1.4,7.8.6,7.8.6s.1,0,0-.1Z" transform="translate(-35.6 -22)" style="fill:#13ae67"/><path d="M328.9,393.4h.3s5.2-1.7,7.1-5a17.1,17.1,0,0,0,1.3-4.8c0-.1.1-.2.2-.1a35.9,35.9,0,0,1,4.1,1.1c.2.3-1,6.1-5.2,8.4-2.7,1.4-7.7.6-7.7.6S328.8,393.5,328.9,393.4Z" transform="translate(-35.6 -22)" style="fill:#13ae67"/><path d="M322.5,390.7A11,11,0,0,1,320,384a17.4,17.4,0,0,1,1.3-5.1c.1,0,0-.1,0-.1a44.3,44.3,0,0,0-4.3-1.2c-.4.2-2.3,5.9.1,10s6.7,4.7,6.7,4.7h0Z" transform="translate(-35.6 -22)" style="fill:#13ae67"/><path d="M335.3,377.6a40.5,40.5,0,0,0-4.1,1.1v.2a15.6,15.6,0,0,1,1.5,5.1,11.1,11.1,0,0,1-2.6,6.7l-1.2,1.5h0s4.9-1.9,6.4-4.6S335.7,377.8,335.3,377.6Z" transform="translate(-35.6 -22)" style="fill:#13ae67"/><path d="M331.4,383.9c0,5-4.8,9.1-5.1,9.1s-5.2-4.1-5.2-9.1,4.7-9.1,5.2-9.1S331.4,378.9,331.4,383.9Z" transform="translate(-35.6 -22)" style="fill:#13ae67"/></g><circle cx="290.7" cy="362.6" r="20.9" style="fill:none;stroke:#13ae67;stroke-miterlimit:10"/><g id="Sakura"><path d="M446.1,614.3c6.4,1.9,4.3-8.3-.8-4-.3.2-.4.2-.1-.1,4.2-5.1-6.4-7-4.1-.4.1.1,0,.1,0,0-3.7-6.1-9,3.9-1.9,3.5.3,0,.4.1.1.2-6.8,1.5,1.8,9.3,2.9,2.8.1-.3.1-.2.1.1.2,6.1,9.1,1,3.7-1.9C445.7,614.3,445.7,614.2,446.1,614.3Zm-1.9-1.1c-.4,0-.5.2-.3.4s.3.7.1.8a.6.6,0,0,1-.7-.3c-.2-.3-.4-.2-.5.1s-.2.6-.4.6-.4-.3-.3-.7-.1-.5-.4-.3-.7.3-.8.1,0-.4.3-.7.2-.4-.1-.4-.6-.3-.6-.5.4-.3.7-.3.5-.1.3-.4-.3-.6-.1-.8.5.1.7.3.4.3.5-.1.2-.6.4-.6a.6.6,0,0,1,.3.7c-.1.4.1.5.4.3s.6-.3.8-.1a.6.6,0,0,1-.3.7c-.3.2-.3.4.1.5s.6.2.6.4A.5.5,0,0,1,444.2,613.2Z" transform="translate(-35.6 -22)" style="fill:#ce90bd"/><path d="M424.2,637.5c5.1,1.5,3.5-6.7-.7-3.2-.2.1-.2.1,0-.1,3.3-4.1-5.1-5.6-3.3-.4.1.2,0,.2,0,.1-3-4.9-7.1,3.1-1.5,2.8.3,0,.3.1,0,.1-5.4,1.3,1.5,7.5,2.4,2.3,0-.3.1-.2.1,0,.1,4.9,7.3.8,2.9-1.5C423.9,637.5,423.9,637.4,424.2,637.5Zm-1.5-.9c-.3,0-.4.1-.2.3s.2.5,0,.6-.4,0-.5-.2-.4-.2-.4.1a.5.5,0,0,1-.4.5.8.8,0,0,1-.2-.6c0-.3-.1-.4-.3-.2s-.5.2-.6.1,0-.4.2-.6.2-.3-.1-.4-.5-.2-.5-.3a.6.6,0,0,1,.6-.3c.3.1.4-.1.2-.3a.5.5,0,0,1-.1-.6c.2-.1.4,0,.6.2s.3.2.4-.1a.4.4,0,0,1,.3-.4c.2,0,.3.3.3.5s.1.4.3.2.5-.2.6,0,0,.4-.2.5-.2.4.1.4.4.2.4.4S422.9,636.7,422.7,636.6Z" transform="translate(-35.6 -22)" style="fill:#ce90bd"/><path d="M456.8,623.3c5.1,1.5,3.5-6.8-.7-3.3-.2.2-.3.1-.1-.1,3.4-4.1-5.1-5.6-3.2-.3,0,.1,0,.1-.1,0-3-5-7.2,3.1-1.5,2.9.3,0,.3,0,.1.1-5.5,1.2,1.4,7.5,2.3,2.3.1-.3.1-.2.1,0,.2,5,7.4.8,3-1.5C456.5,623.2,456.5,623.2,456.8,623.3Zm-1.6-.9c-.3-.1-.4.1-.2.3a.5.5,0,0,1,.1.6c-.2.1-.4,0-.6-.2s-.3-.2-.4.1-.2.5-.3.4-.3-.2-.3-.5-.1-.4-.3-.2-.5.2-.6,0,0-.3.2-.5.2-.4-.1-.4-.5-.2-.4-.4.2-.3.5-.2.4-.1.2-.4-.2-.5,0-.6.4.1.5.3.4.2.4-.1.2-.5.4-.5.3.3.2.6.1.4.4.2a.5.5,0,0,1,.6-.1c.1.2-.1.4-.3.6s-.2.3.1.4.5.2.5.3S455.5,622.4,455.2,622.4Z" transform="translate(-35.6 -22)" style="fill:#ce90bd"/><path d="M468,604.8c6.1,1.7,4.1-8-.7-3.9-.3.2-.4.2-.1-.1,4-4.8-6.1-6.5-3.8-.4,0,.2,0,.2-.1.1-3.5-5.8-8.4,3.6-1.7,3.3.2,0,.3.1,0,.1-6.4,1.5,1.7,8.8,2.7,2.7.1-.3.1-.2.1.1.2,5.8,8.7.9,3.6-1.8C467.7,604.7,467.7,604.7,468,604.8Zm-2-1.2c-.3-.1-.4.1-.2.3s.2.5,0,.6-.3,0-.5-.2-.3-.2-.4,0a.5.5,0,0,1-.4.5c-.1,0-.2-.3-.2-.5s-.1-.4-.3-.2-.5.2-.6,0,0-.4.2-.5.2-.4-.1-.4-.5-.2-.4-.4.2-.3.5-.2.4-.1.2-.3-.2-.5,0-.6.3,0,.5.2.3.2.4-.1a.5.5,0,0,1,.4-.5.8.8,0,0,1,.2.6c-.1.3.1.4.3.2a.5.5,0,0,1,.6-.1c.1.2,0,.4-.2.6s-.2.3.1.4.5.2.4.3S466.3,603.6,466,603.6Z" transform="translate(-35.6 -22)" style="fill:#ce90bd"/><path d="M458.8,609.3c.2-.2.1-.3,0-.3a4.9,4.9,0,0,1-1.2-2.5h0c0-.1-.1-.3-.3-.1-1.8,1.2-3.5,2.1-5.9,3.5-.3.2-.2.3-.1.4a5.7,5.7,0,0,1,.3,1.8,5.3,5.3,0,0,1-.1,1.3c0,.1,0,.2.3,0C454.7,611.8,456.6,610.7,458.8,609.3Z" transform="translate(-35.6 -22)" style="fill:#ce90bd"/><path d="M462.8,618.4l-1.6.6c-.4.1-.2.3-.1.5a3.3,3.3,0,0,1,.4,1.4c0,.1,0,.3.2.2l1.8-.6c.1-.1.2-.1.2-.3l-.7-1.7S463,618.4,462.8,618.4Z" transform="translate(-35.6 -22)" style="fill:#ce90bd"/><path d="M447.3,622.2a1.1,1.1,0,0,1-.3-.7c-.1-.1-.1-.3-.3-.3l-4.9-.4a32.6,32.6,0,0,1-4.6-1c-.2-.1-.2-.1,0-.1a.2.2,0,0,0-.1-.3,5.1,5.1,0,0,1-1.8-2.6c0-.1-.1-.3-.5-.2-9.6,2.5-20.2,3.3-31.3-.1a.8.8,0,0,0-1,.7c0,.7-.2,1.9-.3,3s.4,1.3.4,1.3a41.8,41.8,0,0,0,7.2,1.5c.4,0,.6.2.8.2a23.1,23.1,0,0,1,6.8,7.5h1.4c.1-.1.2-.2.2-.3a3.8,3.8,0,0,1,.9-.9c.1,0,0-.1,0-.1a17.4,17.4,0,0,0-3.5-5.8c-.1-.1-.2-.2.1-.2a53.1,53.1,0,0,0,8.7-.8l4.4-.8h.8l10.9,1.7a53.8,53.8,0,0,0,6.2.4c.2,0,.2-.1.2-.2s.1-.3.2-.4a.4.4,0,0,0-.1-.3Z" transform="translate(-35.6 -22)" style="fill:#ce90bd"/></g><circle cx="400.6" cy="597.8" r="42.4" style="fill:none;stroke:#ce90bd;stroke-miterlimit:10"/><g id="Sakura-2" data-name="Sakura"><path d="M385.1,380.6c3.2,1,2.2-4.1-.4-2h0c2.1-2.6-3.2-3.5-2-.2,0,0,0,.1-.1,0-1.8-3.1-4.4,1.9-.9,1.8h.1c-3.4.8.9,4.6,1.4,1.4,0-.1.1-.1.1.1.1,3,4.5.5,1.8-1C385,380.6,385,380.6,385.1,380.6Zm-.9-.5c-.2,0-.2.1-.1.2a.3.3,0,0,1,0,.4c-.1,0-.2,0-.3-.2s-.2-.1-.3.1-.1.3-.2.3-.2-.2-.1-.4-.1-.2-.3-.1-.3.1-.3,0,0-.2.1-.3.1-.2,0-.2l-.3-.3c0-.1.1-.1.3-.1s.2-.1.1-.2-.1-.3,0-.4.2,0,.3.2.3.1.3-.1.1-.3.2-.3.2.2.2.4,0,.2.2.1h.3c.1.1,0,.3-.1.4s-.1.2,0,.2.4.1.3.3S384.4,380.1,384.2,380.1Z" transform="translate(-35.6 -22)" style="fill:#ce90bd"/><path d="M374.3,392.2c2.5.7,1.7-3.4-.4-1.7h0c1.7-2-2.5-2.7-1.6-.2h0c-1.5-2.4-3.6,1.6-.8,1.5h.1c-2.7.6.7,3.7,1.1,1.1,0-.1.1-.1.1.1,0,2.4,3.6.4,1.4-.8Zm-.8-.5c-.1,0-.2.1-.1.2a.2.2,0,0,1,0,.3h-.2c-.1-.2-.2-.1-.2,0l-.2.2c-.1,0-.2-.1-.1-.2s-.1-.2-.2-.1-.2.1-.3,0a.4.4,0,0,1,.1-.3c.1-.1.1-.2,0-.2s-.3-.1-.3-.2h.3c.2.1.2,0,.1-.1s-.1-.3,0-.3.2,0,.3.1.1.1.2-.1a.3.3,0,0,1,.1-.2c.1,0,.2.1.2.3s0,.2.1.1.3-.1.3,0,0,.1-.1.2-.1.2,0,.2.3.1.3.2Z" transform="translate(-35.6 -22)" style="fill:#ce90bd"/><path d="M390.4,385.1c2.6.7,1.8-3.4-.3-1.6-.1,0-.1,0,0-.1,1.7-2-2.6-2.8-1.6-.2,0,.1,0,.1-.1.1-1.4-2.5-3.6,1.5-.7,1.4h0c-2.7.7.8,3.8,1.2,1.2h0c.1,2.5,3.7.4,1.5-.8C390.3,385.1,390.3,385,390.4,385.1Zm-.7-.5c-.2,0-.2.1-.1.2s.1.3,0,.3-.2,0-.3-.1-.1-.1-.2,0a.4.4,0,0,1-.1.3c-.1,0-.2-.2-.2-.3s0-.2-.1-.1-.3.1-.3,0,0-.2.1-.3.1-.1-.1-.2h-.2c0-.1.1-.2.3-.2s.2,0,.1-.1-.1-.3,0-.3.2,0,.2.1.2.1.2-.1l.2-.2a.2.2,0,0,1,.1.3c0,.1.1.2.2.1h.3s0,.2-.1.2-.1.2,0,.2.3.1.3.2S389.8,384.7,389.7,384.6Z" transform="translate(-35.6 -22)" style="fill:#ce90bd"/><path d="M396,375.9c3,.9,2.1-4-.3-1.9-.2.1-.2.1-.1-.1,2-2.4-3-3.2-1.9-.2.1.1,0,.1,0,0-1.7-2.8-4.2,1.9-.9,1.7.2,0,.2,0,0,.1-3.1.7.9,4.4,1.4,1.3,0-.1.1-.1.1,0,.1,2.9,4.3.5,1.7-.9Zm-1-.6c-.1,0-.2,0-.1.2v.2c-.1.1-.2,0-.3-.1s-.2-.1-.2.1a.2.2,0,0,1-.2.2c-.1,0-.1-.1-.1-.3s-.1-.2-.2-.1h-.3c0-.1,0-.2.2-.3s0-.2-.1-.2a.2.2,0,0,1-.2-.2h.3c.1,0,.1-.1.1-.2a.4.4,0,0,1-.1-.3c.1,0,.2,0,.3.2s.2.1.2-.1l.2-.2c.1,0,.1.1.1.3s0,.1.1.1h.3c.1.1,0,.2-.1.3s-.1.2.1.2l.2.2C395.3,375.3,395.2,375.3,395,375.3Z" transform="translate(-35.6 -22)" style="fill:#ce90bd"/><path d="M391.4,378.1c.2,0,.1-.1.1-.1a1.8,1.8,0,0,1-.6-1.3h-.2l-2.9,1.8c-.2.1-.1.1-.1.2a2.9,2.9,0,0,1,.2.9,1.3,1.3,0,0,1-.1.6h.2A25.5,25.5,0,0,0,391.4,378.1Z" transform="translate(-35.6 -22)" style="fill:#ce90bd"/><path d="M393.4,382.7l-.8.3c-.1,0,0,.1,0,.2a1.9,1.9,0,0,1,.2.7c0,.1,0,.1.1.1l.9-.3h.1l-.3-.9Z" transform="translate(-35.6 -22)" style="fill:#ce90bd"/><path d="M385.7,384.6c0-.2-.1-.3-.1-.4s0-.2-.2-.2l-2.4-.2-2.3-.4c-.1-.1-.1-.1,0-.1s0-.1,0-.2a1.8,1.8,0,0,1-.9-1.2c0-.1-.1-.2-.3-.2a27.2,27.2,0,0,1-15.5,0s-.5-.1-.5.4a9.3,9.3,0,0,1-.2,1.4c-.1.7.2.7.2.7a14.4,14.4,0,0,0,3.6.7.5.5,0,0,1,.4.2,11.3,11.3,0,0,1,3.4,3.7h.7c0-.1.1-.1.1-.2a.8.8,0,0,1,.4-.4c.1,0,0-.1,0-.1a11.1,11.1,0,0,0-1.7-2.9c-.1,0-.1-.1,0-.1a33.7,33.7,0,0,0,4.4-.3l2.1-.5h.4l5.5.8a13.7,13.7,0,0,0,3,.2h.2V385h0Z" transform="translate(-35.6 -22)" style="fill:#ce90bd"/></g><circle cx="344.6" cy="361.3" r="21.1" style="fill:none;stroke:#ce90bd;stroke-miterlimit:10"/><text transform="translate(194 656)" style="font-size:12px;fill:#231815;font-family:AdobeSongStd-Light-GBpc-EUC-H, Adobe Song Std"><tspan xml:space="preserve">6 Japanese style  icon</tspan></text><circle cx="57.4" cy="515.5" r="7" style="fill:#231815"/><polyline points="94.4 508.5 82.6 515.2 95.8 522.4" style="fill:none;stroke:#231815;stroke-miterlimit:10;stroke-width:2px"/><path d="M94.4,557.5l28.8-.3s-1.6,14.2-14.5,14S94.4,557.5,94.4,557.5Z" transform="translate(-35.6 -22)" style="fill:#c30d23;stroke:#231815;stroke-miterlimit:10"/><circle cx="36.4" cy="202.9" r="3.7" style="fill:#231815"/><polyline points="55.9 199.2 49.7 202.7 56.7 206.6" style="fill:none;stroke:#231815;stroke-miterlimit:10;stroke-width:2px"/><path d="M69.9,234.2l20.5-.2s-1.2,10.1-10.3,10S69.9,234.2,69.9,234.2Z" transform="translate(-35.6 -22)" style="fill:#c30d23;stroke:#231815;stroke-miterlimit:10"/><circle cx="126.7" cy="203.4" r="3.7" style="fill:#231815"/><polyline points="146.2 199.7 140 203.2 147 207" style="fill:none;stroke:#231815;stroke-miterlimit:10;stroke-width:2px"/><path d="M160.2,234.7l20.5-.3s-1.2,10.2-10.3,10S160.2,234.7,160.2,234.7Z" transform="translate(-35.6 -22)" style="fill:#c30d23;stroke:#231815;stroke-miterlimit:10"/><circle cx="220.4" cy="204.8" r="3.7" style="fill:#231815"/><polyline points="239.9 201.2 233.7 204.7 240.6 208.5" style="fill:none;stroke:#231815;stroke-miterlimit:10;stroke-width:2px"/><path d="M253.8,236.2l20.5-.3s-1.1,10.2-10.3,10S253.8,236.2,253.8,236.2Z" transform="translate(-35.6 -22)" style="fill:#c30d23;stroke:#231815;stroke-miterlimit:10"/><circle cx="310" cy="205.3" r="3.7" style="fill:#231815"/><polyline points="329.5 201.6 323.2 205.1 330.2 208.9" style="fill:none;stroke:#231815;stroke-miterlimit:10;stroke-width:2px"/><path d="M343.4,236.6l20.5-.2s-1.1,10.1-10.3,9.9S343.4,236.6,343.4,236.6Z" transform="translate(-35.6 -22)" style="fill:#c30d23;stroke:#231815;stroke-miterlimit:10"/><circle cx="183.2" cy="681.3" r="8.3" style="fill:#231815"/><circle cx="332.2" cy="681.3" r="8.3" style="fill:#231815"/><circle cx="214.8" cy="746.7" r="8.3" style="fill:#231815"/><circle cx="369.7" cy="681.3" r="8.3" style="fill:#231815"/><polyline points="223.2 674.4 211.4 681.1 224.6 688.3" style="fill:none;stroke:#231815;stroke-miterlimit:10;stroke-width:2px"/><polyline points="182.2 739.8 194 746.4 180.8 753.7" style="fill:none;stroke:#231815;stroke-miterlimit:10;stroke-width:2px"/><path d="M216.4,720.5l39.4-.4s-2.1,15.2-19.7,14.9S216.4,720.5,216.4,720.5Z" transform="translate(-35.6 -22)" style="fill:#e83828;stroke:#231815;stroke-miterlimit:10"/><path d="M369.4,717.7l39.4-.5s-2.1,15.3-19.7,15S369.4,717.7,369.4,717.7Z" transform="translate(-35.6 -22)" style="fill:#e83828;stroke:#231815;stroke-miterlimit:10"/><path d="M284.3,697l17.4,15.3S280.6,717.5,284.3,697Z" transform="translate(-35.6 -22)" style="fill:#231815;stroke:#231815;stroke-miterlimit:10"/><path d="M336,696.4l-17.4,15.3S339.8,716.9,336,696.4Z" transform="translate(-35.6 -22)" style="fill:#231815;stroke:#231815;stroke-miterlimit:10"/><path d="M290.2,723.9s7.1,7.1,13.2,2.7,6.1-6.2,8-5,5.8,6.7,13,6.5,6.2-4.9,6.2-4.9" transform="translate(-35.6 -22)" style="fill:none;stroke:#231815;stroke-miterlimit:10"/><path d="M219.7,781.7s3.9,4.2,7.1,3.1c0,0,6.5.5,7.7-5.5a1,1,0,0,1,1.7,0c.8,1.3,3.5,6.9,7.9,5.7,0,0,6.3,0,7.4-3.8,0,0,1.5-.4.8,1.7a3.4,3.4,0,0,1-1.6,1.7s-2,16-11.9,18.3h-5.9s-7.3-1.3-10.1-11.5c0,0-1-4.8-1.9-6.3a11.8,11.8,0,0,0-2.2-2.6S218.4,781.1,219.7,781.7Z" transform="translate(-35.6 -22)" style="fill:#231815;stroke:#231815;stroke-miterlimit:10"/><path d="M223.1,785.9s5.8,1.9,8.4-.3c0,0,3.5-1.8,4-3.3,0,0,2.6,3.7,5.7,4,0,0,6,.6,7-.2s-1.6,12.3-9.8,15.2h-5s-6.8-2-9.5-10.9C223.9,790.4,222.5,786.5,223.1,785.9Z" transform="translate(-35.6 -22)" style="fill:#e60012"/><path d="M247.5,784.4" transform="translate(-35.6 -22)" style="fill:#231815"/><text transform="translate(332.2 653.7)" style="font-size:12px;fill:#231815;font-family:AdobeSongStd-Light-GBpc-EUC-H, Adobe Song Std"><tspan xml:space="preserve">4  face change </tspan></text><text transform="translate(372.6 121.7)" style="font-size:12px;fill:#231815;font-family:AdobeSongStd-Light-GBpc-EUC-H, Adobe Song Std"><tspan xml:space="preserve">lay   out   about  application </tspan><tspan x="0" y="28.8" xml:space="preserve">use :  The  6 japnese style icons follow the </tspan><tspan x="0" y="43.2" xml:space="preserve">6 different japanese style music  and  the</tspan><tspan x="0" y="57.6" xml:space="preserve"> 6 cions  our team divided into the  </tspan><tspan x="0" y="72">3 ares ( tokyo , Osaka, Kyoto), </tspan><tspan x="0" y="86.4" xml:space="preserve">than  the 4 face change for the drum boy. </tspan><tspan x="0" y="100.8" xml:space="preserve">For example, i choose the rice rol l  drag </tspan><tspan x="0" y="115.2">the drum boy will change the face and </tspan><tspan x="0" y="129.6" xml:space="preserve">paly the music about rice roll.  </tspan><tspan x="0" y="158.4"> </tspan></text><text transform="translate(35.5 342.4)" style="font-size:12px;fill:#231815;font-family:AdobeSongStd-Light-GBpc-EUC-H, Adobe Song Std">Tokyo</text><text transform="translate(176.6 342.5)" style="font-size:12px;fill:#231815;font-family:AdobeSongStd-Light-GBpc-EUC-H, Adobe Song Std">Osaka</text><text transform="translate(306.3 340.3)" style="font-size:12px;fill:#231815;font-family:AdobeSongStd-Light-GBpc-EUC-H, Adobe Song Std">Kyoto</text><text transform="translate(146.4 549.2)" style="font-size:40.45341873168945px;fill:#231815;font-family:AdobeSongStd-Light-GBpc-EUC-H, Adobe Song Std">+</text><text transform="translate(300.8 663.3)" style="font-size:40.45341873168945px;fill:#231815;font-family:AdobeSongStd-Light-GBpc-EUC-H, Adobe Song Std">+</text></g></svg>