<svg id="图层_1" data-name="图层 1" xmlns="http://www.w3.org/2000/svg" xmlns:xlink="http://www.w3.org/1999/xlink" viewBox="0 0 824.5 417.7"><defs><clipPath id="clip-path" transform="translate(-8.7 -94.9)"><rect x="35.5" y="235.4" width="93.4" height="95.71" rx="14.2" style="fill:none"/></clipPath><clipPath id="clip-path-2" transform="translate(-8.7 -94.9)"><rect x="171.6" y="235.4" width="93.4" height="95.71" rx="14.2" style="fill:none"/></clipPath><clipPath id="clip-path-3" transform="translate(-8.7 -94.9)"><rect x="311" y="235.4" width="93.4" height="95.71" rx="14.2" style="fill:none"/></clipPath><clipPath id="clip-path-4" transform="translate(-8.7 -94.9)"><rect x="448.2" y="235.4" width="93.4" height="95.71" rx="14.2" style="fill:none"/></clipPath><clipPath id="clip-path-5" transform="translate(-8.7 -94.9)"><rect x="580.8" y="235.4" width="93.4" height="95.71" rx="14.2" style="fill:none"/></clipPath><clipPath id="clip-path-6" transform="translate(-8.7 -94.9)"><rect x="709" y="235.4" width="93.4" height="95.71" rx="14.2" style="fill:none"/></clipPath></defs><title>Origianl Layout</title><polygon points="824.5 188.3 0 187.2 0 0 824.5 1.1 824.5 188.3" style="fill:#e60012"/><polygon points="824.5 376.7 0 375.5 0 188.3 824.5 189.5 824.5 376.7" style="fill:#fff"/><rect x="63.9" y="351.2" width="145.6" height="66.05" rx="10" style="fill:#fff100;stroke:#036eb8;stroke-miterlimit:10"/><rect x="346.3" y="351.2" width="145.6" height="62.9" rx="10" style="fill:#8fc31f;stroke:#036eb8;stroke-miterlimit:10"/><rect x="608.4" y="350.7" width="145.6" height="64.62" rx="10" style="fill:#e4007f;stroke:#036eb8;stroke-miterlimit:10"/><g style="clip-path:url(#clip-path)"><path d="M130.1,285.8v.8a5.6,5.6,0,0,0-1.2-.4h-6.4c-1.6.1-3.2,3.3-2.4,4.7a1.5,1.5,0,0,0,1.3.4,5,5,0,0,0,1.4-.8h-.1a3.6,3.6,0,0,1-.4.9c-1,.9-2.3,1.5-2.8,2.6-2,4-3.7,8.1-5.5,12.2l3.5,3.3c2.3-1.3,4.3-3,6.6-3.7s4.4-.8,6-2.7V312l-4.1.4c-.4-2.5-1.6-3.9-4-3.9s-3.1.8-4.1,3.7c-2.6-.1-3.8.4-4.4,2s0,3.3,1.5,4.6.4,1.1.6,1.4a19.5,19.5,0,0,1,2.9,1.4,12.1,12.1,0,0,1,1.6,2.8l1.6-1.5,2.3,2-5.2,3.6c-1.3.9-1.8.3-2-1,1.7-.9,2.6-2.2,2-4s-2.3-2.3-4.3-2.2c-.3-2-1.3-3.5-3.5-3.5s-3.3,1.4-3.6,3.5c-1.9-.2-3.7,0-4.3,2.2a3.3,3.3,0,0,0,1.7,3.8l.3,3.8H64l-.6-1.5c2.6-1.5,3.3-3.5,1.5-4.9s-5.3-3.3-8-4.9a1.9,1.9,0,0,0-1.8.2c-1.8,1.4-4.1,1.5-6,2.5a10.3,10.3,0,0,0-3,2.9,24.5,24.5,0,0,0-1.6,2.8l-2.7-4c-.2-.3-.4-.7-.7-.8-2.6-.2-2.8-2.6-3.8-4.2a1.5,1.5,0,0,1,0-1.3c.4-.9,5.3-1.7,6-1l3.2,2.8,2.5-2.9-.3-.3-.3-.8h3.2v-.5l-3-1.6.4-.6a19,19,0,0,1,3.7,2c2.7,2,4.2,2,6.9-.2L51.3,306a19.4,19.4,0,0,0-2.7-2.3l1.1-.4c-2.7-3.2-5.4-.5-8-.5l5.3-2.2a42.6,42.6,0,0,0-4.9-3.1,36.7,36.7,0,0,0-5.4-1.1l4.9-6.4-6.8.8v-9.7h9l2.5-11.4-11.5-5.1v-9.7l.9-3.3,14.7,10.2,8.3-8.9L47.9,237.7l.4-.3c3.7-1.6,7.7-1.6,11.6-1.5.5.1,1,.8,1.2,1.3l3.6,7.4,1.7,3.6L78.1,245l-.5-9H88c-.2,2.6-.5,5.1-.6,7.6,0,.6.4,1.7.8,1.8,3.5,1.1,7.1,2,10.9,3,1.7-3.6,3.4-7.4,5.2-11.1.3-.5.7-1.3,1.1-1.3,4.4-.2,8.7-.1,12.2,1.9-4,5.1-7.4,10.4-11.1,15.7,10,8.5,14.6,19.3,14.3,32.2ZM88.7,322.9c-2.9-1.6-6.1-1.2-9.1-.9a5.8,5.8,0,0,0-4.5,3.6c3.2.7,5.9,2,7.5,5.3,1.8-3.3,4.6-4.7,8-5.6l-1.1-1.9c.5.6.9,1.3,1.6,1.6s1.5.3,1.7,0c1.7-2.5,4.3-3.5,7-4.2-.6-2.5-.9-2.6-3.1-1.7l-1.2.4-7.7,2.3Zm-6.4-3.5a36,36,0,1,0,.2-71.9c-19.7-.2-36.1,16.1-36.1,36A36.1,36.1,0,0,0,82.3,319.4Zm29.9-2.7c-1.2-1.7-2.9-1.3-4.5-1.1-3.2.6-5.7,2.9-6.1,5.6,1.8-.4,4.4-.2,5-1.2S109.7,317,112.2,316.7Zm-9.7,5.9-.2-.6c-4.1-.6-7.5.8-8.2,3.4Zm-.8,1.1-5.6,1.8A3.5,3.5,0,0,0,101.7,323.7ZM41.8,289h1c.4-.9,1.2-2.1.9-2.8s-1.5-2-3.3-.5Zm65,24,.2.9c1-.3,2.3-.3,3-1s.3-1.7.4-2.6h-.6Zm-45.1,3.5,3,3.7C66.1,318.1,65.4,317.1,61.7,316.5Zm40.1,12.1c-.6-1-.8-1.9-1.1-1.9a6.3,6.3,0,0,0-2.2.7v.7Z" transform="translate(-8.7 -94.9)" style="fill:#00a0e9"/><path d="M130.1,285.8h-9.3c.3-12.9-4.3-23.7-14.3-32.2,3.7-5.3,7.1-10.6,11.1-15.7-3.5-2-7.8-2.1-12.2-1.9-.4,0-.8.8-1.1,1.3-1.8,3.7-3.5,7.5-5.2,11.1-3.8-1-7.4-1.9-10.9-3-.4-.1-.8-1.2-.8-1.8.1-2.5.4-5,.6-7.6H77.6l.5,9-11.7,3.2-1.7-3.6-3.6-7.4c-.2-.5-.7-1.2-1.2-1.3-3.9-.1-7.9-.1-11.6,1.5l-.4.3,10.8,15.2-8.3,8.9L35.7,251.6l-.9,3.3V235.4h95.3v19.5l-.9-2.9-9.4,6.6c2.4,1.1,4.7,2.1,6.9,3.3s2.2,2.1,3.4,3.1Z" transform="translate(-8.7 -94.9)" style="fill:#f8b62d"/><path d="M34.8,290.8l6.8-.8-4.9,6.4a36.7,36.7,0,0,1,5.4,1.1,42.6,42.6,0,0,1,4.9,3.1l-5.3,2.2c2.6,0,5.3-2.7,8,.5l-1.1.4a19.4,19.4,0,0,1,2.7,2.3l8.4,8.8c-2.7,2.2-4.2,2.2-6.9.2a19,19,0,0,0-3.7-2l-.4.6,3,1.6v.5H48.4l.3.8.3.3-2.5,2.9-3.2-2.8c-.7-.7-5.6.1-6,1a1.5,1.5,0,0,0,0,1.3c1,1.6,1.2,4,3.8,4.2.3.1.5.5.7.8l2.7,4a24.5,24.5,0,0,1,1.6-2.8,10.3,10.3,0,0,1,3-2.9c1.9-1,4.2-1.1,6-2.5a1.9,1.9,0,0,1,1.8-.2c2.7,1.6,5.5,3.1,8,4.9s1.1,3.4-1.5,4.9l.6,1.5H34.8Z" transform="translate(-8.7 -94.9)" style="fill:#9cd7f1"/><path d="M105.1,331.1l-.3-3.8a3.3,3.3,0,0,1-1.7-3.8c.6-2.2,2.4-2.4,4.3-2.2.3-2.1,1.4-3.5,3.6-3.5s3.2,1.5,3.5,3.5c2-.1,3.7,0,4.3,2.2s-.3,3.1-2,4c.2,1.3.7,1.9,2,1l5.2-3.6-2.3-2-1.6,1.5a12.1,12.1,0,0,0-1.6-2.8,19.5,19.5,0,0,0-2.9-1.4c-.2-.3-.2-1.1-.6-1.4s-2.2-2.7-1.5-4.6,1.8-2.1,4.4-2c1-2.9,1.9-3.7,4.1-3.7s3.6,1.4,4,3.9l4.1-.4v19.1Z" transform="translate(-8.7 -94.9)" style="fill:#c30d23"/><path d="M130.1,303.1c-1.6,1.9-3.9,2-6,2.7s-4.3,2.4-6.6,3.7l-3.5-3.3c1.8-4.1,3.5-8.2,5.5-12.2.5-1.1,1.8-1.7,2.8-2.6a3.6,3.6,0,0,0,.4-.9c.4-.4,1-.7,1.1-1.1s-.1-1.3-.3-1.3a8.6,8.6,0,0,0-2.3.2v.6l1.7,1.6a5,5,0,0,1-1.4.8,1.5,1.5,0,0,1-1.3-.4c-.8-1.4.8-4.6,2.4-4.7h6.4a5.6,5.6,0,0,1,1.2.4v1.3a11.8,11.8,0,0,0-2.7.3c-.6.2-.9,1-1.4,1.5a12.4,12.4,0,0,0,1.6.4c1.3.1,1.9.5,1.6,1.9a2.7,2.7,0,0,0,.2,1.5c.8,2.5.1,3.4-2.6,3.2a8.3,8.3,0,0,0-6,2c3.8-1.8,6.2-2.1,9.3-1.1Z" transform="translate(-8.7 -94.9)" style="fill:#f8b62d"/><path d="M34.8,264.6l11.5,5.1-2.5,11.4h-9Z" transform="translate(-8.7 -94.9)" style="fill:#f8b62d"/><path d="M130.1,265c-1.2-1-2.1-2.3-3.4-3.1s-4.5-2.2-6.9-3.3l9.4-6.6.9,2.9Z" transform="translate(-8.7 -94.9)" style="fill:#ea5514"/><path d="M130.1,297.6c-3.1-1-5.5-.7-9.3,1.1a8.3,8.3,0,0,1,6-2c2.7.2,3.4-.7,2.6-3.2a2.7,2.7,0,0,1-.2-1.5c.3-1.4-.3-1.8-1.6-1.9a12.4,12.4,0,0,1-1.6-.4c.5-.5.8-1.3,1.4-1.5a11.8,11.8,0,0,1,2.7-.3Z" transform="translate(-8.7 -94.9)" style="fill:#fff100"/><path d="M82.3,319.4a36.1,36.1,0,0,1-35.9-35.9c0-19.9,16.4-36.2,36.1-36a36,36,0,1,1-.2,71.9Zm28.8-35.6A28.6,28.6,0,0,0,82.6,255C67.1,254.9,54,268,54,283.5a28.6,28.6,0,0,0,57.1.3Z" transform="translate(-8.7 -94.9)" style="fill:#fff"/><path d="M89.5,323.4l1.1,1.9c-3.4.9-6.2,2.3-8,5.6-1.6-3.3-4.3-4.6-7.5-5.3a5.8,5.8,0,0,1,4.5-3.6c3-.3,6.2-.7,9.1.9Z" transform="translate(-8.7 -94.9)" style="fill:#fff"/><path d="M89.5,323.4l-.8-.5-.9-1.1,7.7-2.3,1.2-.4c2.2-.9,2.5-.8,3.1,1.7-2.7.7-5.3,1.7-7,4.2-.2.3-1.3.3-1.7,0S90,324,89.5,323.4Z" transform="translate(-8.7 -94.9)" style="fill:#fff"/><path d="M112.2,316.7c-2.5.3-4.2.9-5.6,3.3s-3.2.8-5,1.2c.4-2.7,2.9-5,6.1-5.6C109.3,315.4,111,315,112.2,316.7Z" transform="translate(-8.7 -94.9)" style="fill:#fff"/><path d="M102.5,322.6l-8.4,2.8c.7-2.6,4.1-4,8.2-3.4Z" transform="translate(-8.7 -94.9)" style="fill:#fff"/><path d="M101.7,323.7a3.5,3.5,0,0,1-5.6,1.8Z" transform="translate(-8.7 -94.9)" style="fill:#fff"/><path d="M41.8,289l-1.4-3.4c1.8-1.5,2.9-.4,3.3.5s-.5,1.9-.9,2.8Z" transform="translate(-8.7 -94.9)" style="fill:#fff"/><path d="M106.8,313l3-2.8h.6c-.1.9.1,2.1-.4,2.6s-2,.7-3,1Z" transform="translate(-8.7 -94.9)" style="fill:#fff"/><path d="M61.7,316.5c3.7.6,4.4,1.6,3,3.7Z" transform="translate(-8.7 -94.9)" style="fill:#fff"/><path d="M122.8,290.5l-1.7-1.6v-.6a8.6,8.6,0,0,1,2.3-.2c.2,0,.5.9.3,1.3s-.7.7-1.1,1.1Z" transform="translate(-8.7 -94.9)" style="fill:#e83828"/><path d="M101.8,328.6l-3.2-.5v-.7a6.3,6.3,0,0,1,2.2-.7C101,326.7,101.2,327.6,101.8,328.6Z" transform="translate(-8.7 -94.9)" style="fill:#fff"/><path d="M111.1,283.8a28.6,28.6,0,0,1-57.1-.3C54,268,67.1,254.9,82.6,255A28.6,28.6,0,0,1,111.1,283.8Z" transform="translate(-8.7 -94.9)" style="fill:#ea554d"/><path d="M98.3,281.3" transform="translate(-8.7 -94.9)" style="fill:none;stroke:#231815;stroke-miterlimit:10;stroke-width:2px"/><path d="M89.3,276.3" transform="translate(-8.7 -94.9)" style="fill:none;stroke:#231815;stroke-miterlimit:10;stroke-width:2px"/><path d="M97.4,271.8" transform="translate(-8.7 -94.9)" style="fill:none;stroke:#231815;stroke-miterlimit:10;stroke-width:2px"/></g><g style="clip-path:url(#clip-path-2)"><path d="M266.2,285.8v.8a5.6,5.6,0,0,0-1.2-.4h-6.3c-1.7.1-3.3,3.3-2.4,4.7s.8.5,1.2.4a5.5,5.5,0,0,0,1.5-.8h-.1l-.5.9c-.9.9-2.3,1.5-2.8,2.6-2,4-3.7,8.1-5.4,12.2l3.5,3.3c2.2-1.3,4.2-3,6.5-3.7s4.4-.8,6-2.7V312l-4.1.4c-.4-2.5-1.5-3.9-4-3.9s-3.1.8-4,3.7c-2.6-.1-3.8.4-4.5,2s0,3.3,1.6,4.6.4,1.1.5,1.4a13.1,13.1,0,0,1,2.9,1.4,12.1,12.1,0,0,1,1.6,2.8l1.7-1.5,2.2,2-5.2,3.6c-1.3.9-1.8.3-2-1,1.7-.9,2.6-2.2,2.1-4s-2.4-2.3-4.3-2.2c-.4-2-1.3-3.5-3.6-3.5s-3.2,1.4-3.6,3.5c-1.9-.2-3.7,0-4.3,2.2a3.3,3.3,0,0,0,1.8,3.8l.2,3.8H200.1l-.5-1.5c2.5-1.5,3.3-3.5,1.5-4.9s-5.4-3.3-8.1-4.9a1.9,1.9,0,0,0-1.8.2c-1.8,1.4-4.1,1.5-6,2.5a10.3,10.3,0,0,0-3,2.9,24.5,24.5,0,0,0-1.6,2.8l-2.7-4c-.2-.3-.4-.7-.6-.8-2.7-.2-2.8-2.6-3.9-4.2a1.5,1.5,0,0,1,0-1.3c.5-.9,5.3-1.7,6.1-1l3.1,2.8,2.5-2.9s-.2-.2-.2-.3-.2-.5-.3-.8h3.2v-.5l-3-1.6.3-.6a17.2,17.2,0,0,1,3.8,2c2.7,2,4.1,2,6.8-.2-2.8-2.9-5.5-5.9-8.4-8.8a26.8,26.8,0,0,0-2.6-2.3l1-.4c-2.7-3.2-5.3-.5-8-.5l5.3-2.2a42.2,42.2,0,0,0-4.8-3.1,41.1,41.1,0,0,0-5.5-1.1l4.9-6.4-6.8.8v-9.7H180l2.4-11.4-11.5-5.1v-9.7l1-3.3,14.6,10.2,8.3-8.9L184,237.7l.4-.3c3.8-1.6,7.7-1.6,11.7-1.5.4.1.9.8,1.2,1.3,1.2,2.4,2.3,4.9,3.5,7.4s1.3,2.6,1.8,3.6l11.7-3.2-.6-9h10.4c-.2,2.6-.5,5.1-.6,7.6,0,.6.4,1.7.8,1.8,3.6,1.1,7.2,2,10.9,3,1.7-3.6,3.4-7.4,5.2-11.1.3-.5.8-1.3,1.2-1.3,4.3-.2,8.7-.1,12.1,1.9-4,5.1-7.4,10.4-11.1,15.7,10.1,8.5,14.7,19.3,14.3,32.2Zm-41.4,37.1c-2.9-1.6-6-1.2-9.1-.9a5.8,5.8,0,0,0-4.5,3.6c3.3.7,5.9,2,7.5,5.3,1.8-3.3,4.6-4.7,8-5.6l-1.1-1.9a6.1,6.1,0,0,0,1.6,1.6c.5.3,1.5.3,1.7,0,1.7-2.5,4.3-3.5,7.1-4.2-.7-2.5-1-2.6-3.2-1.7l-1.1.4-7.8,2.3Zm-6.4-3.5c19.8.1,36.3-16.2,36.1-36a35.9,35.9,0,0,0-35.9-35.9c-19.7-.2-36,16.1-36,36A36,36,0,0,0,218.4,319.4Zm29.9-2.7c-1.2-1.7-2.9-1.3-4.4-1.1-3.2.6-5.8,2.9-6.2,5.6,1.8-.4,4.5-.2,5-1.2S245.9,317,248.3,316.7Zm-9.6,5.9-.2-.6c-4.1-.6-7.5.8-8.3,3.4Zm-.8,1.1-5.6,1.8A3.5,3.5,0,0,0,237.9,323.7Zm-60-34.7H179c.3-.9,1.1-2.1.8-2.8s-1.5-2-3.3-.5Zm65,24,.3.9c1-.3,2.2-.3,2.9-1s.3-1.7.5-2.6h-.7Zm-45.1,3.5,3,3.7C202.2,318.1,201.6,317.1,197.8,316.5Zm40.1,12.1c-.5-1-.8-1.9-1.1-1.9a5.8,5.8,0,0,0-2.1.7v.7Z" transform="translate(-8.7 -94.9)" style="fill:#00a0e9"/><path d="M266.2,285.8h-9.3c.4-12.9-4.2-23.7-14.3-32.2,3.7-5.3,7.1-10.6,11.1-15.7-3.4-2-7.8-2.1-12.1-1.9-.4,0-.9.8-1.2,1.3-1.8,3.7-3.5,7.5-5.2,11.1-3.7-1-7.3-1.9-10.9-3-.4-.1-.8-1.2-.8-1.8.1-2.5.4-5,.6-7.6H213.7l.6,9-11.7,3.2c-.5-1-1.2-2.3-1.8-3.6s-2.3-5-3.5-7.4c-.3-.5-.8-1.2-1.2-1.3-4-.1-7.9-.1-11.7,1.5l-.4.3,10.8,15.2-8.3,8.9-14.6-10.2-1,3.3V235.4h95.3v19.5l-.9-2.9-9.4,6.6c2.4,1.1,4.7,2.1,6.9,3.3a25,25,0,0,1,3.4,3.1Z" transform="translate(-8.7 -94.9)" style="fill:#f8b62d"/><path d="M170.9,290.8l6.8-.8-4.9,6.4a41.1,41.1,0,0,1,5.5,1.1,42.2,42.2,0,0,1,4.8,3.1l-5.3,2.2c2.7,0,5.3-2.7,8,.5l-1,.4a26.8,26.8,0,0,1,2.6,2.3c2.9,2.9,5.6,5.9,8.4,8.8-2.7,2.2-4.1,2.2-6.8.2a17.2,17.2,0,0,0-3.8-2l-.3.6,3,1.6v.5h-3.2c.1.3.1.6.3.8s.2.3.2.3l-2.5,2.9-3.1-2.8c-.8-.7-5.6.1-6.1,1a1.5,1.5,0,0,0,0,1.3c1.1,1.6,1.2,4,3.9,4.2.2.1.4.5.6.8l2.7,4a24.5,24.5,0,0,1,1.6-2.8,10.3,10.3,0,0,1,3-2.9c1.9-1,4.2-1.1,6-2.5a1.9,1.9,0,0,1,1.8-.2c2.7,1.6,5.5,3.1,8.1,4.9s1,3.4-1.5,4.9l.5,1.5H170.9Z" transform="translate(-8.7 -94.9)" style="fill:#9cd7f1"/><path d="M241.2,331.1l-.2-3.8a3.3,3.3,0,0,1-1.8-3.8c.6-2.2,2.4-2.4,4.3-2.2.4-2.1,1.4-3.5,3.6-3.5s3.2,1.5,3.6,3.5c1.9-.1,3.7,0,4.3,2.2s-.4,3.1-2.1,4c.2,1.3.7,1.9,2,1l5.2-3.6-2.2-2-1.7,1.5a12.1,12.1,0,0,0-1.6-2.8,13.1,13.1,0,0,0-2.9-1.4c-.1-.3-.1-1.1-.5-1.4s-2.3-2.7-1.6-4.6,1.9-2.1,4.5-2c.9-2.9,1.8-3.7,4-3.7s3.6,1.4,4,3.9l4.1-.4v19.1Z" transform="translate(-8.7 -94.9)" style="fill:#c30d23"/><path d="M266.2,303.1c-1.6,1.9-3.9,2-6,2.7s-4.3,2.4-6.5,3.7l-3.5-3.3c1.7-4.1,3.4-8.2,5.4-12.2.5-1.1,1.9-1.7,2.8-2.6l.5-.9c.4-.4.9-.7,1.1-1.1s-.2-1.3-.4-1.3a9.3,9.3,0,0,0-2.3.2v.6l1.8,1.6a5.5,5.5,0,0,1-1.5.8c-.4.1-1.1-.1-1.2-.4s.7-4.6,2.4-4.7H265a5.6,5.6,0,0,1,1.2.4v1.3a11.8,11.8,0,0,0-2.7.3c-.5.2-.9,1-1.3,1.5a7.5,7.5,0,0,0,1.6.4c1.2.1,1.8.5,1.6,1.9a3.9,3.9,0,0,0,.1,1.5c.8,2.5.1,3.4-2.5,3.2a8.4,8.4,0,0,0-6.1,2c3.8-1.8,6.2-2.1,9.3-1.1Z" transform="translate(-8.7 -94.9)" style="fill:#f8b62d"/><path d="M170.9,264.6l11.5,5.1L180,281.1h-9.1Z" transform="translate(-8.7 -94.9)" style="fill:#f8b62d"/><path d="M266.2,265a25,25,0,0,0-3.4-3.1c-2.2-1.2-4.5-2.2-6.9-3.3l9.4-6.6.9,2.9Z" transform="translate(-8.7 -94.9)" style="fill:#ea5514"/><path d="M266.2,297.6c-3.1-1-5.5-.7-9.3,1.1a8.4,8.4,0,0,1,6.1-2c2.6.2,3.3-.7,2.5-3.2a3.9,3.9,0,0,1-.1-1.5c.2-1.4-.4-1.8-1.6-1.9a7.5,7.5,0,0,1-1.6-.4c.4-.5.8-1.3,1.3-1.5a11.8,11.8,0,0,1,2.7-.3Z" transform="translate(-8.7 -94.9)" style="fill:#fff100"/><path d="M218.4,319.4a36,36,0,0,1-35.8-35.9c0-19.9,16.3-36.2,36-36a35.9,35.9,0,0,1,35.9,35.9C254.7,303.2,238.2,319.5,218.4,319.4Zm28.9-35.6a28.6,28.6,0,1,0-28.9,28.3A28.7,28.7,0,0,0,247.3,283.8Z" transform="translate(-8.7 -94.9)" style="fill:#fff"/><path d="M225.6,323.4l1.1,1.9c-3.4.9-6.2,2.3-8,5.6-1.6-3.3-4.2-4.6-7.5-5.3a5.8,5.8,0,0,1,4.5-3.6c3.1-.3,6.2-.7,9.1.9Z" transform="translate(-8.7 -94.9)" style="fill:#fff"/><path d="M225.6,323.4l-.8-.5-.9-1.1,7.8-2.3,1.1-.4c2.2-.9,2.5-.8,3.2,1.7-2.8.7-5.4,1.7-7.1,4.2-.2.3-1.2.3-1.7,0A6.1,6.1,0,0,1,225.6,323.4Z" transform="translate(-8.7 -94.9)" style="fill:#fff"/><path d="M248.3,316.7c-2.4.3-4.2.9-5.6,3.3s-3.2.8-5,1.2c.4-2.7,3-5,6.2-5.6C245.4,315.4,247.1,315,248.3,316.7Z" transform="translate(-8.7 -94.9)" style="fill:#fff"/><path d="M238.7,322.6l-8.5,2.8c.8-2.6,4.2-4,8.3-3.4Z" transform="translate(-8.7 -94.9)" style="fill:#fff"/><path d="M237.9,323.7a3.5,3.5,0,0,1-5.6,1.8Z" transform="translate(-8.7 -94.9)" style="fill:#fff"/><path d="M177.9,289l-1.4-3.4c1.8-1.5,3-.4,3.3.5s-.5,1.9-.8,2.8Z" transform="translate(-8.7 -94.9)" style="fill:#fff"/><path d="M242.9,313l3-2.8h.7c-.2.9,0,2.1-.5,2.6s-1.9.7-2.9,1Z" transform="translate(-8.7 -94.9)" style="fill:#fff"/><path d="M197.8,316.5c3.8.6,4.4,1.6,3,3.7Z" transform="translate(-8.7 -94.9)" style="fill:#fff"/><path d="M259,290.5l-1.8-1.6v-.6a9.3,9.3,0,0,1,2.3-.2c.2,0,.5.9.4,1.3s-.7.7-1.1,1.1Z" transform="translate(-8.7 -94.9)" style="fill:#e83828"/><path d="M237.9,328.6l-3.1-.5v-.7a5.8,5.8,0,0,1,2.1-.7C237.1,326.7,237.4,327.6,237.9,328.6Z" transform="translate(-8.7 -94.9)" style="fill:#fff"/><path d="M247.3,283.8a28.6,28.6,0,0,1-57.2-.3,28.6,28.6,0,1,1,57.2.3Z" transform="translate(-8.7 -94.9)" style="fill:#ea554d"/><path d="M234.4,281.3" transform="translate(-8.7 -94.9)" style="fill:none;stroke:#231815;stroke-miterlimit:10;stroke-width:2px"/><path d="M225.4,276.3" transform="translate(-8.7 -94.9)" style="fill:none;stroke:#231815;stroke-miterlimit:10;stroke-width:2px"/><path d="M233.5,271.8" transform="translate(-8.7 -94.9)" style="fill:none;stroke:#231815;stroke-miterlimit:10;stroke-width:2px"/></g><g style="clip-path:url(#clip-path-3)"><path d="M405.6,285.8v.8a3.6,3.6,0,0,0-1.1-.4h-6.4c-1.6.1-3.2,3.3-2.4,4.7a1.3,1.3,0,0,0,1.2.4,4.4,4.4,0,0,0,1.5-.8h-.1a2,2,0,0,1-.5.9c-.9.9-2.2,1.5-2.8,2.6-1.9,4-3.6,8.1-5.4,12.2l3.5,3.3c2.2-1.3,4.2-3,6.5-3.7s4.4-.8,6-2.7V312l-4,.4c-.5-2.5-1.6-3.9-4-3.9s-3.1.8-4.1,3.7c-2.6-.1-3.8.4-4.4,2s-.1,3.3,1.5,4.6.4,1.1.5,1.4a13.1,13.1,0,0,1,2.9,1.4,12.2,12.2,0,0,1,1.7,2.8l1.6-1.5,2.3,2-5.2,3.6c-1.3.9-1.8.3-2-1,1.6-.9,2.5-2.2,2-4s-2.4-2.3-4.3-2.2c-.3-2-1.3-3.5-3.5-3.5s-3.3,1.4-3.6,3.5c-1.9-.2-3.7,0-4.3,2.2s.6,3.1,1.7,3.8l.3,3.8H339.6l-.6-1.5c2.6-1.5,3.3-3.5,1.5-4.9s-5.3-3.3-8-4.9a1.9,1.9,0,0,0-1.8.2c-1.8,1.4-4.1,1.5-6,2.5a10.3,10.3,0,0,0-3,2.9,10.9,10.9,0,0,0-1.6,2.8l-2.7-4a2.9,2.9,0,0,0-.7-.8c-2.6-.2-2.8-2.6-3.8-4.2a1.5,1.5,0,0,1,0-1.3c.4-.9,5.3-1.7,6-1l3.2,2.8,2.5-2.9c-.1,0-.2-.2-.3-.3l-.3-.8h3.2v-.5l-3-1.6.3-.6a17.2,17.2,0,0,1,3.8,2c2.7,2,4.2,2,6.9-.2l-8.4-8.8a27.6,27.6,0,0,0-2.7-2.3l1.1-.4c-2.7-3.2-5.4-.5-8-.5l5.2-2.2a34.9,34.9,0,0,0-4.8-3.1,39.6,39.6,0,0,0-5.4-1.1l4.8-6.4-6.7.8v-9.7h9l2.5-11.4-11.5-5.1v-9.7l.9-3.3,14.6,10.2,8.3-8.9-10.7-15.2c-.1,0,.1-.2.4-.3,3.7-1.6,7.7-1.6,11.6-1.5a2.6,2.6,0,0,1,1.2,1.3l3.6,7.4,1.7,3.6,11.7-3.2-.5-9h10.4c-.3,2.6-.5,5.1-.6,7.6,0,.6.3,1.7.8,1.8,3.5,1.1,7.1,2,10.9,3,1.6-3.6,3.4-7.4,5.2-11.1.2-.5.7-1.3,1.1-1.3,4.4-.2,8.7-.1,12.1,1.9-3.9,5.1-7.4,10.4-11,15.7,10,8.5,14.6,19.3,14.3,32.2Zm-41.3,37.1c-2.9-1.6-6.1-1.2-9.1-.9a5.6,5.6,0,0,0-4.5,3.6c3.2.7,5.9,2,7.5,5.3,1.7-3.3,4.6-4.7,7.9-5.6l-1-1.9c.5.6.9,1.3,1.6,1.6s1.5.3,1.7,0c1.7-2.5,4.3-3.5,7-4.2-.6-2.5-.9-2.6-3.1-1.7l-1.2.4-7.7,2.3Zm-6.5-3.5a36,36,0,1,0,.2-71.9c-19.6-.2-36,16.1-36,36A36,36,0,0,0,357.8,319.4Zm30-2.7c-1.2-1.7-2.9-1.3-4.5-1.1a7.5,7.5,0,0,0-6.2,5.6c1.9-.4,4.5-.2,5.1-1.2S385.3,317,387.8,316.7Zm-9.7,5.9-.2-.6c-4.1-.6-7.5.8-8.2,3.4Zm-.8,1.1-5.6,1.8A3.5,3.5,0,0,0,377.3,323.7ZM317.4,289h1c.3-.9,1.2-2.1.9-2.8s-1.5-2-3.3-.5Zm65,24,.2.9c1-.3,2.2-.3,2.9-1s.4-1.7.5-2.6h-.6Zm-45.1,3.5,3,3.7C341.7,318.1,341,317.1,337.3,316.5Zm40.1,12.1c-.6-1-.9-1.9-1.2-1.9a5.8,5.8,0,0,0-2.1.7v.7Z" transform="translate(-8.7 -94.9)" style="fill:#00a0e9"/><path d="M405.6,285.8h-9.2c.3-12.9-4.3-23.7-14.3-32.2,3.6-5.3,7.1-10.6,11-15.7-3.4-2-7.7-2.1-12.1-1.9-.4,0-.9.8-1.1,1.3-1.8,3.7-3.6,7.5-5.2,11.1-3.8-1-7.4-1.9-10.9-3-.5-.1-.8-1.2-.8-1.8.1-2.5.3-5,.6-7.6H353.2l.5,9L342,248.2l-1.7-3.6-3.6-7.4a2.6,2.6,0,0,0-1.2-1.3c-3.9-.1-7.9-.1-11.6,1.5-.3.1-.5.3-.4.3l10.7,15.2-8.3,8.9-14.6-10.2-.9,3.3V235.4h95.2v19.5l-.9-2.9-9.3,6.6c2.3,1.1,4.7,2.1,6.9,3.3a31.9,31.9,0,0,1,3.3,3.1Z" transform="translate(-8.7 -94.9)" style="fill:#f8b62d"/><path d="M310.4,290.8l6.7-.8-4.8,6.4a39.6,39.6,0,0,1,5.4,1.1,34.9,34.9,0,0,1,4.8,3.1l-5.2,2.2c2.6,0,5.3-2.7,8,.5l-1.1.4a27.6,27.6,0,0,1,2.7,2.3l8.4,8.8c-2.7,2.2-4.2,2.2-6.9.2a17.2,17.2,0,0,0-3.8-2l-.3.6,3,1.6v.5H324l.3.8c.1.1.2.3.3.3l-2.5,2.9-3.2-2.8c-.7-.7-5.6.1-6,1a1.5,1.5,0,0,0,0,1.3c1,1.6,1.2,4,3.8,4.2a2.9,2.9,0,0,1,.7.8l2.7,4a10.9,10.9,0,0,1,1.6-2.8,10.3,10.3,0,0,1,3-2.9c1.9-1,4.2-1.1,6-2.5a1.9,1.9,0,0,1,1.8-.2c2.7,1.6,5.5,3.1,8,4.9s1.1,3.4-1.5,4.9l.6,1.5H310.4Z" transform="translate(-8.7 -94.9)" style="fill:#9cd7f1"/><path d="M380.7,331.1l-.3-3.8c-1.1-.7-2.3-1.9-1.7-3.8s2.4-2.4,4.3-2.2c.3-2.1,1.4-3.5,3.6-3.5s3.2,1.5,3.5,3.5c1.9-.1,3.7,0,4.3,2.2s-.4,3.1-2,4c.2,1.3.7,1.9,2,1l5.2-3.6-2.3-2-1.6,1.5a12.2,12.2,0,0,0-1.7-2.8,13.1,13.1,0,0,0-2.9-1.4c-.1-.3-.1-1.1-.5-1.4s-2.3-2.7-1.5-4.6,1.8-2.1,4.4-2c1-2.9,1.9-3.7,4.1-3.7s3.5,1.4,4,3.9l4-.4v19.1Z" transform="translate(-8.7 -94.9)" style="fill:#c30d23"/><path d="M405.6,303.1c-1.6,1.9-3.8,2-6,2.7s-4.3,2.4-6.5,3.7l-3.5-3.3c1.8-4.1,3.5-8.2,5.4-12.2.6-1.1,1.9-1.7,2.8-2.6a2,2,0,0,0,.5-.9c.4-.4,1-.7,1.1-1.1a2.1,2.1,0,0,0-.3-1.3,8.6,8.6,0,0,0-2.3.2v.6l1.7,1.6a4.4,4.4,0,0,1-1.5.8,1.3,1.3,0,0,1-1.2-.4c-.8-1.4.8-4.6,2.4-4.7h6.4a3.6,3.6,0,0,1,1.1.4v1.3a10.9,10.9,0,0,0-2.6.3c-.6.2-.9,1-1.4,1.5a12.4,12.4,0,0,0,1.6.4c1.3.1,1.8.5,1.6,1.9a2.7,2.7,0,0,0,.2,1.5c.7,2.5.1,3.4-2.6,3.2a8.1,8.1,0,0,0-6,2c3.8-1.8,6.2-2.1,9.2-1.1Z" transform="translate(-8.7 -94.9)" style="fill:#f8b62d"/><path d="M310.4,264.6l11.5,5.1-2.5,11.4h-9Z" transform="translate(-8.7 -94.9)" style="fill:#f8b62d"/><path d="M405.6,265a31.9,31.9,0,0,0-3.3-3.1c-2.2-1.2-4.6-2.2-6.9-3.3l9.3-6.6.9,2.9Z" transform="translate(-8.7 -94.9)" style="fill:#ea5514"/><path d="M405.6,297.6c-3-1-5.4-.7-9.2,1.1a8.1,8.1,0,0,1,6-2c2.7.2,3.3-.7,2.6-3.2a2.7,2.7,0,0,1-.2-1.5c.2-1.4-.3-1.8-1.6-1.9a12.4,12.4,0,0,1-1.6-.4c.5-.5.8-1.3,1.4-1.5a10.9,10.9,0,0,1,2.6-.3Z" transform="translate(-8.7 -94.9)" style="fill:#fff100"/><path d="M357.8,319.4A36,36,0,0,1,322,283.5c0-19.9,16.4-36.2,36-36a36,36,0,1,1-.2,71.9Zm28.9-35.6a28.6,28.6,0,1,0-28.8,28.3A28.6,28.6,0,0,0,386.7,283.8Z" transform="translate(-8.7 -94.9)" style="fill:#fff"/><path d="M365.1,323.4l1,1.9c-3.3.9-6.2,2.3-7.9,5.6-1.6-3.3-4.3-4.6-7.5-5.3a5.6,5.6,0,0,1,4.5-3.6c3-.3,6.2-.7,9.1.9Z" transform="translate(-8.7 -94.9)" style="fill:#fff"/><path d="M365.1,323.4l-.8-.5-.9-1.1,7.7-2.3,1.2-.4c2.2-.9,2.5-.8,3.1,1.7-2.7.7-5.3,1.7-7,4.2-.2.3-1.3.3-1.7,0S365.6,324,365.1,323.4Z" transform="translate(-8.7 -94.9)" style="fill:#fff"/><path d="M387.8,316.7c-2.5.3-4.3.9-5.6,3.3s-3.2.8-5.1,1.2a7.5,7.5,0,0,1,6.2-5.6C384.9,315.4,386.6,315,387.8,316.7Z" transform="translate(-8.7 -94.9)" style="fill:#fff"/><path d="M378.1,322.6l-8.4,2.8c.7-2.6,4.1-4,8.2-3.4Z" transform="translate(-8.7 -94.9)" style="fill:#fff"/><path d="M377.3,323.7a3.5,3.5,0,0,1-5.6,1.8Z" transform="translate(-8.7 -94.9)" style="fill:#fff"/><path d="M317.4,289l-1.4-3.4c1.8-1.5,2.9-.4,3.3.5s-.6,1.9-.9,2.8Z" transform="translate(-8.7 -94.9)" style="fill:#fff"/><path d="M382.4,313l3-2.8h.6c-.1.9.1,2.1-.5,2.6s-1.9.7-2.9,1Z" transform="translate(-8.7 -94.9)" style="fill:#fff"/><path d="M337.3,316.5c3.7.6,4.4,1.6,3,3.7Z" transform="translate(-8.7 -94.9)" style="fill:#fff"/><path d="M398.4,290.5l-1.7-1.6v-.6a8.6,8.6,0,0,1,2.3-.2,2.1,2.1,0,0,1,.3,1.3c-.1.4-.7.7-1.1,1.1Z" transform="translate(-8.7 -94.9)" style="fill:#e83828"/><path d="M377.4,328.6l-3.2-.5v-.7a5.8,5.8,0,0,1,2.1-.7C376.5,326.7,376.8,327.6,377.4,328.6Z" transform="translate(-8.7 -94.9)" style="fill:#fff"/><path d="M386.7,283.8a28.6,28.6,0,0,1-57.1-.3,28.6,28.6,0,1,1,57.1.3Z" transform="translate(-8.7 -94.9)" style="fill:#ea554d"/><path d="M373.9,281.3" transform="translate(-8.7 -94.9)" style="fill:none;stroke:#231815;stroke-miterlimit:10;stroke-width:2px"/><path d="M364.9,276.3" transform="translate(-8.7 -94.9)" style="fill:none;stroke:#231815;stroke-miterlimit:10;stroke-width:2px"/><path d="M372.9,271.8" transform="translate(-8.7 -94.9)" style="fill:none;stroke:#231815;stroke-miterlimit:10;stroke-width:2px"/></g><g style="clip-path:url(#clip-path-4)"><path d="M542.8,285.8v.8a5.6,5.6,0,0,0-1.2-.4h-6.4c-1.6.1-3.2,3.3-2.4,4.7a1.5,1.5,0,0,0,1.3.4,5,5,0,0,0,1.4-.8h-.1a3.6,3.6,0,0,1-.4.9c-1,.9-2.3,1.5-2.8,2.6-2,4-3.7,8.1-5.5,12.2l3.5,3.3c2.3-1.3,4.3-3,6.6-3.7s4.4-.8,6-2.7V312l-4.1.4c-.4-2.5-1.6-3.9-4-3.9s-3.1.8-4.1,3.7c-2.6-.1-3.8.4-4.4,2s0,3.3,1.5,4.6.4,1.1.6,1.4a14.6,14.6,0,0,1,2.8,1.4,9.5,9.5,0,0,1,1.7,2.8l1.6-1.5,2.3,2-5.2,3.6c-1.3.9-1.8.3-2-1,1.7-.9,2.5-2.2,2-4s-2.3-2.3-4.3-2.2c-.3-2-1.3-3.5-3.5-3.5s-3.3,1.4-3.6,3.5c-1.9-.2-3.7,0-4.3,2.2a3.3,3.3,0,0,0,1.7,3.8l.3,3.8H476.7l-.6-1.5c2.6-1.5,3.3-3.5,1.5-4.9s-5.3-3.3-8-4.9a1.9,1.9,0,0,0-1.8.2c-1.8,1.4-4.1,1.5-6,2.5a10.3,10.3,0,0,0-3,2.9,24.5,24.5,0,0,0-1.6,2.8l-2.7-4c-.2-.3-.4-.7-.7-.8-2.6-.2-2.8-2.6-3.8-4.2a1.5,1.5,0,0,1,0-1.3c.4-.9,5.3-1.7,6-1l3.2,2.8,2.5-2.9-.3-.3-.3-.8h3.2v-.5l-3-1.6.4-.6a19,19,0,0,1,3.7,2c2.7,2,4.2,2,6.9-.2L464,306a19.4,19.4,0,0,0-2.7-2.3l1.1-.4c-2.7-3.2-5.4-.5-8-.5l5.3-2.2a42.6,42.6,0,0,0-4.9-3.1,36.7,36.7,0,0,0-5.4-1.1l4.9-6.4-6.8.8v-9.7h9l2.5-11.4-11.5-5.1v-9.7l.9-3.3,14.7,10.2,8.2-8.9-10.7-15.2a.7.7,0,0,1,.4-.3c3.7-1.6,7.7-1.6,11.6-1.5.5.1,1,.8,1.2,1.3l3.6,7.4,1.7,3.6,11.7-3.2-.5-9h10.4c-.2,2.6-.5,5.1-.6,7.6,0,.6.4,1.7.8,1.8,3.5,1.1,7.1,2,10.9,3,1.7-3.6,3.4-7.4,5.2-11.1.3-.5.7-1.3,1.1-1.3,4.4-.2,8.7-.1,12.2,1.9-4,5.1-7.4,10.4-11.1,15.7,10,8.5,14.6,19.3,14.3,32.2Zm-41.4,37.1c-2.9-1.6-6.1-1.2-9.1-.9a5.8,5.8,0,0,0-4.5,3.6c3.2.7,5.9,2,7.5,5.3,1.7-3.3,4.6-4.7,8-5.6l-1.1-1.9c.5.6.9,1.3,1.6,1.6s1.5.3,1.7,0c1.7-2.5,4.3-3.5,7-4.2-.6-2.5-.9-2.6-3.1-1.7l-1.2.4-7.7,2.3Zm-6.5-3.5a36,36,0,1,0,.3-71.9c-19.7-.2-36.1,16.1-36.1,36A36.1,36.1,0,0,0,494.9,319.4Zm30-2.7c-1.2-1.7-2.9-1.3-4.5-1.1-3.2.6-5.7,2.9-6.1,5.6,1.8-.4,4.4-.2,5-1.2S522.4,317,524.9,316.7Zm-9.7,5.9-.2-.6c-4.1-.6-7.5.8-8.2,3.4Zm-.8,1.1-5.6,1.8A3.5,3.5,0,0,0,514.4,323.7ZM454.5,289h1c.4-.9,1.2-2.1.9-2.8s-1.5-2-3.3-.5Zm65,24,.2.9c1-.3,2.3-.3,3-1s.3-1.7.4-2.6h-.6Zm-45.1,3.5,3,3.7C478.8,318.1,478.1,317.1,474.4,316.5Zm40.1,12.1c-.6-1-.8-1.9-1.2-1.9a5.8,5.8,0,0,0-2.1.7v.7Z" transform="translate(-8.7 -94.9)" style="fill:#00a0e9"/><path d="M542.8,285.8h-9.3c.3-12.9-4.3-23.7-14.3-32.2,3.7-5.3,7.1-10.6,11.1-15.7-3.5-2-7.8-2.1-12.2-1.9-.4,0-.8.8-1.1,1.3-1.8,3.7-3.5,7.5-5.2,11.1-3.8-1-7.4-1.9-10.9-3-.4-.1-.8-1.2-.8-1.8.1-2.5.4-5,.6-7.6H490.3l.5,9-11.7,3.2-1.7-3.6-3.6-7.4c-.2-.5-.7-1.2-1.2-1.3-3.9-.1-7.9-.1-11.6,1.5a.7.7,0,0,0-.4.3l10.7,15.2-8.2,8.9-14.7-10.2-.9,3.3V235.4h95.3v19.5l-.9-2.9-9.4,6.6c2.4,1.1,4.7,2.1,6.9,3.3s2.2,2.1,3.4,3.1Z" transform="translate(-8.7 -94.9)" style="fill:#f8b62d"/><path d="M447.5,290.8l6.8-.8-4.9,6.4a36.7,36.7,0,0,1,5.4,1.1,42.6,42.6,0,0,1,4.9,3.1l-5.3,2.2c2.6,0,5.3-2.7,8,.5l-1.1.4A19.4,19.4,0,0,1,464,306l8.4,8.8c-2.7,2.2-4.2,2.2-6.9.2a19,19,0,0,0-3.7-2l-.4.6,3,1.6v.5h-3.2l.3.8.3.3-2.5,2.9-3.2-2.8c-.7-.7-5.6.1-6,1a1.5,1.5,0,0,0,0,1.3c1,1.6,1.2,4,3.8,4.2.3.1.5.5.7.8l2.7,4a24.5,24.5,0,0,1,1.6-2.8,10.3,10.3,0,0,1,3-2.9c1.9-1,4.2-1.1,6-2.5a1.9,1.9,0,0,1,1.8-.2c2.7,1.6,5.5,3.1,8,4.9s1.1,3.4-1.5,4.9l.6,1.5H447.5Z" transform="translate(-8.7 -94.9)" style="fill:#9cd7f1"/><path d="M517.8,331.1l-.3-3.8a3.3,3.3,0,0,1-1.7-3.8c.6-2.2,2.4-2.4,4.3-2.2.3-2.1,1.4-3.5,3.6-3.5s3.2,1.5,3.5,3.5c2-.1,3.7,0,4.3,2.2s-.3,3.1-2,4c.2,1.3.7,1.9,2,1l5.2-3.6-2.3-2-1.6,1.5a9.5,9.5,0,0,0-1.7-2.8,14.6,14.6,0,0,0-2.8-1.4c-.2-.3-.2-1.1-.6-1.4s-2.2-2.7-1.5-4.6,1.8-2.1,4.4-2c1-2.9,1.9-3.7,4.1-3.7s3.6,1.4,4,3.9l4.1-.4v19.1Z" transform="translate(-8.7 -94.9)" style="fill:#c30d23"/><path d="M542.8,303.1c-1.6,1.9-3.9,2-6,2.7s-4.3,2.4-6.6,3.7l-3.5-3.3c1.8-4.1,3.5-8.2,5.5-12.2.5-1.1,1.8-1.7,2.8-2.6a3.6,3.6,0,0,0,.4-.9c.4-.4,1-.7,1.1-1.1a1.6,1.6,0,0,0-.3-1.3,8.6,8.6,0,0,0-2.3.2v.6l1.7,1.6a5,5,0,0,1-1.4.8,1.5,1.5,0,0,1-1.3-.4c-.8-1.4.8-4.6,2.4-4.7h6.4a5.6,5.6,0,0,1,1.2.4v1.3a11.8,11.8,0,0,0-2.7.3c-.6.2-.9,1-1.4,1.5a12.4,12.4,0,0,0,1.6.4c1.3.1,1.9.5,1.6,1.9a2.7,2.7,0,0,0,.2,1.5c.8,2.5.1,3.4-2.6,3.2a8.1,8.1,0,0,0-6,2c3.8-1.8,6.2-2.1,9.3-1.1Z" transform="translate(-8.7 -94.9)" style="fill:#f8b62d"/><path d="M447.5,264.6l11.5,5.1-2.5,11.4h-9Z" transform="translate(-8.7 -94.9)" style="fill:#f8b62d"/><path d="M542.8,265c-1.2-1-2.1-2.3-3.4-3.1s-4.5-2.2-6.9-3.3l9.4-6.6.9,2.9Z" transform="translate(-8.7 -94.9)" style="fill:#ea5514"/><path d="M542.8,297.6c-3.1-1-5.5-.7-9.3,1.1a8.1,8.1,0,0,1,6-2c2.7.2,3.4-.7,2.6-3.2a2.7,2.7,0,0,1-.2-1.5c.3-1.4-.3-1.8-1.6-1.9a12.4,12.4,0,0,1-1.6-.4c.5-.5.8-1.3,1.4-1.5a11.8,11.8,0,0,1,2.7-.3Z" transform="translate(-8.7 -94.9)" style="fill:#fff100"/><path d="M494.9,319.4a36.1,36.1,0,0,1-35.8-35.9c0-19.9,16.4-36.2,36.1-36a36,36,0,1,1-.3,71.9Zm28.9-35.6A28.6,28.6,0,0,0,495.3,255c-15.5-.1-28.6,13-28.6,28.5a28.6,28.6,0,0,0,57.1.3Z" transform="translate(-8.7 -94.9)" style="fill:#fff"/><path d="M502.2,323.4l1.1,1.9c-3.4.9-6.3,2.3-8,5.6-1.6-3.3-4.3-4.6-7.5-5.3a5.8,5.8,0,0,1,4.5-3.6c3-.3,6.2-.7,9.1.9Z" transform="translate(-8.7 -94.9)" style="fill:#fff"/><path d="M502.2,323.4l-.8-.5-.9-1.1,7.7-2.3,1.2-.4c2.2-.9,2.5-.8,3.1,1.7-2.7.7-5.3,1.7-7,4.2-.2.3-1.3.3-1.7,0S502.7,324,502.2,323.4Z" transform="translate(-8.7 -94.9)" style="fill:#fff"/><path d="M524.9,316.7c-2.5.3-4.2.9-5.6,3.3s-3.2.8-5,1.2c.4-2.7,2.9-5,6.1-5.6C522,315.4,523.7,315,524.9,316.7Z" transform="translate(-8.7 -94.9)" style="fill:#fff"/><path d="M515.2,322.6l-8.4,2.8c.7-2.6,4.1-4,8.2-3.4Z" transform="translate(-8.7 -94.9)" style="fill:#fff"/><path d="M514.4,323.7a3.5,3.5,0,0,1-5.6,1.8Z" transform="translate(-8.7 -94.9)" style="fill:#fff"/><path d="M454.5,289l-1.4-3.4c1.8-1.5,2.9-.4,3.3.5s-.5,1.9-.9,2.8Z" transform="translate(-8.7 -94.9)" style="fill:#fff"/><path d="M519.5,313l3-2.8h.6c-.1.9.1,2.1-.4,2.6s-2,.7-3,1Z" transform="translate(-8.7 -94.9)" style="fill:#fff"/><path d="M474.4,316.5c3.7.6,4.4,1.6,3,3.7Z" transform="translate(-8.7 -94.9)" style="fill:#fff"/><path d="M535.5,290.5l-1.7-1.6v-.6a8.6,8.6,0,0,1,2.3-.2,1.6,1.6,0,0,1,.3,1.3c-.1.4-.7.7-1.1,1.1Z" transform="translate(-8.7 -94.9)" style="fill:#e83828"/><path d="M514.5,328.6l-3.2-.5v-.7a5.8,5.8,0,0,1,2.1-.7C513.7,326.7,513.9,327.6,514.5,328.6Z" transform="translate(-8.7 -94.9)" style="fill:#fff"/><path d="M523.8,283.8a28.6,28.6,0,0,1-57.1-.3c0-15.5,13.1-28.6,28.6-28.5A28.6,28.6,0,0,1,523.8,283.8Z" transform="translate(-8.7 -94.9)" style="fill:#ea554d"/><path d="M511,281.3" transform="translate(-8.7 -94.9)" style="fill:none;stroke:#231815;stroke-miterlimit:10;stroke-width:2px"/><path d="M502,276.3" transform="translate(-8.7 -94.9)" style="fill:none;stroke:#231815;stroke-miterlimit:10;stroke-width:2px"/><path d="M510.1,271.8" transform="translate(-8.7 -94.9)" style="fill:none;stroke:#231815;stroke-miterlimit:10;stroke-width:2px"/></g><g style="clip-path:url(#clip-path-5)"><path d="M675.4,285.8v.8a5.6,5.6,0,0,0-1.2-.4h-6.3c-1.6.1-3.2,3.3-2.4,4.7s.8.5,1.2.4a5.5,5.5,0,0,0,1.5-.8h-.1l-.5.9c-.9.9-2.3,1.5-2.8,2.6-1.9,4-3.6,8.1-5.4,12.2l3.5,3.3c2.2-1.3,4.2-3,6.5-3.7s4.4-.8,6-2.7V312l-4,.4c-.5-2.5-1.6-3.9-4-3.9s-3.1.8-4.1,3.7c-2.6-.1-3.8.4-4.4,2s-.1,3.3,1.5,4.6.4,1.1.5,1.4a13.1,13.1,0,0,1,2.9,1.4,12.2,12.2,0,0,1,1.7,2.8l1.6-1.5,2.2,2-5.1,3.6c-1.4.9-1.9.3-2-1,1.6-.9,2.5-2.2,2-4s-2.4-2.3-4.3-2.2c-.4-2-1.3-3.5-3.6-3.5s-3.2,1.4-3.5,3.5c-2-.2-3.7,0-4.3,2.2a3.1,3.1,0,0,0,1.7,3.8l.2,3.8H609.3l-.5-1.5c2.6-1.5,3.3-3.5,1.5-4.9a91.6,91.6,0,0,0-8.1-4.9,1.9,1.9,0,0,0-1.8.2c-1.8,1.4-4.1,1.5-6,2.5a11.4,11.4,0,0,0-2.9,2.9,14.2,14.2,0,0,0-1.7,2.8c-1-1.6-1.9-2.8-2.7-4s-.4-.7-.6-.8c-2.6-.2-2.8-2.6-3.9-4.2a1.5,1.5,0,0,1,0-1.3c.5-.9,5.4-1.7,6.1-1l3.1,2.8,2.6-2.9c-.1,0-.2-.2-.3-.3l-.3-.8H597v-.5l-3-1.6.3-.6a17.2,17.2,0,0,1,3.8,2c2.7,2,4.2,2,6.8-.2l-8.3-8.8c-.9-.9-1.9-1.6-2.7-2.3l1-.4c-2.7-3.2-5.3-.5-8-.5l5.3-2.2a42.2,42.2,0,0,0-4.8-3.1,38.2,38.2,0,0,0-5.5-1.1l4.9-6.4-6.8.8v-9.7h9.1l2.4-11.4-11.5-5.1v-9.7l1-3.3,14.6,10.2,8.3-8.9-10.7-15.2.3-.3c3.8-1.6,7.7-1.6,11.7-1.5.4.1.9.8,1.2,1.3,1.2,2.4,2.3,4.9,3.5,7.4s1.3,2.6,1.8,3.6l11.7-3.2-.6-9h10.4c-.2,2.6-.5,5.1-.6,7.6,0,.6.4,1.7.8,1.8,3.6,1.1,7.2,2,10.9,3l5.3-11.1c.2-.5.7-1.3,1.1-1.3,4.3-.2,8.7-.1,12.1,1.9-4,5.1-7.4,10.4-11.1,15.7,10.1,8.5,14.7,19.3,14.4,32.2ZM634,322.9c-2.9-1.6-6-1.2-9.1-.9a5.6,5.6,0,0,0-4.4,3.6c3.2.7,5.8,2,7.5,5.3,1.7-3.3,4.5-4.7,7.9-5.6l-1.1-1.9c.6.6,1,1.3,1.6,1.6s1.5.3,1.7,0c1.8-2.5,4.3-3.5,7.1-4.2-.7-2.5-1-2.6-3.1-1.7l-1.2.4-7.8,2.3Zm-6.4-3.5c19.8.1,36.3-16.2,36.2-36a36.1,36.1,0,0,0-36-35.9c-19.7-.2-36,16.1-36,36A36,36,0,0,0,627.6,319.4Zm29.9-2.7c-1.2-1.7-2.9-1.3-4.4-1.1-3.2.6-5.8,2.9-6.2,5.6,1.9-.4,4.5-.2,5.1-1.2S655.1,317,657.5,316.7Zm-9.6,5.9-.2-.6c-4.1-.6-7.5.8-8.3,3.4Zm-.8,1.1-5.6,1.8A3.5,3.5,0,0,0,647.1,323.7ZM587.2,289h1c.3-.9,1.2-2.1.9-2.8s-1.6-2-3.3-.5Zm64.9,24,.3.9c1-.3,2.2-.3,2.9-1s.3-1.7.5-2.6h-.6ZM607,316.5l3.1,3.7C611.5,318.1,610.8,317.1,607,316.5Zm40.2,12.1c-.6-1-.9-1.9-1.2-1.9a5.8,5.8,0,0,0-2.1.7v.7Z" transform="translate(-8.7 -94.9)" style="fill:#00a0e9"/><path d="M675.4,285.8h-9.2c.3-12.9-4.3-23.7-14.4-32.2,3.7-5.3,7.1-10.6,11.1-15.7-3.4-2-7.8-2.1-12.1-1.9-.4,0-.9.8-1.1,1.3l-5.3,11.1c-3.7-1-7.3-1.9-10.9-3-.4-.1-.8-1.2-.8-1.8.1-2.5.4-5,.6-7.6H622.9l.6,9-11.7,3.2c-.5-1-1.1-2.3-1.8-3.6s-2.3-5-3.5-7.4c-.3-.5-.8-1.2-1.2-1.3-4-.1-7.9-.1-11.7,1.5l-.3.3L604,252.9l-8.3,8.9-14.6-10.2-1,3.3V235.4h95.3v19.5l-.9-2.9-9.4,6.6c2.4,1.1,4.8,2.1,6.9,3.3a25,25,0,0,1,3.4,3.1Z" transform="translate(-8.7 -94.9)" style="fill:#f8b62d"/><path d="M580.1,290.8l6.8-.8-4.9,6.4a38.2,38.2,0,0,1,5.5,1.1,42.2,42.2,0,0,1,4.8,3.1l-5.3,2.2c2.7,0,5.3-2.7,8,.5l-1,.4c.8.7,1.8,1.4,2.7,2.3l8.3,8.8c-2.6,2.2-4.1,2.2-6.8.2a17.2,17.2,0,0,0-3.8-2l-.3.6,3,1.6v.5h-3.2l.3.8c.1.1.2.3.3.3l-2.6,2.9-3.1-2.8c-.7-.7-5.6.1-6.1,1a1.5,1.5,0,0,0,0,1.3c1.1,1.6,1.3,4,3.9,4.2.2.1.4.5.6.8s1.7,2.4,2.7,4a14.2,14.2,0,0,1,1.7-2.8,11.4,11.4,0,0,1,2.9-2.9c1.9-1,4.2-1.1,6-2.5a1.9,1.9,0,0,1,1.8-.2,91.6,91.6,0,0,1,8.1,4.9c1.8,1.4,1.1,3.4-1.5,4.9l.5,1.5H580.1Z" transform="translate(-8.7 -94.9)" style="fill:#9cd7f1"/><path d="M650.4,331.1l-.2-3.8a3.1,3.1,0,0,1-1.7-3.8c.6-2.2,2.3-2.4,4.3-2.2.3-2.1,1.3-3.5,3.5-3.5s3.2,1.5,3.6,3.5c1.9-.1,3.7,0,4.3,2.2s-.4,3.1-2,4c.1,1.3.6,1.9,2,1l5.1-3.6-2.2-2-1.6,1.5a12.2,12.2,0,0,0-1.7-2.8,13.1,13.1,0,0,0-2.9-1.4c-.1-.3-.1-1.1-.5-1.4s-2.3-2.7-1.5-4.6,1.8-2.1,4.4-2c1-2.9,1.9-3.7,4.1-3.7s3.5,1.4,4,3.9l4-.4v19.1Z" transform="translate(-8.7 -94.9)" style="fill:#c30d23"/><path d="M675.4,303.1c-1.6,1.9-3.8,2-6,2.7s-4.3,2.4-6.5,3.7l-3.5-3.3c1.8-4.1,3.5-8.2,5.4-12.2.5-1.1,1.9-1.7,2.8-2.6l.5-.9c.4-.4.9-.7,1.1-1.1s-.2-1.3-.4-1.3a9.3,9.3,0,0,0-2.3.2v.6l1.8,1.6a5.5,5.5,0,0,1-1.5.8c-.4.1-1.1-.1-1.2-.4s.8-4.6,2.4-4.7h6.3a5.6,5.6,0,0,1,1.2.4v1.3a11.8,11.8,0,0,0-2.7.3c-.5.2-.9,1-1.3,1.5a7.5,7.5,0,0,0,1.6.4c1.2.1,1.8.5,1.6,1.9a3.9,3.9,0,0,0,.1,1.5c.8,2.5.2,3.4-2.5,3.2a8,8,0,0,0-6,2c3.8-1.8,6.1-2.1,9.2-1.1Z" transform="translate(-8.7 -94.9)" style="fill:#f8b62d"/><path d="M580.1,264.6l11.5,5.1-2.4,11.4h-9.1Z" transform="translate(-8.7 -94.9)" style="fill:#f8b62d"/><path d="M675.4,265a25,25,0,0,0-3.4-3.1c-2.1-1.2-4.5-2.2-6.9-3.3l9.4-6.6.9,2.9Z" transform="translate(-8.7 -94.9)" style="fill:#ea5514"/><path d="M675.4,297.6c-3.1-1-5.4-.7-9.2,1.1a8,8,0,0,1,6-2c2.7.2,3.3-.7,2.5-3.2a3.9,3.9,0,0,1-.1-1.5c.2-1.4-.4-1.8-1.6-1.9a7.5,7.5,0,0,1-1.6-.4c.4-.5.8-1.3,1.3-1.5a11.8,11.8,0,0,1,2.7-.3Z" transform="translate(-8.7 -94.9)" style="fill:#fff100"/><path d="M627.6,319.4a36,36,0,0,1-35.8-35.9c0-19.9,16.3-36.2,36-36a36.1,36.1,0,0,1,36,35.9C663.9,303.2,647.4,319.5,627.6,319.4Zm28.9-35.6a28.6,28.6,0,1,0-28.9,28.3A28.6,28.6,0,0,0,656.5,283.8Z" transform="translate(-8.7 -94.9)" style="fill:#fff"/><path d="M634.8,323.4l1.1,1.9c-3.4.9-6.2,2.3-7.9,5.6-1.7-3.3-4.3-4.6-7.5-5.3a5.6,5.6,0,0,1,4.4-3.6c3.1-.3,6.2-.7,9.1.9Z" transform="translate(-8.7 -94.9)" style="fill:#fff"/><path d="M634.8,323.4l-.8-.5-.9-1.1,7.8-2.3,1.2-.4c2.1-.9,2.4-.8,3.1,1.7-2.8.7-5.3,1.7-7.1,4.2-.2.3-1.2.3-1.7,0S635.4,324,634.8,323.4Z" transform="translate(-8.7 -94.9)" style="fill:#fff"/><path d="M657.5,316.7c-2.4.3-4.2.9-5.5,3.3s-3.2.8-5.1,1.2c.4-2.7,3-5,6.2-5.6C654.6,315.4,656.3,315,657.5,316.7Z" transform="translate(-8.7 -94.9)" style="fill:#fff"/><path d="M647.9,322.6l-8.5,2.8c.8-2.6,4.2-4,8.3-3.4Z" transform="translate(-8.7 -94.9)" style="fill:#fff"/><path d="M647.1,323.7a3.5,3.5,0,0,1-5.6,1.8Z" transform="translate(-8.7 -94.9)" style="fill:#fff"/><path d="M587.2,289l-1.4-3.4c1.7-1.5,2.9-.4,3.3.5s-.6,1.9-.9,2.8Z" transform="translate(-8.7 -94.9)" style="fill:#fff"/><path d="M652.1,313l3.1-2.8h.6c-.2.9,0,2.1-.5,2.6s-1.9.7-2.9,1Z" transform="translate(-8.7 -94.9)" style="fill:#fff"/><path d="M607,316.5c3.8.6,4.5,1.6,3.1,3.7Z" transform="translate(-8.7 -94.9)" style="fill:#fff"/><path d="M668.2,290.5l-1.8-1.6v-.6a9.3,9.3,0,0,1,2.3-.2c.2,0,.5.9.4,1.3s-.7.7-1.1,1.1Z" transform="translate(-8.7 -94.9)" style="fill:#e83828"/><path d="M647.2,328.6l-3.2-.5v-.7a5.8,5.8,0,0,1,2.1-.7C646.3,326.7,646.6,327.6,647.2,328.6Z" transform="translate(-8.7 -94.9)" style="fill:#fff"/><path d="M656.5,283.8a28.6,28.6,0,0,1-57.1-.3,28.6,28.6,0,1,1,57.1.3Z" transform="translate(-8.7 -94.9)" style="fill:#ea554d"/><path d="M643.7,281.3" transform="translate(-8.7 -94.9)" style="fill:none;stroke:#231815;stroke-miterlimit:10;stroke-width:2px"/><path d="M634.6,276.3" transform="translate(-8.7 -94.9)" style="fill:none;stroke:#231815;stroke-miterlimit:10;stroke-width:2px"/><path d="M642.7,271.8" transform="translate(-8.7 -94.9)" style="fill:none;stroke:#231815;stroke-miterlimit:10;stroke-width:2px"/></g><g style="clip-path:url(#clip-path-6)"><path d="M803.6,285.8v.8a5.6,5.6,0,0,0-1.2-.4H796c-1.6.1-3.2,3.3-2.4,4.7a1.4,1.4,0,0,0,1.2.4,4.4,4.4,0,0,0,1.5-.8h-.1a3.6,3.6,0,0,1-.4.9c-1,.9-2.3,1.5-2.8,2.6-2,4-3.7,8.1-5.5,12.2l3.5,3.3c2.3-1.3,4.3-3,6.6-3.7s4.4-.8,6-2.7V312l-4.1.4c-.5-2.5-1.6-3.9-4-3.9s-3.1.8-4.1,3.7c-2.6-.1-3.8.4-4.4,2s0,3.3,1.5,4.6.4,1.1.6,1.4a14.6,14.6,0,0,1,2.8,1.4,9.5,9.5,0,0,1,1.7,2.8l1.6-1.5,2.3,2-5.2,3.6c-1.3.9-1.8.3-2-1,1.7-.9,2.5-2.2,2-4s-2.3-2.3-4.3-2.2c-.3-2-1.3-3.5-3.5-3.5s-3.3,1.4-3.6,3.5c-1.9-.2-3.7,0-4.3,2.2a3.3,3.3,0,0,0,1.7,3.8l.3,3.8H737.5l-.6-1.5c2.6-1.5,3.3-3.5,1.5-4.9s-5.3-3.3-8-4.9a1.9,1.9,0,0,0-1.8.2c-1.8,1.4-4.1,1.5-6,2.5a10.3,10.3,0,0,0-3,2.9,24.5,24.5,0,0,0-1.6,2.8l-2.7-4c-.2-.3-.4-.7-.7-.8-2.6-.2-2.8-2.6-3.8-4.2a1.5,1.5,0,0,1,0-1.3c.4-.9,5.3-1.7,6-1l3.2,2.8,2.5-2.9c-.1,0-.2-.2-.3-.3l-.3-.8h3.2v-.5l-3-1.6.4-.6a19,19,0,0,1,3.7,2c2.7,2,4.2,2,6.9-.2l-8.4-8.8a19.4,19.4,0,0,0-2.7-2.3l1.1-.4c-2.7-3.2-5.4-.5-8-.5l5.3-2.2a42.6,42.6,0,0,0-4.9-3.1,36.7,36.7,0,0,0-5.4-1.1l4.9-6.4-6.8.8v-9.7h9l2.5-11.4-11.5-5.1v-9.7l.9-3.3,14.7,10.2,8.2-8.9-10.7-15.2a.7.7,0,0,1,.4-.3c3.7-1.6,7.7-1.6,11.6-1.5.5.1,1,.8,1.2,1.3l3.6,7.4,1.7,3.6,11.7-3.2-.5-9h10.4c-.2,2.6-.5,5.1-.6,7.6,0,.6.4,1.7.8,1.8,3.5,1.1,7.1,2,10.9,3,1.7-3.6,3.4-7.4,5.2-11.1.3-.5.7-1.3,1.1-1.3,4.4-.2,8.7-.1,12.2,1.9-4,5.1-7.4,10.4-11.1,15.7,10,8.5,14.6,19.3,14.3,32.2Zm-41.4,37.1c-2.9-1.6-6.1-1.2-9.1-.9a5.8,5.8,0,0,0-4.5,3.6c3.2.7,5.9,2,7.5,5.3,1.7-3.3,4.6-4.7,8-5.6l-1.1-1.9c.5.6.9,1.3,1.6,1.6s1.5.3,1.7,0c1.7-2.5,4.3-3.5,7-4.2-.6-2.5-.9-2.6-3.1-1.7l-1.2.4-7.7,2.3Zm-6.5-3.5a36,36,0,1,0,.3-71.9c-19.7-.2-36.1,16.1-36.1,36A36.1,36.1,0,0,0,755.7,319.4Zm30-2.7c-1.2-1.7-2.9-1.3-4.5-1.1-3.2.6-5.7,2.9-6.1,5.6,1.8-.4,4.4-.2,5-1.2S783.2,317,785.7,316.7Zm-9.7,5.9-.2-.6c-4.1-.6-7.5.8-8.2,3.4Zm-.8,1.1-5.6,1.8A3.5,3.5,0,0,0,775.2,323.7ZM715.3,289h1c.4-.9,1.2-2.1.9-2.8s-1.5-2-3.3-.5Zm65,24,.2.9c1-.3,2.3-.3,3-1s.3-1.7.4-2.6h-.6Zm-45.1,3.5,3,3.7C739.6,318.1,738.9,317.1,735.2,316.5Zm40.1,12.1c-.6-1-.8-1.9-1.2-1.9a5.8,5.8,0,0,0-2.1.7v.7Z" transform="translate(-8.7 -94.9)" style="fill:#00a0e9"/><path d="M803.6,285.8h-9.3c.3-12.9-4.3-23.7-14.3-32.2,3.7-5.3,7.1-10.6,11.1-15.7-3.5-2-7.8-2.1-12.2-1.9-.4,0-.8.8-1.1,1.3-1.8,3.7-3.5,7.5-5.2,11.1-3.8-1-7.4-1.9-10.9-3-.4-.1-.8-1.2-.8-1.8.1-2.5.4-5,.6-7.6H751.1l.5,9-11.7,3.2-1.7-3.6-3.6-7.4c-.2-.5-.7-1.2-1.2-1.3-3.9-.1-7.9-.1-11.6,1.5a.7.7,0,0,0-.4.3l10.7,15.2-8.2,8.9-14.7-10.2-.9,3.3V235.4h95.3v19.5l-.9-2.9-9.4,6.6c2.4,1.1,4.7,2.1,6.9,3.3s2.2,2.1,3.4,3.1Z" transform="translate(-8.7 -94.9)" style="fill:#f8b62d"/><path d="M708.3,290.8l6.8-.8-4.9,6.4a36.7,36.7,0,0,1,5.4,1.1,42.6,42.6,0,0,1,4.9,3.1l-5.3,2.2c2.6,0,5.3-2.7,8,.5l-1.1.4a19.4,19.4,0,0,1,2.7,2.3l8.4,8.8c-2.7,2.2-4.2,2.2-6.9.2a19,19,0,0,0-3.7-2l-.4.6,3,1.6v.5h-3.2l.3.8c.1.1.2.3.3.3l-2.5,2.9-3.2-2.8c-.7-.7-5.6.1-6,1a1.5,1.5,0,0,0,0,1.3c1,1.6,1.2,4,3.8,4.2.3.1.5.5.7.8l2.7,4a24.5,24.5,0,0,1,1.6-2.8,10.3,10.3,0,0,1,3-2.9c1.9-1,4.2-1.1,6-2.5a1.9,1.9,0,0,1,1.8-.2c2.7,1.6,5.5,3.1,8,4.9s1.1,3.4-1.5,4.9l.6,1.5H708.3Z" transform="translate(-8.7 -94.9)" style="fill:#9cd7f1"/><path d="M778.6,331.1l-.3-3.8a3.3,3.3,0,0,1-1.7-3.8c.6-2.2,2.4-2.4,4.3-2.2.3-2.1,1.4-3.5,3.6-3.5s3.2,1.5,3.5,3.5c2-.1,3.7,0,4.3,2.2s-.3,3.1-2,4c.2,1.3.7,1.9,2,1l5.2-3.6-2.3-2-1.6,1.5a9.5,9.5,0,0,0-1.7-2.8,14.6,14.6,0,0,0-2.8-1.4c-.2-.3-.2-1.1-.6-1.4s-2.2-2.7-1.5-4.6,1.8-2.1,4.4-2c1-2.9,1.9-3.7,4.1-3.7s3.5,1.4,4,3.9l4.1-.4v19.1Z" transform="translate(-8.7 -94.9)" style="fill:#c30d23"/><path d="M803.6,303.1c-1.6,1.9-3.9,2-6,2.7s-4.3,2.4-6.6,3.7l-3.5-3.3c1.8-4.1,3.5-8.2,5.5-12.2.5-1.1,1.8-1.7,2.8-2.6a3.6,3.6,0,0,0,.4-.9c.4-.4,1-.7,1.1-1.1a1.6,1.6,0,0,0-.3-1.3,8.6,8.6,0,0,0-2.3.2v.6l1.7,1.6a4.4,4.4,0,0,1-1.5.8,1.4,1.4,0,0,1-1.2-.4c-.8-1.4.8-4.6,2.4-4.7h6.4a5.6,5.6,0,0,1,1.2.4v1.3a11.8,11.8,0,0,0-2.7.3c-.6.2-.9,1-1.4,1.5a12.4,12.4,0,0,0,1.6.4c1.3.1,1.9.5,1.6,1.9a2.7,2.7,0,0,0,.2,1.5c.8,2.5.1,3.4-2.6,3.2a8.1,8.1,0,0,0-6,2c3.8-1.8,6.2-2.1,9.3-1.1Z" transform="translate(-8.7 -94.9)" style="fill:#f8b62d"/><path d="M708.3,264.6l11.5,5.1-2.5,11.4h-9Z" transform="translate(-8.7 -94.9)" style="fill:#f8b62d"/><path d="M803.6,265c-1.2-1-2.1-2.3-3.4-3.1s-4.5-2.2-6.9-3.3l9.4-6.6.9,2.9Z" transform="translate(-8.7 -94.9)" style="fill:#ea5514"/><path d="M803.6,297.6c-3.1-1-5.5-.7-9.3,1.1a8.1,8.1,0,0,1,6-2c2.7.2,3.4-.7,2.6-3.2a2.7,2.7,0,0,1-.2-1.5c.3-1.4-.3-1.8-1.6-1.9a12.4,12.4,0,0,1-1.6-.4c.5-.5.8-1.3,1.4-1.5a11.8,11.8,0,0,1,2.7-.3Z" transform="translate(-8.7 -94.9)" style="fill:#fff100"/><path d="M755.7,319.4a36.1,36.1,0,0,1-35.8-35.9c0-19.9,16.4-36.2,36.1-36a36,36,0,1,1-.3,71.9Zm28.9-35.6A28.6,28.6,0,0,0,756.1,255c-15.5-.1-28.6,13-28.6,28.5a28.6,28.6,0,0,0,57.1.3Z" transform="translate(-8.7 -94.9)" style="fill:#fff"/><path d="M763,323.4l1.1,1.9c-3.4.9-6.3,2.3-8,5.6-1.6-3.3-4.3-4.6-7.5-5.3a5.8,5.8,0,0,1,4.5-3.6c3-.3,6.2-.7,9.1.9Z" transform="translate(-8.7 -94.9)" style="fill:#fff"/><path d="M763,323.4l-.8-.5-.9-1.1,7.7-2.3,1.2-.4c2.2-.9,2.5-.8,3.1,1.7-2.7.7-5.3,1.7-7,4.2-.2.3-1.3.3-1.7,0S763.5,324,763,323.4Z" transform="translate(-8.7 -94.9)" style="fill:#fff"/><path d="M785.7,316.7c-2.5.3-4.2.9-5.6,3.3s-3.2.8-5,1.2c.4-2.7,2.9-5,6.1-5.6C782.8,315.4,784.5,315,785.7,316.7Z" transform="translate(-8.7 -94.9)" style="fill:#fff"/><path d="M776,322.6l-8.4,2.8c.7-2.6,4.1-4,8.2-3.4Z" transform="translate(-8.7 -94.9)" style="fill:#fff"/><path d="M775.2,323.7a3.5,3.5,0,0,1-5.6,1.8Z" transform="translate(-8.7 -94.9)" style="fill:#fff"/><path d="M715.3,289l-1.4-3.4c1.8-1.5,2.9-.4,3.3.5s-.5,1.9-.9,2.8Z" transform="translate(-8.7 -94.9)" style="fill:#fff"/><path d="M780.3,313l3-2.8h.6c-.1.9.1,2.1-.4,2.6s-2,.7-3,1Z" transform="translate(-8.7 -94.9)" style="fill:#fff"/><path d="M735.2,316.5c3.7.6,4.4,1.6,3,3.7Z" transform="translate(-8.7 -94.9)" style="fill:#fff"/><path d="M796.3,290.5l-1.7-1.6v-.6a8.6,8.6,0,0,1,2.3-.2,1.6,1.6,0,0,1,.3,1.3c-.1.4-.7.7-1.1,1.1Z" transform="translate(-8.7 -94.9)" style="fill:#e83828"/><path d="M775.3,328.6l-3.2-.5v-.7a5.8,5.8,0,0,1,2.1-.7C774.5,326.7,774.7,327.6,775.3,328.6Z" transform="translate(-8.7 -94.9)" style="fill:#fff"/><path d="M784.6,283.8a28.6,28.6,0,0,1-57.1-.3c0-15.5,13.1-28.6,28.6-28.5A28.6,28.6,0,0,1,784.6,283.8Z" transform="translate(-8.7 -94.9)" style="fill:#ea554d"/><path d="M771.8,281.3" transform="translate(-8.7 -94.9)" style="fill:none;stroke:#231815;stroke-miterlimit:10;stroke-width:2px"/><path d="M762.8,276.3" transform="translate(-8.7 -94.9)" style="fill:none;stroke:#231815;stroke-miterlimit:10;stroke-width:2px"/><path d="M770.9,271.8" transform="translate(-8.7 -94.9)" style="fill:none;stroke:#231815;stroke-miterlimit:10;stroke-width:2px"/></g><g id="fan"><path d="M180.2,484.6c0,.2.1.2.2,0l7-23.1c0-.1,0-.2-.1-.2l-6.9-1.2h-.2Z" transform="translate(-8.7 -94.9)" style="fill:#e60012"/><path d="M178.9,484.5c.1.3.2.3.2.2V460.2h-.1l-6.9,1.2c-.1,0-.1.1-.1.2Z" transform="translate(-8.7 -94.9)" style="fill:#e60012"/><path d="M184.4,492.6a2,2,0,0,0-.5-1.5l-3.6-3.7a.9.9,0,0,0-1.2,0l-3.6,3.7a2.5,2.5,0,0,0-.5,1.5c0,1.3.3,3,4.7,3S184.4,493.9,184.4,492.6Zm-4.7,1.8c-3.3,0-3.6-1.2-3.6-2.2s0-.3.1-.4h0c.2.8.8,1.5,3.5,1.5s3.4-.6,3.5-1.4h.1v.3C183.3,493.2,183.3,494.4,179.7,494.4Z" transform="translate(-8.7 -94.9)" style="fill:#e60012"/><path d="M175.8,488.9c.1,0,.1-.1,0-.1l-18.1-14.7a.1.1,0,0,0-.2,0l-2,6.4v.2l19.8,8.5h.2Z" transform="translate(-8.7 -94.9)" style="fill:#e60012"/><path d="M177,487.7a.3.3,0,0,0,.1-.2l-14.7-20.1h-.2l-4,5.4v.2l18.4,14.9h.2Z" transform="translate(-8.7 -94.9)" style="fill:#e60012"/><path d="M178.2,486.6v-.2l-7.4-24.5h-.2l-7.3,4.6c-.1,0-.1.1,0,.1l14.6,20.1Z" transform="translate(-8.7 -94.9)" style="fill:#e60012"/><path d="M181.2,486.5a.1.1,0,0,0,.1-.1l14.6-19.9v-.2l-7.2-4.5h-.2l-7.4,24.4C181.1,486.4,181.1,486.5,181.2,486.5Z" transform="translate(-8.7 -94.9)" style="fill:#e60012"/><path d="M182.4,487.7h.2L201,472.9c0-.1.1-.1,0-.2l-4.1-5.4c0-.1-.1-.1-.1,0l-14.6,20c-.1,0-.1.1,0,.2Z" transform="translate(-8.7 -94.9)" style="fill:#e60012"/><path d="M183.8,489.1h.2l19.6-8.5c.1-.1.2-.2.1-.2l-2-6.5s-.1-.1-.1,0l-18.1,14.6c-.1.1-.1.1,0,.2Z" transform="translate(-8.7 -94.9)" style="fill:#e60012"/><path d="M185.1,490.5a2.1,2.1,0,0,1-.4-.6c-.1-.1-.2-.2-.1-.2l.4-.2,18.1-7.3h.5v6.4c0,.3,0,.5-.5.6l-17.5,1.6A.7.7,0,0,1,185.1,490.5Z" transform="translate(-8.7 -94.9)" style="fill:#e60012"/><path d="M174,490.5l.5-.6v-.2l-.5-.2L156,482.2h-.4c-.1,0-.1.3-.1.5v5.9c0,.3,0,.6.5.6l17.5,1.6C173.7,490.7,173.8,490.7,174,490.5Z" transform="translate(-8.7 -94.9)" style="fill:#e60012"/></g><circle cx="170.4" cy="385.1" r="30.8" style="fill:none;stroke:#e4007f;stroke-miterlimit:10"/><g id="wine"><rect x="111.9" y="404.6" width="8.2" height="1.62" rx="0.8" style="fill:#74aaa0"/><path d="M118.6,500.5a4.4,4.4,0,0,1,.2-1,.1.1,0,0,0,0-.2,9.9,9.9,0,0,1-4.3-8.3v-2.7a2.7,2.7,0,0,1,2.8-2.7h2.3c.6,0,.5-.5.5-.5l.4-6.6a6.5,6.5,0,0,0-1.2-4l-3.3-4.4a4,4,0,0,1-.5-3.8l1.7-3.7a24.9,24.9,0,0,0,1.3-2.9c0-1.7-4-2.4-9-2.4s-8.9.7-8.9,2.4a24.9,24.9,0,0,0,1.3,2.9l1.6,3.7a4,4,0,0,1-.5,3.8l-3.3,4.4a7.2,7.2,0,0,0-1.2,4l1.3,20.9a2.4,2.4,0,0,0,2.4,2.3h14.7a2.2,2.2,0,0,0,1.6-.7A1.1,1.1,0,0,0,118.6,500.5Z" transform="translate(-8.7 -94.9)" style="fill:#74aaa0"/><path d="M118,488.4c-.8,0-.8.6-.8.6v2.2a7.4,7.4,0,0,0,3.5,6.3,1.9,1.9,0,0,0,.8.3h6.2a1,1,0,0,0,.7-.2,7.4,7.4,0,0,0,3.6-6.4v-2.3a.5.5,0,0,0-.5-.5Z" transform="translate(-8.7 -94.9)" style="fill:#74aaa0"/></g><circle cx="102.2" cy="387.3" r="29.9" style="fill:none;stroke:#7bb0a5;stroke-miterlimit:10"/><g id="Water_lily" data-name="Water lily"><path d="M391.9,492.1h-.3s-7.4-2.5-10.1-7.1c-1.4-2.3-1.9-6.9-1.9-6.9s0-.1-.1-.1-5.8,1.3-6,1.6,1.5,8.7,7.4,11.9c3.8,2,11,.8,11,.8s.1,0,0-.1Z" transform="translate(-8.7 -94.9)" style="fill:#13ae67"/><path d="M399.7,492.1h.4s7.3-2.5,10-7.1c1.3-2.3,1.8-6.8,1.8-6.8s.2-.2.3-.2,5.7,1.3,5.9,1.6-1.5,8.7-7.4,11.9c-3.8,2-10.9.8-10.9.8S399.6,492.2,399.7,492.1Z" transform="translate(-8.7 -94.9)" style="fill:#13ae67"/><path d="M390.6,488.3a16.7,16.7,0,0,1-3.5-9.5c0-2.8,1.9-7.1,1.9-7.1s0-.2-.1-.2-5.7-1.9-6.1-1.7-3.2,8.3.2,14.1c2.3,3.9,9.5,6.6,9.5,6.6h0A20.5,20.5,0,0,1,390.6,488.3Z" transform="translate(-8.7 -94.9)" style="fill:#13ae67"/><path d="M408.7,469.8c-.3-.2-5.8,1.6-5.8,1.6s-.1.1-.1.2,2,4.4,2,7.2a16,16,0,0,1-3.6,9.5,22.2,22.2,0,0,1-1.7,2.1c-.1,0-.1.1,0,0s6.9-2.8,9-6.5C412,478.1,409.2,470.1,408.7,469.8Z" transform="translate(-8.7 -94.9)" style="fill:#13ae67"/><path d="M403.2,478.7c0,7.1-6.7,12.9-7.2,12.9s-7.3-5.8-7.3-12.9,6.6-12.9,7.3-12.9S403.2,471.6,403.2,478.7Z" transform="translate(-8.7 -94.9)" style="fill:#13ae67"/></g><circle cx="387.3" cy="384.8" r="29.4" style="fill:none;stroke:#13ae67;stroke-miterlimit:10"/><g id="fish"><path d="M658.3,458.5c-2.9-3.4-8.3-3.2-13.1.6-.1.1-.2,0-.2-.1-1.7-1.5-6.4,1.3-7.3,3s-.1.7,1.9.6a3.9,3.9,0,0,1,1.7.4c.1,0,.1.1.1.2a21.6,21.6,0,0,0-3.6,8.4c-.9,4,.3,10.3.7,13.4,0,.3.2.2.3.1l1.2-.2,1.4.3c0,.1.2.1.2-.1.7-3.2,2.8-9.2,5.6-11.4a14.5,14.5,0,0,1,2.9-1.3h.2a4.3,4.3,0,0,1,.3,1.7c-.2,2,.1,2.1.5,1.9s3.6-3.8,3.6-5.9a.4.4,0,0,1,.2-.3C661.1,465.9,661.6,462.5,658.3,458.5Z" transform="translate(-8.7 -94.9)" style="fill:#036eb8;stroke:#036eb8;stroke-miterlimit:10"/><path d="M646.9,495.5c.3.5.2.7-.4.5l-6.5-2.2c-.3-.1-.2-4.7-.6-4.7s-.6,4.4-.9,4.5l-6.5,1.3c-.6.2-.8-.1-.4-.5l6.6-7.4a1.8,1.8,0,0,1,1.8-.7,2,2,0,0,1,1.7,1Z" transform="translate(-8.7 -94.9)" style="fill:#036eb8;stroke:#036eb8;stroke-miterlimit:10"/><path d="M654.8,499.8c2.8,3.4,8.3,3.2,13-.6.1-.1.2,0,.3.1,1.6,1.5,6.3-1.3,7.3-3s.1-.7-1.9-.6a4,4,0,0,1-1.8-.4.1.1,0,0,1,0-.2,24,24,0,0,0,3.6-8.4c.8-4-.4-10.3-.7-13.4,0-.3-.2-.2-.3-.1l-1.2.2a3.3,3.3,0,0,1-1.4-.4c-.1,0-.2,0-.3.2-.6,3.2-2.7,9.2-5.6,11.4a10.8,10.8,0,0,1-2.9,1.3c-.1.1-.1,0-.2-.1a2.6,2.6,0,0,1-.2-1.6c.1-2-.2-2.2-.6-1.9s-3.5,3.8-3.6,5.8a.6.6,0,0,1-.1.4C652,492.4,651.5,495.8,654.8,499.8Z" transform="translate(-8.7 -94.9)" style="fill:#036eb8;stroke:#036eb8;stroke-miterlimit:10"/><path d="M666.1,462.8c-.3-.5-.1-.7.4-.5l6.5,2.2c.3.1.2,4.7.6,4.7s.7-4.5.9-4.5l6.6-1.4c.6-.1.7.2.3.6l-6.6,7.4a2.2,2.2,0,0,1-3.5-.3Z" transform="translate(-8.7 -94.9)" style="fill:#036eb8;stroke:#036eb8;stroke-miterlimit:10"/></g><circle cx="647.4" cy="384.2" r="30.8" style="fill:none;stroke:#036eb8;stroke-miterlimit:10"/><g id="Rice_Roll" data-name="Rice Roll"><path d="M462,462.3c-10.4,0-21.1,19.5-18.2,25.6,1.5,3.2,5.6,5.2,10.5,6.2a38.9,38.9,0,0,0,15.2,0c5.2-1,9.4-3.2,10.6-6.3C482.5,481.5,472.5,462.3,462,462.3Zm14.6,24c-.8,2-3,3.5-6,4.4l-.6.2c-.2.1-.5.1-.5-.4V481a1.7,1.7,0,0,0-1.8-1.7H456.1a1.7,1.7,0,0,0-1.8,1.7v9.5c0,.4-.3.5-.5.4-3.1-.9-5.5-2.4-6.5-4.5s.4-7.6,3.3-12.1,7.1-8.5,11.2-8.5h.3a9.6,9.6,0,0,1,6.1,2.5,22.3,22.3,0,0,1,5,5.9C476,478.7,477.5,483.8,476.6,486.3Z" transform="translate(-8.7 -94.9)" style="fill:#727171"/></g><circle cx="452.6" cy="384.4" r="28.7" style="fill:none;stroke:#656433;stroke-miterlimit:10"/><g id="Sakura"><path d="M732.4,475.2c4.6,1.4,3.2-6.1-.6-2.9-.2.1-.2.1-.1-.1,3.1-3.7-4.6-5.1-2.9-.3,0,.1,0,.1-.1,0-2.6-4.5-6.4,2.8-1.3,2.6.2,0,.2,0,0,.1-4.9,1.1,1.4,6.7,2.2,2h0c.2,4.4,6.7.7,2.8-1.4C732.1,475.2,732.1,475.1,732.4,475.2Zm-1.4-.8c-.3-.1-.3.1-.2.3s.2.4.1.5-.4,0-.5-.2-.3-.2-.4.1-.2.4-.3.4-.3-.2-.2-.5-.1-.3-.3-.2a.5.5,0,0,1-.6.1c-.1-.1,0-.4.3-.5s.1-.3-.1-.4-.5-.1-.5-.3l.5-.2c.3,0,.4-.1.2-.3s-.1-.5,0-.5.3,0,.5.2.3.1.3-.1.2-.5.4-.4.2.2.2.5.1.3.3.1a.4.4,0,0,1,.5,0c.1.1,0,.3-.2.5s-.2.3.1.3.4.2.4.4S731.3,474.4,731,474.4Z" transform="translate(-8.7 -94.9)" style="fill:#ce90bd"/><path d="M716.5,492c3.7,1.1,2.5-4.9-.5-2.3-.1.1-.2.1,0-.1,2.4-3-3.7-4-2.4-.2.1,0,0,.1,0,0-2.2-3.6-5.2,2.2-1.1,2,.2,0,.2.1,0,.1-3.9.9,1.1,5.4,1.7,1.7.1-.2.1-.2.1,0,.1,3.5,5.3.6,2.2-1.1C716.3,492,716.3,491.9,716.5,492Zm-1.1-.6c-.2-.1-.3,0-.2.2s.2.4.1.4-.3,0-.4-.1-.3-.2-.3,0a.4.4,0,0,1-.3.4c-.1,0-.2-.2-.1-.4s-.1-.3-.3-.2-.3.2-.4.1,0-.3.2-.4.1-.3-.1-.3-.4-.2-.3-.3.2-.2.4-.1.2-.1.1-.3-.1-.3,0-.4.2,0,.4.2.2.1.2-.1.2-.4.3-.4a.6.6,0,0,1,.2.5c-.1.2.1.2.2.1s.4-.1.4,0,0,.2-.1.4-.2.2,0,.2.4.2.4.3S715.6,491.4,715.4,491.4Z" transform="translate(-8.7 -94.9)" style="fill:#ce90bd"/><path d="M740.1,481.7c3.8,1.1,2.6-4.9-.4-2.4-.2.1-.2.1-.1-.1,2.5-3-3.7-4-2.4-.2.1.1,0,.1,0,0-2.2-3.6-5.2,2.3-1.1,2.1.2,0,.2,0,0,.1-3.9.9,1.1,5.4,1.8,1.6h0c.1,3.6,5.4.6,2.2-1.2ZM739,481c-.2,0-.2.1-.1.3a.3.3,0,0,1,0,.4c-.1.1-.3,0-.4-.2s-.2-.1-.3.1-.1.4-.2.3-.2-.2-.2-.4-.1-.2-.3-.1a.3.3,0,0,1-.4,0c-.1-.1,0-.2.2-.4s.1-.2-.1-.2-.3-.2-.3-.3.2-.2.4-.2.3-.1.1-.2a.4.4,0,0,1,0-.5.4.4,0,0,1,.4.2c.1.2.2.1.3-.1s.1-.3.2-.3.2.2.2.4.1.3.3.1h.4c.1.1,0,.3-.2.4s-.1.3.1.3a.3.3,0,0,1,.3.3C739.4,481,739.2,481.1,739,481Z" transform="translate(-8.7 -94.9)" style="fill:#ce90bd"/><path d="M748.3,468.2c4.4,1.3,3-5.7-.5-2.7-.2.1-.3.1-.1-.1,2.9-3.5-4.4-4.8-2.8-.3.1.1,0,.1,0,0-2.5-4.2-6.1,2.7-1.3,2.5.2-.1.2,0,0,0-4.6,1.1,1.3,6.4,2.1,2h0c.2,4.2,6.3.7,2.6-1.3C748.1,468.2,748.1,468.2,748.3,468.2Zm-1.5-.8c-.2-.1-.2,0-.1.2s.1.4,0,.4-.2,0-.4-.1-.2-.2-.2,0-.2.4-.3.4-.2-.2-.2-.4-.1-.3-.2-.2H745c-.1-.1,0-.3.1-.4s.2-.3,0-.3-.4-.2-.4-.3.2-.2.4-.1.3-.1.2-.3a.2.2,0,0,1-.1-.4c.1-.1.3,0,.4.2s.3.1.3-.1.1-.4.3-.3.2.1.1.4.1.2.3.1a.3.3,0,0,1,.4,0c.1.1,0,.2-.2.4s-.1.2.1.2.4.2.3.3S747,467.4,746.8,467.4Z" transform="translate(-8.7 -94.9)" style="fill:#ce90bd"/><path d="M741.6,471.5c.2-.1.1-.2,0-.2a3,3,0,0,1-.8-1.8h0c0-.1-.1-.3-.3-.1l-4.3,2.5c-.2.1-.1.2,0,.3a5.9,5.9,0,0,1,.2,1.3,2.8,2.8,0,0,1-.1.9c0,.1,0,.2.3.1Z" transform="translate(-8.7 -94.9)" style="fill:#ce90bd"/><path d="M744.5,478.2l-1.2.4c-.2.1-.1.2,0,.3a3.5,3.5,0,0,1,.3,1.1s0,.2.1.1l1.3-.5c.1,0,.2,0,.2-.1l-.5-1.3Z" transform="translate(-8.7 -94.9)" style="fill:#ce90bd"/><path d="M733.3,480.9l-.3-.5c0-.1,0-.2-.2-.2l-3.5-.3-3.4-.7c-.1-.1-.1-.1,0-.2s0-.1,0-.2a3.6,3.6,0,0,1-1.4-1.8c0-.1,0-.3-.3-.2a42,42,0,0,1-22.8,0s-.6-.2-.6.5-.2,1.4-.3,2.1.3,1,.3,1a22.8,22.8,0,0,0,5.2,1l.6.3a16,16,0,0,1,4.9,5.3h1.1c0-.1.1-.2.1-.3l.7-.6h0a12.1,12.1,0,0,0-2.6-4.2c0-.1-.1-.1.1-.2a34.1,34.1,0,0,0,6.3-.5l3.2-.6h.6l7.9,1.2a28.9,28.9,0,0,0,4.5.4c.2,0,.2-.1.2-.2a.4.4,0,0,1,.1-.3.3.3,0,0,0-.1-.2C733.5,481.2,733.3,481.1,733.3,480.9Z" transform="translate(-8.7 -94.9)" style="fill:#ce90bd"/></g><circle cx="716.5" cy="384.2" r="30.8" style="fill:none;stroke:#ce90bd;stroke-miterlimit:10"/></svg>